<svg width="60" height="37" viewBox="0 0 60 37" fill="none" xmlns="http://www.w3.org/2000/svg">
<g clip-path="url(#clip0_1_1693)">
<path d="M57.7527 25.8427L50.2231 26.2376C50.3746 25.9604 50.5027 25.7122 50.6472 25.4734C50.6955 25.4245 50.7603 25.3954 50.8289 25.3918C52.6572 25.1511 54.4855 24.9118 56.3139 24.6742C56.4643 24.6605 56.6113 24.6211 56.7484 24.5577L51.0165 24.7907C51.1423 24.5577 51.2343 24.3596 51.3567 24.1802C51.4231 24.1177 51.5101 24.0817 51.6013 24.0788C52.5147 23.9565 53.4293 23.8458 54.3438 23.7293C55.1372 23.628 55.9306 23.5266 56.7205 23.3798L51.705 23.5289C51.8308 23.3029 51.9275 23.1189 52.037 22.9464C52.0741 22.9084 52.1239 22.8856 52.1769 22.8824C53.2347 22.7659 54.2937 22.6587 55.3515 22.5457C56.6199 22.4082 57.8886 22.2703 59.1577 22.1321C59.4385 22.1018 59.7204 22.0808 60 22.0237C59.7763 22.0237 59.5515 22.0237 59.3278 22.0237C56.788 22.0995 54.2494 22.181 51.7097 22.2498C51.5994 22.246 51.4901 22.2715 51.3929 22.3237C51.2957 22.3758 51.2141 22.4528 51.1563 22.5468C49.5334 24.8443 47.8942 27.1335 46.2725 29.4298C46.2172 29.5263 46.1378 29.6068 46.042 29.6634C45.9462 29.72 45.8373 29.7507 45.7261 29.7525C45.1762 29.7816 44.6275 29.8597 44.0788 29.9156C44.0019 29.9238 43.9226 29.9156 43.8166 29.9156C43.742 28.1533 43.5387 26.3987 43.2085 24.666C42.8736 22.9209 42.3715 21.2121 41.7091 19.5632C42.2334 19.6564 42.7227 19.7624 43.2236 19.83C44.9397 20.063 46.657 20.3053 48.3765 20.5092C49.9124 20.6937 51.4606 20.7557 53.0063 20.6944C54.324 20.6397 55.6405 20.5325 56.922 20.1341C57.1099 20.0759 57.2893 19.9932 57.4556 19.8882C57.8144 19.6552 57.9496 19.3384 57.776 18.9562C57.576 18.5209 57.3398 18.1031 57.07 17.7073C56.0086 16.1194 54.5954 14.8705 53.1089 13.7089C49.5368 10.9063 45.5307 8.70651 41.2489 7.19645C41.2128 7.18363 41.179 7.16616 41.0765 7.12189C41.4155 7.07063 41.687 7.02869 41.9596 6.98907C43.3471 6.77061 44.7491 6.65728 46.1537 6.65005C48.1167 6.65937 50.0204 7.01354 51.8996 7.55877C54.4712 8.30439 57.009 9.16534 59.513 10.1416C59.5625 10.1634 59.6163 10.1733 59.6703 10.1708C57.0949 8.88146 54.4199 7.80149 51.6712 6.94131C52.206 6.76073 52.7535 6.7351 53.3023 6.71529C54.6875 6.66403 55.9399 7.1149 57.1364 7.74867C57.854 8.12731 58.553 8.54671 59.2521 8.94865C59.3125 8.99189 59.3851 9.01474 59.4594 9.01389C59.1985 8.81584 58.9422 8.61196 58.6765 8.41973C57.5604 7.61702 56.3977 6.89937 55.0964 6.42637C53.9687 6.01511 52.8258 6.02676 51.6736 6.28074C51.2821 6.36695 50.9 6.49277 50.5085 6.59297C50.4343 6.611 50.3568 6.611 50.2825 6.59297C48.7254 6.21884 47.1306 6.02341 45.5292 6.01045C45.4065 6.00116 45.2873 5.96539 45.1797 5.9056C43.9623 5.27998 42.7576 4.62407 41.5262 4.02641C40.2707 3.42531 38.9622 2.94171 37.6175 2.58178C37.514 2.55081 37.4073 2.53166 37.2995 2.5247C39.6668 3.42643 41.9759 4.43301 44.0741 5.99181C43.6535 6.01861 43.2912 6.0489 42.9277 6.06404C41.7313 6.123 40.5406 6.26823 39.3651 6.4986C39.2197 6.52485 39.0704 6.52008 38.927 6.48462C37.1119 6.00113 35.2735 5.70871 33.3896 5.7856C32.8852 5.80424 32.3807 5.83803 31.8809 5.90211C31.7972 5.91442 31.7118 5.90657 31.6318 5.87921C31.5517 5.85186 31.4794 5.80579 31.4207 5.74483C30.0891 4.56815 28.6992 3.46953 27.1381 2.60625C26.8299 2.43751 26.5121 2.28696 26.1863 2.15538C27.9525 3.1806 29.4821 4.48543 30.8848 6.02094C30.4829 6.10132 30.1194 6.18521 29.7524 6.23647C29.6872 6.24579 29.5905 6.13511 29.5311 6.06171C28.7483 5.08979 27.858 4.20963 26.8771 3.43808C26.0139 2.74593 25.0613 2.1734 24.045 1.73597C24.0019 1.71733 23.9623 1.6952 23.8539 1.64277C24.172 1.56471 24.4294 1.49248 24.6892 1.44122C26.9452 1.00801 29.2465 0.858509 31.5396 0.996181C34.9758 1.17908 38.3595 1.91838 41.5588 3.18526C42.4302 3.52778 43.2772 3.93088 44.1358 4.30602C44.1883 4.32932 44.2442 4.3468 44.2989 4.3666L44.3246 4.31184C43.7654 4.01127 43.2131 3.69671 42.6446 3.41361C40.0072 2.11416 37.2076 1.17378 34.3205 0.617548C32.0799 0.149648 29.7918 -0.0513583 27.5039 0.0187246C24.8488 0.122412 22.2543 0.561627 19.7845 1.5752C19.1822 1.82218 18.6194 2.15771 18.0369 2.46528C17.9321 2.52355 17.8405 2.60288 17.7678 2.69828C17.8025 2.69002 17.8364 2.67871 17.8692 2.6645C20.3157 1.44239 22.6924 1.62763 24.991 3.05711C26.389 3.92506 27.4701 5.11921 28.4348 6.43569C28.4543 6.46802 28.471 6.50193 28.4849 6.53704L26.5917 7.10791C26.2026 6.56734 25.8484 6.02676 25.4465 5.52464C24.6756 4.53052 23.6899 3.72362 22.5631 3.16429C21.2629 2.53635 19.9662 2.53751 18.6637 3.13517C16.9313 3.92855 15.6218 5.21474 14.4754 6.72578C14.8622 7.19179 15.263 7.61236 15.5997 8.0842C15.8653 8.45701 16.1577 8.53972 16.6074 8.51176C18.8979 8.3673 21.1918 8.26827 23.4811 8.15294C23.526 8.14858 23.5711 8.15923 23.6093 8.18323C23.537 8.21585 23.466 8.25313 23.3926 8.27992C21.567 8.94981 19.7495 9.63951 17.9169 10.2779C16.7543 10.6753 15.5556 10.9582 14.338 11.1226C14.2618 11.1369 14.1834 11.1339 14.1085 11.1138C14.0337 11.0936 13.9644 11.0568 13.9057 11.0061C13.1846 10.4387 12.425 9.93426 11.5419 9.6465C11.4387 9.61112 11.3321 9.58653 11.2239 9.5731C12.3644 10.3676 13.3384 11.2973 13.8591 12.6406C14.4475 12.4356 15.03 12.2457 15.6067 12.0313C18.2012 11.0585 20.7957 10.088 23.3832 9.09894C24.6776 8.6038 25.9463 8.02711 27.2453 7.56227C29.3049 6.82487 31.477 6.45116 33.6646 6.45782C36.6634 6.46481 39.5014 7.18596 42.1961 8.47332C44.863 9.74998 47.3992 11.2834 49.7687 13.0519C50.9978 13.9676 52.1734 14.952 53.1601 16.131C53.5399 16.5854 53.823 17.1225 54.1306 17.6328C54.2053 17.7806 54.2504 17.9417 54.2634 18.1069C54.3356 18.6358 54.1178 19.025 53.6075 19.1939C53.2704 19.3009 52.9221 19.3689 52.5695 19.3966C50.3225 19.5996 48.0627 19.6206 45.8123 19.4595C44.4539 19.3558 43.1025 19.1764 41.7464 19.0354C41.6583 19.0309 41.5736 18.9999 41.5033 18.9464C41.4331 18.893 41.3806 18.8197 41.3526 18.736C40.2854 16.378 38.8816 14.253 36.9593 12.4962C36.6634 12.2247 36.3395 11.9835 36.0273 11.7307C35.9681 11.6775 35.8949 11.6423 35.8164 11.6294C35.9259 11.7296 36.0377 11.8298 36.1449 11.9323C38.0847 13.7788 39.407 16.0215 40.3856 18.4925C41.2338 20.6572 41.8061 22.92 42.0889 25.2276C42.2683 26.6652 42.3464 28.1157 42.4664 29.5603C42.478 29.7001 42.4664 29.8422 42.4664 30.0263C42.1949 29.883 41.9468 29.7548 41.7021 29.622C41.2594 29.382 40.8225 29.1292 40.3728 28.9009C40.2885 28.8661 40.2174 28.8056 40.1695 28.7279C40.1216 28.6503 40.0994 28.5596 40.106 28.4687C39.9988 25.5841 39.661 22.7356 38.786 19.971C37.9845 17.4347 36.689 15.185 34.825 13.2767C34.1481 12.5777 33.3803 12.0057 32.4483 11.6853C30.9652 11.1762 29.5159 11.5979 28.514 12.8095C27.7894 13.6868 27.3921 14.719 27.0845 15.7908C26.502 17.8063 26.2911 19.8684 26.3226 21.9655C26.3407 23.5031 26.5223 25.0344 26.8643 26.5335C26.8818 26.6093 26.8935 26.6862 26.9156 26.8027C26.5055 26.5534 26.1292 26.3192 25.7506 26.0943C22.5339 24.2047 19.1682 22.6482 15.5822 21.5927C15.3221 21.5378 15.0542 21.5295 14.7912 21.5682C13.7426 21.6533 12.6871 21.7546 11.6351 21.849C11.6138 21.8518 11.5923 21.8518 11.571 21.849C11.3613 20.8331 11.1773 19.8277 10.9419 18.8339C10.5924 17.3601 10.159 15.9132 9.42739 14.5734C9.10934 13.9909 8.73653 13.4422 8.21343 13.0181C8.09185 12.9179 7.96029 12.8304 7.82082 12.7571C7.28374 12.4787 6.80841 12.6313 6.53347 13.173C6.2923 13.6472 6.22823 14.1645 6.20376 14.6876C6.13736 16.06 6.31328 17.4102 6.59871 18.7477C6.72337 19.3302 6.86084 19.9127 7.00064 20.5255C4.64146 20.3647 2.30442 20.5453 0 20.8016C0.850468 20.9706 1.7289 21.1232 2.59685 21.3224C4.94159 21.8619 7.20002 22.7245 9.30739 23.8854C9.42847 23.9523 9.56703 23.9808 9.70466 23.967C11.3357 23.7002 12.9667 23.4532 14.5978 23.1305C15.3259 22.986 15.9842 23.1515 16.6587 23.3274C19.6878 24.1161 22.6143 25.167 25.3824 26.6384C25.9381 26.9343 26.4775 27.2617 27.0135 27.5902C27.1128 27.6613 27.1857 27.7633 27.2208 27.8803C27.8103 29.7082 28.6189 31.4255 29.7757 32.9668C30.7078 34.2157 31.811 35.2887 33.1834 36.0611C33.4119 36.1972 33.6843 36.239 33.943 36.1776C35.8071 35.7967 37.6711 35.4145 39.5503 35.0755C39.8998 35.0114 40.2971 35.1221 40.6676 35.1792C41.3444 35.2852 42.0167 35.4122 42.6935 35.5287C42.7943 35.5429 42.897 35.5365 42.9953 35.5101C46.3979 34.6495 49.8006 33.7866 53.2032 32.9214L56.6808 32.0336C56.6976 32.0304 56.7132 32.0229 56.7263 32.0119C56.7393 32.0009 56.7494 31.9867 56.7554 31.9707C56.4059 32.0255 56.0564 32.0779 55.7127 32.135L50.0483 33.067L44.1067 34.0468C43.8889 34.0829 43.6722 34.1284 43.4531 34.1482C43.3449 34.1571 43.2363 34.1382 43.1374 34.0934C42.1763 33.6379 41.2209 33.173 40.261 32.7163C40.2026 32.6978 40.1529 32.6585 40.1214 32.606C40.0899 32.5534 40.0786 32.4912 40.0897 32.4309C40.1165 31.761 40.1235 31.0911 40.1375 30.4201C40.1375 30.3269 40.1375 30.2337 40.1375 30.1032C40.2447 30.1545 40.3215 30.1894 40.3961 30.2278C41.0241 30.5575 41.6485 30.8931 42.2811 31.2135C42.3894 31.2666 42.511 31.2865 42.6306 31.2705C44.7673 30.921 46.9028 30.5587 49.0383 30.2034C51.2681 29.8314 53.498 29.462 55.7279 29.0954C57.0781 28.8706 58.4272 28.6422 59.7728 28.3813L48.4371 29.4985C48.6177 29.1712 48.7657 28.8904 48.9299 28.6201C48.959 28.5723 49.0464 28.5525 49.1187 28.5432C50.5633 28.3463 52.0079 28.1553 53.4526 27.9607C55.0059 27.7502 56.5593 27.5378 58.1127 27.3234C58.332 27.2982 58.5495 27.2593 58.7639 27.2069L49.3854 27.7755C49.5532 27.4737 49.6953 27.2081 49.8515 26.9506C49.8759 26.9087 49.9586 26.89 50.0181 26.8819C51.7539 26.6567 53.4894 26.4341 55.2246 26.2143C56.0401 26.1118 56.8556 26.0198 57.6711 25.9207C57.6804 25.8998 57.6921 25.8823 57.7527 25.8427ZM26.756 21.2094C26.7641 19.8996 26.9414 18.5964 27.2837 17.3322C27.5925 16.2301 28.027 15.1862 28.8274 14.3369C29.446 13.6798 30.1905 13.2884 31.1167 13.3699C31.8751 13.434 32.5147 13.7917 33.0821 14.2728C34.0397 15.0813 34.7213 16.1007 35.2688 17.211C36.5375 19.7846 37.1049 22.5259 37.1725 25.3802C37.2109 27.045 37.056 28.6865 36.5469 30.2803C36.2276 31.288 35.7931 32.2375 35.0323 32.9971C34.2296 33.7952 33.2848 34.1016 32.1827 33.7451C31.5847 33.5362 31.0424 33.1936 30.5971 32.7431C29.5206 31.7156 28.8018 30.4527 28.2402 29.0954C27.1917 26.5732 26.7478 23.9332 26.756 21.2094ZM15.5904 6.17239C15.6125 6.13744 15.6265 6.10831 15.6451 6.08501C16.5516 4.9923 17.7512 4.18111 19.1029 3.74681C20.3984 3.33206 21.5728 3.58487 22.6271 4.4365C23.2333 4.92851 23.7589 5.51224 24.1848 6.16657C24.377 6.45899 24.5506 6.76422 24.7498 7.0916C24.4154 7.12538 24.1335 7.14519 23.8551 7.18363C23.7958 7.19804 23.7333 7.19023 23.6794 7.16167C23.6256 7.13312 23.584 7.08581 23.5626 7.02869C23.3148 6.56322 23.0349 6.11555 22.725 5.68891C21.8303 4.54135 20.6431 4.09981 19.2113 4.36544C18.708 4.46144 18.2422 4.69816 17.868 5.04814C18.8851 4.56466 19.9208 4.38408 20.9938 4.83378C22.0668 5.28348 22.6027 6.20035 23.0093 7.24888C22.8928 7.26402 22.8031 7.278 22.718 7.28616L19.139 7.61702C18.4563 7.67993 17.7736 7.74751 17.0909 7.80343C17.0435 7.80984 16.9952 7.80643 16.9491 7.7934C16.903 7.78037 16.8601 7.75801 16.823 7.7277C16.4071 7.21742 16.0016 6.69432 15.5904 6.17239ZM6.50317 15.5718C6.52997 14.9474 6.52182 14.3043 6.80142 13.7078C7.05656 13.1649 7.48645 13.0693 7.90586 13.4922C8.18179 13.7618 8.41723 14.0698 8.60488 14.4068C9.62279 16.3396 10.1312 18.5 10.0821 20.684C10.0722 21.1488 9.9957 21.6098 9.85496 22.0529C9.62195 22.7845 9.09769 22.8975 8.5909 22.3231C8.27189 21.9547 8.00351 21.5452 7.79286 21.1057C6.95055 19.3675 6.57191 17.5104 6.50201 15.5718H6.50317Z" fill="#2169CF"/>
<path d="M49.8934 14.7329C48.2678 13.2015 46.4914 11.8384 44.5914 10.6646C43.1176 9.75823 41.5821 8.98116 39.9091 8.51048C39.7772 8.47802 39.6379 8.49501 39.5177 8.55825C38.8443 8.95436 38.7022 9.66735 39.1192 10.3757C39.3338 10.7457 39.6348 11.0583 39.9965 11.2867C40.5289 11.6164 41.0765 11.9217 41.6415 12.2188C41.4158 11.743 41.3449 11.2084 41.4388 10.6902C41.483 10.4452 41.5673 10.209 41.6881 9.99123C41.9584 9.52522 42.3813 9.52522 42.6784 9.97143C42.9172 10.348 43.0211 10.7945 42.9731 11.2378C42.9359 11.7306 42.8264 12.2071 42.3534 12.5415L44.0916 13.209C43.9398 12.975 43.8427 12.7097 43.8076 12.433C43.7725 12.1562 43.8003 11.8751 43.8889 11.6106C43.9302 11.4752 43.9953 11.3481 44.0811 11.2355C44.285 10.9699 44.5657 10.978 44.7801 11.2355C45.1716 11.7155 45.1995 12.9224 44.5599 13.3582C46.299 13.9553 48.0823 14.4149 49.8934 14.7329Z" fill="#2169CF"/>
<path d="M12.4483 13.8219C13.5259 15.5333 13.9733 17.423 14.3916 19.3231C14.416 19.4396 14.4219 19.534 14.5861 19.5235C16.2358 19.4175 17.8051 19.8194 19.3627 20.3052C20.9963 20.8307 22.5882 21.4776 24.1254 22.2403C24.1501 22.2555 24.1779 22.2648 24.2068 22.2676C24.2356 22.2704 24.2648 22.2667 24.292 22.2567C23.8026 21.9619 23.3215 21.6532 22.824 21.3759C20.6108 20.1299 18.2271 19.2146 15.7488 18.6591C15.6992 18.6549 15.653 18.6317 15.6201 18.5944C15.5871 18.5571 15.5698 18.5085 15.5717 18.4587C15.3946 16.9348 14.9834 15.4657 14.5384 14.0036C14.5174 13.9325 14.43 13.8312 14.3706 13.83C13.7415 13.8172 13.11 13.8219 12.4483 13.8219Z" fill="#2169CF"/>
<path d="M5.73775 13.8393C5.97926 13.0056 6.33194 12.2081 6.78628 11.4685C7.13303 10.9213 7.55591 10.4263 8.04217 9.99823C8.41149 9.67086 8.86468 9.53222 9.3237 9.43087C10.5388 9.16524 11.7528 8.8903 12.9796 8.69341C13.6902 8.5769 14.4055 8.76913 15.1057 8.92641L15.2688 8.96602L13.8568 7.21033C13.6238 7.38974 13.4106 7.57498 13.1753 7.72876C13.021 7.83034 12.8509 7.90554 12.672 7.95128C11.4406 8.25069 10.2056 8.5338 8.97536 8.83321C8.07946 9.05456 7.51325 9.70465 7.03209 10.4328C6.37184 11.4082 5.93214 12.5159 5.74358 13.6786C5.73731 13.7319 5.73535 13.7857 5.73775 13.8393Z" fill="#2169CF"/>
<path d="M15.164 12.9703C16.1134 13.3856 17.1433 13.5845 18.1791 13.5528V11.9579L15.164 12.9703Z" fill="#2169CF"/>
<path d="M41.8571 11.0783C41.8993 11.2942 41.9557 11.5071 42.026 11.7156C42.0994 11.8973 42.252 11.8973 42.3335 11.7156C42.432 11.5138 42.4825 11.292 42.481 11.0674C42.4796 10.8429 42.4264 10.6218 42.3254 10.4212C42.2508 10.2663 42.0924 10.2721 42.0271 10.4375C41.9582 10.6477 41.9014 10.8616 41.8571 11.0783Z" fill="#2169CF"/>
<path d="M44.1626 12.1897C44.2034 12.3598 44.2349 12.5299 44.2873 12.693C44.2996 12.7199 44.3184 12.7433 44.342 12.7612C44.3656 12.7791 44.3932 12.7909 44.4224 12.7955C44.4516 12.7903 44.4792 12.7783 44.5028 12.7605C44.5265 12.7427 44.5457 12.7195 44.5587 12.693C44.6253 12.5374 44.6596 12.3699 44.6596 12.2007C44.6596 12.0315 44.6253 11.8641 44.5587 11.7085C44.5435 11.679 44.5219 11.6533 44.4955 11.6332C44.4691 11.613 44.4386 11.599 44.4061 11.592C44.3688 11.5862 44.2966 11.6573 44.2803 11.7085C44.2325 11.8623 44.2022 12.0242 44.1626 12.1897Z" fill="#2169CF"/>
<path d="M26.756 21.2093C26.7467 23.9331 27.1917 26.5684 28.2367 29.0953C28.7983 30.4526 29.5183 31.7155 30.5936 32.743C31.0389 33.1934 31.5812 33.5361 32.1792 33.7449C33.2848 34.1014 34.2261 33.795 35.0288 32.997C35.7931 32.2374 36.2276 31.2879 36.5434 30.2801C37.0502 28.6864 37.2074 27.0449 37.169 25.38C37.1014 22.5257 36.534 19.7879 35.2653 17.2109C34.7178 16.1006 34.0362 15.0812 33.0786 14.2727C32.5077 13.7915 31.8716 13.4339 31.1132 13.3698C30.187 13.2906 29.4425 13.6797 28.8239 14.3368C28.0235 15.1861 27.589 16.2299 27.2803 17.332C26.9391 18.5965 26.7629 19.8997 26.756 21.2093ZM30.3443 14.4078C30.3443 14.4684 30.3443 14.5162 30.3443 14.5628C30.3641 15.5938 30.3186 16.6319 30.4223 17.6548C30.5458 18.8734 30.7986 20.0792 30.992 21.2908C31.0099 21.3727 31.0059 21.4579 30.9804 21.5378C30.858 21.8337 30.7194 22.1203 30.5843 22.4232C30.6029 22.4232 30.5843 22.4232 30.5726 22.4232C29.5101 21.8645 28.5482 21.1325 27.7265 20.2574C27.6973 20.223 27.6753 20.1831 27.6617 20.1401C27.6481 20.0971 27.6432 20.0519 27.6472 20.0069C27.7206 19.4058 27.7765 18.8 27.8965 18.207C28.1016 17.1911 28.4196 16.2101 29.0523 15.3655C29.3843 14.9193 29.7851 14.5628 30.3443 14.4078ZM33.703 32.5997C33.0098 32.9294 32.3586 32.8327 31.7283 32.4762C31.0631 32.0964 30.5714 31.5337 30.1462 30.9116C30.0697 30.7963 30.0292 30.6608 30.0297 30.5225C30.0618 29.2604 30.317 28.0141 30.7835 26.841C30.9338 26.4612 31.119 26.0942 31.2728 25.7552L32.0883 26.2725C32.312 28.4103 32.9889 30.4957 33.703 32.5997ZM32.4949 15.0661C33.6739 15.8373 35.3865 19.2811 35.5659 21.0951L32.9108 22.6947C32.5613 21.9199 32.3644 21.6461 32.0103 21.3537C31.9693 21.3178 31.9359 21.274 31.9121 21.225C31.8883 21.176 31.8745 21.1227 31.8716 21.0683C31.9066 20.1957 31.9171 19.3207 32.0114 18.4505C32.1337 17.3344 32.326 16.2253 32.4949 15.0661ZM35.369 30.4432C35.1745 30.2289 35.0009 30.0483 34.8389 29.8607C33.8576 28.7436 33.1408 27.4195 32.7419 25.987C32.7239 25.8833 32.7344 25.7766 32.7722 25.6783C32.8689 25.3742 32.9982 25.0783 33.0809 24.7696C33.126 24.5456 33.1548 24.3186 33.1671 24.0904C34.0991 24.1638 35.0195 24.2325 35.9364 24.3152C35.9888 24.3152 36.0645 24.4317 36.0704 24.5051C36.1606 25.6531 36.1293 26.8075 35.9772 27.9489C35.8772 28.8021 35.6729 29.6398 35.369 30.4432ZM27.709 23.4356L30.5132 23.5078C30.5994 23.8946 30.6798 24.3024 30.7858 24.7043C30.805 24.7613 30.8079 24.8224 30.7941 24.8809C30.7803 24.9394 30.7504 24.9929 30.7078 25.0352C30.2359 25.6247 29.7618 26.213 29.3167 26.8235C29.0721 27.1567 28.8845 27.5319 28.669 27.893C28.2624 26.9167 27.6717 24.1346 27.709 23.4356ZM31.2914 21.2221C30.9081 18.9386 30.7544 16.661 31.0305 14.3123C31.2786 14.3892 31.4965 14.4603 31.7213 14.5278C31.8844 14.5779 31.9147 14.6618 31.8891 14.8424C31.7563 15.7744 31.5955 16.7134 31.5489 17.6548C31.4907 18.8198 31.5349 19.9848 31.5349 21.1638L31.2914 21.2221ZM34.4021 32.1325C34.317 31.9846 34.2622 31.9077 34.2261 31.8238C33.8428 30.9034 33.4188 29.997 33.0926 29.0569C32.7885 28.1761 32.5881 27.2592 32.3458 26.3575C32.3143 26.241 32.2654 26.0872 32.4879 26.0639C32.5042 26.1059 32.5205 26.1478 32.5357 26.1909C32.778 26.8631 32.9912 27.5482 33.2708 28.2041C33.7007 29.1943 34.2631 30.1216 34.9426 30.9605C34.9939 31.0258 35.037 31.1632 35.0032 31.2192C34.8285 31.5151 34.6281 31.7958 34.4021 32.1325ZM35.9877 23.382L33.1357 23.6605C33.1257 23.5468 33.1062 23.4342 33.0774 23.3238C33.0641 23.2961 33.0566 23.2661 33.0553 23.2354C33.054 23.2048 33.059 23.1742 33.0699 23.1456C33.0808 23.1169 33.0974 23.0907 33.1187 23.0687C33.14 23.0467 33.1656 23.0292 33.1939 23.0174C33.9861 22.5257 34.8506 22.1937 35.7477 21.8454C35.835 22.3696 35.9084 22.8717 35.9877 23.382ZM30.54 23.0745C30.448 23.0736 30.3561 23.0666 30.265 23.0535C29.5276 22.8916 28.789 22.7343 28.0515 22.5572C27.5936 22.4477 27.596 22.4337 27.5925 21.9572C27.5925 21.6648 27.5925 21.3747 27.5925 21.0357C28.5245 21.7918 29.5381 22.2916 30.5738 22.7413C30.5645 22.8589 30.554 22.9521 30.54 23.0745ZM29.4437 29.7605C29.2888 29.4215 29.1618 29.1221 29.0161 28.8285C28.9796 28.7565 28.9599 28.6772 28.9585 28.5965C28.9571 28.5157 28.974 28.4357 29.008 28.3625C29.3843 27.3932 29.947 26.5299 30.5377 25.683C30.6646 25.5012 30.7975 25.323 30.9245 25.147C31.1493 25.3556 31.1004 25.528 30.9617 25.7424C30.4093 26.5964 29.9949 27.5321 29.7338 28.5151C29.6301 28.9112 29.5439 29.3062 29.4437 29.7605ZM32.4728 24.9839C32.3924 25.2169 32.3132 25.4499 32.0382 25.4872C31.7633 25.5245 31.6083 25.3707 31.4732 25.1727C31.013 24.4981 30.8755 23.7385 30.9443 22.9451C30.9741 22.6414 31.0582 22.3455 31.1924 22.0714C31.3439 21.7615 31.6444 21.7219 31.9031 21.9549C32.2398 22.252 32.3831 22.6539 32.4751 23.0814C32.3912 22.9766 32.3283 22.8589 32.2479 22.7564C31.9916 22.4302 31.691 22.4605 31.5594 22.8519C31.4366 23.1949 31.3994 23.5627 31.4512 23.9233C31.503 24.284 31.6421 24.6265 31.8565 24.921C32.0499 25.2018 32.2141 25.1971 32.4763 24.9898L32.4728 24.9839Z" fill="white"/>
<path d="M15.5904 6.17236C16.0016 6.69429 16.4059 7.22088 16.8265 7.72767C16.8636 7.75798 16.9065 7.78034 16.9526 7.79337C16.9987 7.80639 17.047 7.80981 17.0944 7.80339C17.7771 7.74747 18.4598 7.6799 19.1425 7.61699L22.7215 7.28612C22.8065 7.27797 22.8916 7.26399 23.0128 7.24884C22.6062 6.20032 22.0807 5.28577 20.9973 4.83374C19.9138 4.38171 18.8886 4.56462 17.8715 5.04811C18.2457 4.69812 18.7115 4.4614 19.2148 4.3654C20.6466 4.09978 21.8338 4.54132 22.7285 5.68887C23.0384 6.11551 23.3183 6.56319 23.5661 7.02865C23.5875 7.08577 23.6291 7.13309 23.6829 7.16164C23.7368 7.19019 23.7993 7.19801 23.8586 7.1836C24.137 7.14515 24.4189 7.12535 24.7533 7.09156C24.5541 6.76419 24.3805 6.45895 24.1883 6.16653C23.7615 5.51113 23.2347 4.92658 22.6271 4.43414C21.5728 3.58251 20.3984 3.32969 19.1029 3.74444C17.7509 4.17939 16.5513 4.99141 15.6451 6.08498C15.6265 6.10828 15.6125 6.13741 15.5904 6.17236Z" fill="white"/>
<path d="M6.50201 15.5718C6.57191 17.5104 6.95054 19.3674 7.79286 21.1092C8.00558 21.5478 8.27593 21.956 8.59673 22.3231C9.10351 22.8975 9.6301 22.7891 9.86078 22.0528C9.99904 21.6098 10.0732 21.1492 10.081 20.6851C10.1301 18.5012 9.62163 16.3408 8.60372 14.4079C8.41607 14.0709 8.18062 13.7629 7.9047 13.4934C7.48529 13.0705 7.0554 13.166 6.80025 13.7089C6.52065 14.3042 6.5288 14.9473 6.50201 15.5718ZM7.9245 18.2513C7.97647 18.3286 8.00643 18.4185 8.01115 18.5115C8.01587 18.6045 7.99518 18.697 7.9513 18.7791C7.85193 19.0185 7.76559 19.2632 7.69267 19.5119C7.65538 19.6226 7.62859 19.7379 7.59713 19.8498H7.5249L7.00181 17.9286H7.87441C7.89305 18.03 7.91402 18.1442 7.93383 18.2583L7.9245 18.2513ZM7.87324 17.3636L7.77189 17.3939C7.21267 16.95 6.62783 16.5259 6.76064 15.6627C6.79094 15.4693 6.74899 15.2666 6.77695 15.0732C6.81996 14.7473 6.88299 14.4243 6.96569 14.1062C7.02078 13.9791 7.09503 13.8612 7.18588 13.7567C7.38626 14.712 7.58665 15.6405 7.76839 16.5714C7.82548 16.8335 7.84062 17.1015 7.87441 17.3683L7.87324 17.3636ZM8.20644 18.9737C8.43945 19.0902 8.53381 19.2218 8.55595 19.4315C8.5883 19.6332 8.6382 19.8316 8.70507 20.0245C8.91711 20.7061 9.1338 21.3853 9.36681 22.1216C9.22584 22.1286 9.07206 22.1845 8.96837 22.1344C8.76321 22.0411 8.58266 21.9012 8.44108 21.7258C8.29951 21.5505 8.20081 21.3445 8.15285 21.1243C8.09825 20.8294 8.08141 20.5287 8.10275 20.2296C8.12256 19.8241 8.17149 19.4094 8.20644 18.9783V18.9737ZM7.90586 14.0887L7.98975 14.0642C8.02306 14.0939 8.05385 14.1262 8.08178 14.1609C8.62236 14.9124 8.92643 15.771 9.18739 16.6471C9.19317 16.6759 9.19262 16.7056 9.18578 16.7342C9.17894 16.7627 9.16597 16.7895 9.14778 16.8125C8.9474 17.0455 8.73769 17.2611 8.54546 17.4673C8.42896 17.289 8.29265 17.0956 8.16799 16.8976C8.13523 16.8443 8.11566 16.784 8.11091 16.7217C8.03984 15.8479 7.97343 14.9706 7.90586 14.0934V14.0887ZM8.72138 18.1826C8.93342 18.1826 9.13613 18.1884 9.33885 18.1826C9.50312 18.1768 9.57185 18.242 9.59865 18.4075C9.73442 19.2084 9.78674 20.0213 9.75476 20.833C9.74274 20.905 9.7264 20.9762 9.70583 21.0462C9.48797 20.6897 9.28409 20.3997 9.12332 20.0863C8.93936 19.7483 8.79398 19.3907 8.68993 19.0203C8.62818 18.7663 8.70624 18.4774 8.72255 18.1931L8.72138 18.1826ZM8.3346 18.5682C8.06314 18.4179 7.93266 17.6572 8.13887 17.4312C8.39517 17.6618 8.50236 18.2851 8.34042 18.5729L8.3346 18.5682Z" fill="white"/>
<path d="M30.3443 14.4078C29.7851 14.5628 29.3843 14.9193 29.0523 15.362C28.4196 16.2066 28.1016 17.1876 27.8965 18.2035C27.78 18.7965 27.7206 19.4023 27.6472 20.0035C27.6432 20.0484 27.6481 20.0937 27.6617 20.1367C27.6753 20.1797 27.6973 20.2195 27.7265 20.2539C28.5482 21.129 29.5101 21.861 30.5726 22.4197C30.5854 22.4267 30.6029 22.4267 30.5843 22.4197C30.7194 22.1203 30.858 21.8302 30.9804 21.5343C31.0059 21.4544 31.0099 21.3692 30.992 21.2873C30.7986 20.0757 30.5458 18.8699 30.4223 17.6513C30.3186 16.6284 30.3641 15.5903 30.3443 14.5593C30.3431 14.5162 30.3443 14.4649 30.3443 14.4078ZM30.4212 21.9106C30.053 21.5797 29.6942 21.2629 29.3458 20.9366C29.3215 20.9078 29.3033 20.8744 29.2923 20.8384C29.2813 20.8023 29.2777 20.7644 29.2818 20.7269C29.3598 20.191 29.4355 19.6539 29.5404 19.1227C29.6142 18.8283 29.7028 18.5378 29.806 18.2524C30.046 19.1402 30.2417 19.972 30.505 20.784C30.5733 20.9667 30.6012 21.162 30.5867 21.3565C30.5722 21.551 30.5157 21.74 30.4212 21.9106Z" fill="#2169CF"/>
<path d="M33.703 32.5998C32.9889 30.4957 32.312 28.4057 32.0871 26.2725L31.2716 25.7552C31.1178 26.0943 30.9326 26.4613 30.7823 26.8411C30.3158 28.0141 30.0606 29.2605 30.0285 30.5225C30.028 30.6609 30.0685 30.7963 30.145 30.9117C30.5703 31.5338 31.0619 32.0965 31.7271 32.4763C32.3586 32.8363 33.0098 32.9295 33.703 32.5998ZM31.373 26.4251H31.4615C31.5081 26.4779 31.5604 26.5252 31.6176 26.5661C31.8506 26.6966 31.9066 26.897 31.924 27.1486C31.9602 27.6496 32.0336 28.147 32.093 28.6457C32.1431 29.0651 32.1967 29.4845 32.2514 29.9272C32.2082 29.9106 32.1662 29.8911 32.1256 29.869C31.599 29.5194 31.2355 29.0325 30.9151 28.5047C30.8898 28.4653 30.8787 28.4185 30.8837 28.3719C31.0452 27.7265 31.2087 27.0787 31.3741 26.4286L31.373 26.4251Z" fill="#2169CF"/>
<path d="M32.4949 15.0662C32.326 16.2312 32.1337 17.3345 32.0114 18.4506C31.917 19.3185 31.9066 20.1981 31.8716 21.0684C31.8745 21.1228 31.8883 21.1761 31.9121 21.2251C31.9359 21.2741 31.9693 21.3179 32.0103 21.3538C32.3598 21.6474 32.5566 21.92 32.9108 22.6948L35.5659 21.0952C35.3865 19.2812 33.6739 15.8374 32.4949 15.0662ZM35.0824 20.5231L33.5959 21.5996C33.223 21.228 32.8677 20.8528 32.4891 20.5057C32.3796 20.4055 32.3306 20.3356 32.3656 20.1934C32.5625 19.3849 32.7524 18.5741 32.9481 17.7655C32.9912 17.5884 33.0506 17.416 33.1124 17.2028C34.1131 18.1558 34.6537 19.3138 35.0824 20.5231Z" fill="#2169CF"/>
<path d="M35.369 30.4434C35.6751 29.6394 35.8813 28.8009 35.983 27.9467C36.1351 26.8052 36.1664 25.6509 36.0762 24.5029C36.0762 24.4341 35.9946 24.3176 35.9422 24.313C35.0253 24.2303 34.1073 24.1615 33.1729 24.0881C33.1607 24.3163 33.1318 24.5433 33.0867 24.7673C33.004 25.0761 32.8747 25.372 32.778 25.6761C32.7402 25.7743 32.7297 25.881 32.7477 25.9848C33.1466 27.4173 33.8634 28.7413 34.8448 29.8585C35.0032 30.0484 35.1768 30.229 35.369 30.4434ZM35.0883 28.6585C34.2914 28.076 33.7368 27.3444 33.2964 26.4986C33.7473 25.9685 33.9955 25.344 34.1259 24.6345C34.6793 24.751 35.2164 24.8594 35.75 24.984C35.8001 24.9957 35.8572 25.1297 35.8525 25.2031C35.8245 25.6423 35.7989 26.0838 35.736 26.5195C35.6352 27.2621 35.4173 27.9841 35.0906 28.6585H35.0883Z" fill="#2169CF"/>
<path d="M27.709 23.4357C27.6717 24.1417 28.267 26.9203 28.669 27.8931C28.8845 27.5319 29.0721 27.1568 29.3167 26.8236C29.7618 26.2131 30.2359 25.6248 30.7078 25.0353C30.7504 24.9929 30.7803 24.9395 30.7941 24.881C30.8079 24.8225 30.805 24.7613 30.7858 24.7044C30.6798 24.3024 30.5994 23.8947 30.5132 23.5079L27.709 23.4357ZM29.7047 25.3358L29.4274 23.9133L30.3489 23.8609C30.4095 24.1265 30.4654 24.377 30.5214 24.6298C30.5224 24.6517 30.5185 24.6735 30.5101 24.6936C30.5016 24.7138 30.4887 24.7318 30.4724 24.7463C30.2359 24.9362 29.9901 25.118 29.7047 25.3323V25.3358Z" fill="#2169CF"/>
<path d="M31.2914 21.2221L31.5349 21.1639C31.5349 19.9837 31.4906 18.8175 31.5489 17.6548C31.5955 16.7135 31.7563 15.778 31.8891 14.8425C31.9147 14.6619 31.8891 14.578 31.7213 14.5279C31.4988 14.4603 31.2786 14.3893 31.0305 14.3124C30.7579 16.6634 30.9116 18.941 31.2914 21.2221Z" fill="#2169CF"/>
<path d="M34.4021 32.1326C34.6281 31.7959 34.8284 31.5151 35.0032 31.2192C35.037 31.1633 34.9939 31.0258 34.9426 30.9606C34.2635 30.1216 33.7015 29.1943 33.272 28.2041C32.9924 27.5482 32.7792 26.8632 32.5368 26.191C32.5217 26.1478 32.5054 26.1059 32.4891 26.064C32.2666 26.0873 32.3155 26.2364 32.3469 26.3576C32.5893 27.2593 32.7897 28.1762 33.0937 29.0569C33.4199 29.9971 33.844 30.9035 34.2273 31.8239C34.2623 31.9077 34.3205 31.9846 34.4021 32.1326Z" fill="#2169CF"/>
<path d="M35.9877 23.3821C35.9084 22.8718 35.8315 22.3697 35.7546 21.8455C34.8576 22.195 33.9931 22.5258 33.2009 23.0175C33.1726 23.0293 33.147 23.0468 33.1257 23.0688C33.1044 23.0908 33.0878 23.117 33.0769 23.1457C33.066 23.1743 33.061 23.2049 33.0623 23.2355C33.0636 23.2662 33.0711 23.2962 33.0844 23.3239C33.1132 23.4343 33.1327 23.5469 33.1427 23.6606L35.9877 23.3821Z" fill="#2169CF"/>
<path d="M30.54 23.0746C30.554 22.9581 30.5645 22.859 30.5773 22.7414C29.5416 22.2917 28.528 21.7919 27.596 21.0358C27.596 21.3725 27.596 21.6649 27.596 21.9573C27.596 22.4338 27.596 22.4478 28.055 22.5573C28.7878 22.7344 29.5264 22.8917 30.2685 23.0536C30.3585 23.0666 30.4491 23.0736 30.54 23.0746Z" fill="#2169CF"/>
<path d="M29.4437 29.7605C29.5486 29.3062 29.6301 28.9089 29.7338 28.5163C29.9949 27.5332 30.4093 26.5975 30.9617 25.7435C31.1004 25.5292 31.1493 25.3567 30.9244 25.1482C30.7975 25.3241 30.6646 25.4977 30.5377 25.6841C29.947 26.5311 29.3843 27.3944 29.008 28.3637C28.974 28.4369 28.9571 28.5169 28.9585 28.5976C28.9599 28.6783 28.9796 28.7577 29.0161 28.8297C29.1618 29.1221 29.2888 29.4215 29.4437 29.7605Z" fill="#2169CF"/>
<path d="M32.4763 24.9898C32.2141 25.1972 32.0499 25.2019 31.86 24.9281C31.6456 24.6335 31.5065 24.291 31.4547 23.9304C31.4029 23.5698 31.4401 23.202 31.5629 22.859C31.6945 22.4675 31.9951 22.4373 32.2514 22.7635C32.3318 22.866 32.3947 22.9836 32.4786 23.0885C32.3866 22.6633 32.2456 22.259 31.9066 21.9619C31.6479 21.7289 31.3474 21.7674 31.1959 22.0784C31.0617 22.3525 30.9776 22.6485 30.9477 22.9522C30.879 23.7456 31.0165 24.5052 31.4767 25.1797C31.6118 25.3766 31.7819 25.5292 32.0417 25.4943C32.3015 25.4593 32.3959 25.217 32.4763 24.9898Z" fill="#2169CF"/>
<path d="M7.87441 17.3682C7.84179 17.1014 7.82664 16.8334 7.77422 16.5713C7.58781 15.6393 7.38743 14.7073 7.19171 13.7566C7.10086 13.8611 7.0266 13.979 6.97151 14.1061C6.88882 14.4242 6.82579 14.7472 6.78278 15.0731C6.75482 15.2665 6.79676 15.4692 6.76647 15.6626C6.63365 16.5259 7.2185 16.9499 7.77771 17.3938L7.87441 17.3682ZM7.34316 15.6206C7.44917 16.1321 7.75791 16.5911 7.76606 17.1666C7.10549 16.76 7.34316 16.1589 7.34199 15.6206H7.34316Z" fill="#2169CF"/>
<path d="M8.20645 18.9783C8.1715 19.4093 8.12256 19.8218 8.10858 20.2342C8.08724 20.5333 8.10408 20.834 8.15868 21.1289C8.20664 21.3491 8.30533 21.5551 8.44691 21.7305C8.58849 21.9058 8.76904 22.0457 8.9742 22.139C9.07789 22.1891 9.23167 22.1332 9.37263 22.1262C9.13963 21.3899 8.92294 20.7107 8.7109 20.0291C8.64403 19.8362 8.59413 19.6378 8.56178 19.4361C8.53382 19.2264 8.43596 19.0924 8.20645 18.9783ZM8.75867 20.805C8.27402 20.438 8.13188 19.8963 8.35906 19.2404C8.6212 19.7635 8.61537 20.3041 8.75867 20.805Z" fill="#2169CF"/>
<path d="M7.90586 14.0933C7.97344 14.9706 8.03984 15.8478 8.11091 16.7263C8.11566 16.7886 8.13523 16.8489 8.16799 16.9022C8.29265 17.1002 8.42547 17.2936 8.54547 17.4719C8.73769 17.2657 8.9474 17.0455 9.14778 16.8171C9.16598 16.7941 9.17894 16.7673 9.18578 16.7388C9.19262 16.7102 9.19317 16.6805 9.18739 16.6517C8.92643 15.7756 8.62236 14.917 8.08178 14.1655C8.05385 14.1308 8.02306 14.0985 7.98975 14.0688L7.90586 14.0933ZM8.20062 15.0253C8.27867 15.0428 8.30081 15.0416 8.30547 15.051C8.53848 15.5018 8.77847 15.9527 9.01148 16.4059C9.01953 16.4226 9.02371 16.4409 9.02371 16.4595C9.02371 16.478 9.01953 16.4964 9.01148 16.5131C8.89497 16.675 8.77264 16.8323 8.65265 16.9896C8.53614 16.8439 8.43828 16.7146 8.33925 16.583C8.28916 16.5166 8.20877 16.4443 8.20761 16.3733C8.19479 15.9329 8.20062 15.4878 8.20062 15.0288V15.0253Z" fill="#2169CF"/>
<path d="M8.72254 18.193C8.70623 18.4831 8.62818 18.7756 8.69109 19.026C8.79572 19.3974 8.94188 19.7558 9.12681 20.0944C9.28525 20.4078 9.48913 20.6979 9.70932 21.0544C9.72989 20.9843 9.74623 20.9131 9.75825 20.8412C9.79023 20.0294 9.73791 19.2165 9.60214 18.4156C9.57534 18.2501 9.50661 18.1826 9.34234 18.1907C9.13729 18.193 8.93458 18.193 8.72254 18.193ZM9.03943 18.4074C9.56486 18.4936 9.57767 18.4925 9.59515 19.0214C9.60796 19.4058 9.58466 19.7915 9.57767 20.1771L9.46117 20.2074C9.2736 19.9115 9.08603 19.6167 8.90196 19.3196C8.88569 19.2851 8.88158 19.2461 8.89031 19.209C8.93924 18.9468 8.98934 18.6859 9.03943 18.4074Z" fill="#2169CF"/>
<path d="M7.92917 18.2618C7.90936 18.1453 7.88839 18.0288 7.86975 17.9321H7.00064L7.52491 19.8533H7.5983C7.62976 19.7368 7.65655 19.6261 7.69384 19.5154C7.76676 19.2666 7.8531 19.022 7.95247 18.7826C7.99633 18.7003 8.017 18.6076 8.01228 18.5144C8.00756 18.4213 7.97763 18.3311 7.92567 18.2537C7.94479 18.3461 7.93632 18.4421 7.90131 18.5297C7.86631 18.6173 7.80631 18.6927 7.72878 18.7465L7.575 18.1698C7.77072 18.0218 7.84762 18.1477 7.92917 18.2618Z" fill="#2169CF"/>
<path d="M8.34042 18.5729C8.50702 18.2851 8.39984 17.6618 8.14469 17.4358C7.93383 17.6618 8.06431 18.4261 8.34042 18.5729Z" fill="#2169CF"/>
<path d="M30.4212 21.9106C30.5154 21.7399 30.5714 21.5508 30.5855 21.3563C30.5996 21.1618 30.5713 20.9666 30.5027 20.784C30.2417 19.9685 30.046 19.1402 29.8037 18.2524C29.7024 18.5387 29.6157 18.83 29.5439 19.125C29.439 19.6563 29.3633 20.1934 29.2853 20.7293C29.2812 20.7668 29.2848 20.8047 29.2958 20.8407C29.3068 20.8768 29.325 20.9102 29.3493 20.939C29.6942 21.2629 30.053 21.5798 30.4212 21.9106Z" fill="white"/>
<path d="M31.3741 26.4286C31.2103 27.0795 31.0472 27.7307 30.8848 28.3823C30.8799 28.4289 30.8909 28.4758 30.9163 28.5152C31.2367 29.0429 31.6002 29.5334 32.1268 29.8794C32.1674 29.9015 32.2094 29.921 32.2526 29.9376C32.1978 29.4926 32.1442 29.0732 32.0941 28.6561C32.0347 28.1575 31.9613 27.66 31.9252 27.1591C31.9077 26.9051 31.8518 26.7047 31.6188 26.5765C31.5616 26.5356 31.5092 26.4883 31.4627 26.4356L31.3741 26.4286ZM31.8402 28.5047L31.6409 28.712C31.5978 28.6375 31.5244 28.5641 31.5244 28.4907C31.5244 28.4173 31.6013 28.3439 31.6409 28.2705L31.8402 28.5047Z" fill="white"/>
<path d="M35.0824 20.5231C34.6537 19.3115 34.1131 18.1534 33.1124 17.2028C33.0506 17.4148 32.9959 17.5884 32.9481 17.7655C32.7524 18.574 32.5625 19.3849 32.3656 20.1934C32.3306 20.3355 32.3796 20.4054 32.4891 20.5056C32.8677 20.8551 33.223 21.2279 33.5959 21.5996L35.0824 20.5231ZM34.5873 20.1538L34.4055 20.3681C34.3234 20.2771 34.2529 20.1761 34.1958 20.0676C34.1784 20.0233 34.2692 19.9371 34.3123 19.8695L34.5873 20.1538Z" fill="white"/>
<path d="M35.0906 28.6585C35.4179 27.9849 35.6365 27.2638 35.7383 26.5219C35.8013 26.0861 35.8269 25.6446 35.8548 25.2054C35.8548 25.132 35.8024 24.998 35.7523 24.9863C35.2187 24.8582 34.6817 24.7533 34.1283 24.6368C33.9943 25.3475 33.7496 25.972 33.2988 26.5009C33.738 27.3444 34.2937 28.0795 35.0906 28.6585ZM35.0685 25.8147C35.0685 25.5083 35.185 25.3219 35.3096 25.358C35.517 25.4174 35.496 25.6096 35.4576 25.7506C35.4284 25.859 35.3084 25.9417 35.2246 26.0349L35.0685 25.8147ZM34.6118 27.7882C34.5978 27.5133 34.7283 27.2815 34.8646 27.3106C34.9053 27.3287 34.9408 27.3568 34.9678 27.3922C34.9949 27.4276 35.0127 27.4692 35.0195 27.5133C35.0195 27.688 34.9683 27.8628 34.7702 27.9129C34.7224 27.9245 34.6432 27.8139 34.6118 27.7882ZM34.0537 26.2888C34.1702 26.1723 34.2506 26.0861 34.3345 25.9999C34.3753 26.0628 34.4638 26.1456 34.451 26.1852C34.3936 26.2923 34.3245 26.3928 34.2448 26.4846L34.0537 26.2888Z" fill="white"/>
<path d="M29.7047 25.3323C29.9901 25.1179 30.2359 24.9362 30.4771 24.7498C30.4934 24.7353 30.5063 24.7172 30.5147 24.6971C30.5232 24.6769 30.527 24.6551 30.526 24.6333C30.4748 24.3805 30.4095 24.13 30.3536 23.8644L29.4321 23.9168L29.7047 25.3323Z" fill="white"/>
<path d="M7.34199 15.6207C7.34199 16.159 7.10898 16.7601 7.76489 17.1667C7.7579 16.5912 7.448 16.1322 7.34199 15.6207Z" fill="white"/>
<path d="M8.75866 20.805C8.61536 20.304 8.62119 19.7635 8.35906 19.2404C8.13188 19.8963 8.27401 20.438 8.75866 20.805Z" fill="white"/>
<path d="M8.20061 15.0288C8.20061 15.4878 8.19479 15.9329 8.2076 16.3767C8.2076 16.4478 8.28916 16.52 8.33925 16.5864C8.43828 16.7181 8.5408 16.8474 8.65264 16.993C8.76915 16.8358 8.89497 16.6785 9.01147 16.5165C9.01953 16.4998 9.02371 16.4815 9.02371 16.463C9.02371 16.4444 9.01953 16.4261 9.01147 16.4094C8.77847 15.9562 8.54546 15.5053 8.30547 15.0544C8.30081 15.0474 8.27867 15.0474 8.20061 15.0288Z" fill="white"/>
<path d="M9.03944 18.4075C8.98701 18.6859 8.93691 18.9469 8.89031 19.209C8.88158 19.2462 8.88569 19.2852 8.90196 19.3197C9.08604 19.6168 9.27361 19.9115 9.46118 20.2074L9.57768 20.1771C9.58467 19.7915 9.60797 19.4059 9.59515 19.0214C9.58001 18.4925 9.56719 18.4937 9.03944 18.4075Z" fill="white"/>
<path d="M7.92917 18.2618C7.84762 18.1453 7.77073 18.0218 7.57384 18.1709L7.72762 18.7476C7.80514 18.6938 7.86514 18.6184 7.90015 18.5308C7.93515 18.4432 7.94362 18.3472 7.92451 18.2548L7.92917 18.2618Z" fill="white"/>
<path d="M31.8448 28.5047L31.6468 28.2717C31.6037 28.3451 31.5303 28.4174 31.5303 28.4919C31.5303 28.5665 31.606 28.6387 31.6468 28.7133L31.8448 28.5047Z" fill="#2169CF"/>
<path d="M34.5873 20.1561L34.3112 19.8718C34.2692 19.9394 34.1784 20.0256 34.1947 20.0699C34.2518 20.1784 34.3222 20.2794 34.4044 20.3705L34.5873 20.1561Z" fill="#2169CF"/>
<path d="M35.0684 25.8147L35.2292 26.0348C35.3084 25.9416 35.4284 25.8589 35.4622 25.7506C35.5007 25.6096 35.5216 25.4174 35.3143 25.358C35.1849 25.3219 35.0696 25.5083 35.0684 25.8147Z" fill="#2169CF"/>
<path d="M34.6118 27.7882C34.6432 27.8138 34.7224 27.9245 34.7737 27.9128C34.9717 27.8674 35.0277 27.688 35.023 27.5132C35.0158 27.4688 34.9975 27.427 34.9698 27.3915C34.9421 27.3561 34.9059 27.3282 34.8646 27.3105C34.7318 27.2802 34.5978 27.5132 34.6118 27.7882Z" fill="#2169CF"/>
<path d="M34.0537 26.2888L34.2413 26.4845C34.321 26.3927 34.3901 26.2923 34.4475 26.1851C34.4638 26.1455 34.3753 26.0628 34.331 25.9999C34.2506 26.0861 34.1667 26.1711 34.0537 26.2888Z" fill="#2169CF"/>
</g>
<defs>
<clipPath id="clip0_1_1693">
<rect width="60" height="36.1939" fill="white" transform="matrix(-1 0 0 1 60 0)"/>
</clipPath>
</defs>
</svg>
