<svg width="34" height="32" viewBox="0 0 34 32" fill="none" xmlns="http://www.w3.org/2000/svg">
<path d="M0.704172 20.5968C0.242029 20.2068 0.0354454 19.75 0.060378 19.1899C0.0719538 18.9352 0.193945 18.7348 0.444161 18.7215C1.12803 18.685 1.81812 18.6111 2.5287 18.8613C2.7522 18.4196 2.97927 17.9673 3.209 17.5158C3.36572 17.2095 3.50997 16.8961 3.68806 16.604C4.10123 15.9282 4.71297 15.564 5.50725 15.5604C7.57309 15.5506 9.63893 15.5488 11.7048 15.5613C12.5783 15.5666 13.1838 16.0395 13.589 16.7812C13.6869 16.9611 13.7884 17.027 13.9959 17.0261C15.9949 17.0172 17.9949 17.0172 19.994 17.0252C20.2068 17.0252 20.3181 16.97 20.4267 16.7705C20.8577 15.9762 21.522 15.5506 22.4498 15.5542C24.4159 15.5622 26.382 15.564 28.3481 15.5542C29.3143 15.5488 30.0035 15.9745 30.4398 16.8231C30.7844 17.4927 31.121 18.1676 31.4237 18.7669C32.1174 18.7437 32.7639 18.7117 33.4103 18.7055C33.7772 18.7019 33.9526 18.9076 33.9482 19.2762C33.9419 19.8078 33.7398 20.2459 33.2883 20.5941C34.1147 21.351 34.0897 22.2877 33.8662 23.253C33.6071 24.3714 33.6819 25.504 33.6721 26.6349C33.6703 26.8237 33.6739 27.0124 33.6721 27.2012C33.6632 27.967 33.3391 28.2894 32.5733 28.292C32.1512 28.2938 31.7292 28.2867 31.3071 28.2938C30.8806 28.3009 30.5983 28.1015 30.4042 27.731C30.3597 27.6456 30.2403 27.544 30.1549 27.5432C29.0997 27.5316 28.0445 27.5369 26.9893 27.5387C26.959 27.5387 26.9288 27.5565 26.8647 27.577C26.8647 28.3357 26.8353 29.1005 26.8718 29.8619C26.9234 30.9438 26.5788 31.4478 25.3678 31.3578C25.0588 31.3347 24.7463 31.3543 24.4346 31.3543C23.6537 31.3543 23.4498 31.2154 23.1559 30.479C23.0526 30.479 22.9422 30.479 22.8327 30.479C19.3119 30.479 15.791 30.4816 12.2693 30.4736C12.0271 30.4736 11.9024 30.5226 11.8098 30.7692C11.6709 31.1406 11.3682 31.3454 10.9586 31.3498C10.4029 31.3552 9.84818 31.3587 9.29255 31.3525C8.63628 31.3463 8.25161 30.9625 8.24004 30.2831C8.22668 29.5057 8.23647 28.7275 8.23647 27.9501C8.23647 27.8299 8.23647 27.7088 8.23647 27.5565C8.10647 27.5476 8.0005 27.5343 7.89543 27.5343C6.58469 27.5325 5.27395 27.536 3.96321 27.5298C3.7682 27.5289 3.64621 27.5565 3.55895 27.7676C3.41559 28.113 3.12619 28.2902 2.74241 28.2902C2.26513 28.2902 1.78696 28.2965 1.30968 28.2902C0.703282 28.2813 0.337307 27.9171 0.331965 27.3116C0.324841 26.5343 0.364911 25.7542 0.319498 24.9796C0.278538 24.2743 0.176136 23.5709 0.0559257 22.8736C-0.0927791 22.0099 0.0327741 21.2397 0.704172 20.5959V20.5968ZM10.7965 22.1755H24.2726C24.2637 22.1185 24.2663 22.082 24.2521 22.0553C23.6697 20.9093 23.0989 19.7562 22.4952 18.6209C22.1791 18.0269 21.6591 17.7349 20.9681 17.7375C18.7473 17.7456 16.5257 17.7607 14.3049 17.7304C13.4732 17.7188 12.8793 18.0447 12.5097 18.7518C11.9247 19.8702 11.378 21.0082 10.7965 22.1764V22.1755ZM8.60156 25.0116C8.80903 26.2137 9.02185 27.479 9.24624 28.7426C9.38248 29.5093 9.72085 29.7853 10.4938 29.7853C15.1927 29.7853 19.8916 29.7853 24.5904 29.7853C25.3758 29.7853 25.7391 29.4647 25.8656 28.6874C26.0063 27.8228 26.1603 26.9608 26.3055 26.098C26.3678 25.7258 26.4221 25.3527 26.4782 24.9911C26.0009 25.2271 25.5673 25.4711 25.1096 25.6563C24.8968 25.7427 24.773 25.8237 24.6982 26.0552C24.4996 26.6705 23.9564 27.0552 23.3492 27.065C22.7383 27.0748 22.1711 26.6803 21.9351 26.0802C21.9004 25.9911 21.8666 25.9012 21.8309 25.8095C21.2655 25.8095 20.7214 25.8095 20.1774 25.8095C17.9664 25.8095 15.7563 25.8095 13.5453 25.8103C13.3984 25.8103 13.2586 25.7729 13.1802 25.992C12.9202 26.7097 12.3922 27.089 11.7466 27.0694C11.0904 27.049 10.589 26.642 10.3424 25.9368C10.3166 25.8638 10.2694 25.7729 10.207 25.7436C9.67188 25.4916 9.13048 25.2511 8.60156 25.0116ZM2.70145 20.1044C2.78604 20.1195 2.8181 20.1302 2.85015 20.1302C5.50458 20.132 8.15901 20.1355 10.8134 20.1222C10.9265 20.1222 11.0859 19.9939 11.1438 19.8835C11.6522 18.9192 12.0049 17.8506 13.0217 17.2496C12.6994 16.6058 12.2453 16.2656 11.5338 16.2701C9.55701 16.2834 7.58021 16.2799 5.60253 16.271C4.94271 16.2683 4.47878 16.5532 4.18582 17.1338C3.7406 18.0145 3.29627 18.896 2.85282 19.7776C2.80474 19.8737 2.762 19.9726 2.70056 20.1044H2.70145ZM10.3014 25.0152C10.3326 24.9502 10.354 24.9119 10.3709 24.8718C10.6523 24.1942 11.1295 23.8505 11.7813 23.8558C12.4332 23.8612 12.9282 24.2129 13.1758 24.8914C13.2435 25.0766 13.3432 25.09 13.4964 25.09C16.1944 25.0882 18.8925 25.0864 21.5905 25.0926C21.7891 25.0926 21.871 25.0294 21.944 24.8424C22.1613 24.2877 22.5495 23.919 23.172 23.8629C23.8843 23.7988 24.4213 24.1764 24.7899 25.0045C25.4301 24.8522 25.9056 24.4408 26.3455 23.9858C26.3981 23.9315 26.3758 23.7516 26.3277 23.6626C26.0276 23.1132 25.5379 22.8754 24.927 22.8745C23.0838 22.8719 21.2406 22.8745 19.3982 22.8745C16.3226 22.8745 13.247 22.8754 10.1714 22.8728C9.55434 22.8728 9.08062 23.1141 8.76184 23.651C8.66567 23.8131 8.65944 23.9368 8.80458 24.0873C9.22131 24.5201 9.69681 24.8469 10.3023 25.0152H10.3014ZM21.0892 17.0065C22.2833 17.1142 22.9556 17.8168 23.3937 18.8177C23.5451 19.1623 23.7481 19.4837 23.8977 19.8292C23.9974 20.0598 24.1372 20.1239 24.3803 20.1231C26.5574 20.1141 28.7346 20.1177 30.9117 20.1168C31.0257 20.1168 31.1397 20.1061 31.2982 20.0981C30.7523 19.026 30.2475 18.0029 29.7114 16.9958C29.4728 16.5479 29.0667 16.2817 28.5476 16.2799C26.4479 16.271 24.3491 16.2701 22.2495 16.2808C21.7499 16.2834 21.3813 16.5479 21.0892 17.0065ZM8.10914 26.2752C8.01386 26.2752 7.94797 26.2752 7.88207 26.2752C7.18218 26.2752 6.48229 26.2796 5.78329 26.2734C5.38526 26.2698 5.24991 26.0552 5.39951 25.683C5.46985 25.5085 5.55711 25.3402 5.61856 25.1621C5.9498 24.2013 6.6488 23.7819 7.63364 23.8122C7.93194 23.8211 8.05838 23.7142 8.06016 23.4141H4.8314C4.81359 23.4533 4.79845 23.4818 4.78688 23.5112C4.52509 24.1648 4.10747 24.4809 3.50196 24.4845C2.88755 24.488 2.46815 24.1666 2.19567 23.4961C2.16629 23.4239 2.10485 23.3429 2.03717 23.3109C1.62044 23.115 1.19837 22.9324 0.744242 22.7303C0.947264 23.8825 1.13337 25.0499 1.36667 26.2066C1.45126 26.6242 1.78607 26.8148 2.20903 26.8148C4.08609 26.8148 5.96316 26.8148 7.84022 26.8148C7.95509 26.8148 8.06996 26.8148 8.20709 26.8148C8.16969 26.61 8.14209 26.4586 8.10825 26.2752H8.10914ZM26.9065 26.8174C28.6162 26.8174 30.2706 26.8228 31.9233 26.813C32.2617 26.8112 32.5795 26.5218 32.6517 26.1362C32.8645 25 33.0515 23.8585 33.2456 22.7338C32.8494 22.9208 32.4647 23.0891 32.0951 23.2859C31.9678 23.3536 31.8316 23.4747 31.779 23.6047C31.4603 24.3972 30.5662 24.7774 29.8726 24.3331C29.5583 24.1319 29.3454 23.773 29.0311 23.4248H27.0276C27.0766 23.7356 27.2119 23.9262 27.4942 24.0953C27.7907 24.2725 28.0294 24.5771 28.2324 24.8683C28.3998 25.1087 28.4799 25.4105 28.593 25.6875C28.7542 26.0846 28.6242 26.2814 28.1959 26.2867C27.7996 26.2921 27.4034 26.2876 27.0018 26.2876C26.9679 26.4773 26.9412 26.6287 26.9074 26.8192L26.9065 26.8174ZM4.82428 22.6884C5.89549 22.6884 6.96046 22.6858 8.02544 22.6902C8.37895 22.6911 8.728 22.7223 9.02007 22.4427C9.11624 22.351 9.2783 22.3002 9.41543 22.286C9.73777 22.253 9.92031 22.066 10.0726 21.8033C10.2569 21.4863 10.4662 21.1845 10.6959 20.8256C7.70221 20.8256 4.80469 20.8212 1.90806 20.8301C1.43612 20.8318 1.09152 21.0919 0.872467 21.5024C0.832397 21.578 0.829725 21.7312 0.87959 21.7891C1.22241 22.1925 1.65339 22.4667 2.17252 22.6127C2.43609 21.9725 2.8555 21.578 3.56696 21.6154C4.24548 21.6511 4.61591 22.0705 4.82428 22.6884ZM24.415 20.8399C24.6225 21.2459 24.8095 21.5834 24.9671 21.9333C25.0553 22.1283 25.1755 22.1933 25.3838 22.2405C25.691 22.3091 25.9787 22.464 26.2743 22.5834C26.3544 22.6154 26.4319 22.6849 26.5111 22.6858C27.398 22.6929 28.284 22.6902 29.1638 22.6902C29.3481 22.0945 29.7105 21.7089 30.308 21.6243C31.0872 21.5139 31.5475 21.9538 31.8316 22.6234C32.3596 22.4792 32.7478 22.1711 33.0889 21.8007C33.1414 21.7437 33.1583 21.5914 33.1209 21.5211C32.8681 21.0482 32.4682 20.8336 31.9242 20.8354C29.5476 20.8443 27.171 20.839 24.7944 20.839H24.4177L24.415 20.8399ZM22.5228 25.4426C22.5157 25.9519 22.8469 26.3411 23.2948 26.3517C23.7579 26.3624 24.1194 25.9644 24.1167 25.4488C24.1141 24.9537 23.7561 24.5495 23.3207 24.5486C22.8808 24.5477 22.5299 24.9413 22.5228 25.4426ZM10.9835 25.4488C10.9817 25.9662 11.3058 26.3446 11.7564 26.3517C12.223 26.3589 12.5658 25.9715 12.5605 25.4426C12.5551 24.9333 12.2105 24.5441 11.768 24.5477C11.3254 24.5513 10.9853 24.9413 10.9835 25.4488ZM31.1495 23.0517C31.1495 22.6074 30.8637 22.2744 30.4897 22.2851C30.1255 22.2949 29.853 22.6163 29.8503 23.0384C29.8477 23.4792 30.1326 23.8095 30.5101 23.8015C30.8806 23.7944 31.1495 23.4792 31.1495 23.0517ZM4.13062 23.0553C4.13418 22.6225 3.83855 22.2708 3.47792 22.2788C3.1253 22.2868 2.83591 22.627 2.83591 23.0357C2.83591 23.4729 3.12619 23.8157 3.49127 23.8113C3.84834 23.8059 4.12616 23.4774 4.12973 23.0553H4.13062ZM6.24899 25.5851H7.97201C7.91947 25.2111 7.87317 24.8887 7.82865 24.5708C6.97916 24.4141 6.46181 24.7356 6.24899 25.5851ZM0.790546 19.4632C0.826164 19.8524 1.07104 20.1017 1.47708 20.1355C1.88758 20.1694 1.99176 20.0741 2.1654 19.4632H0.790546ZM33.2002 19.465H31.8147C32.0257 20.0919 32.1121 20.1676 32.5208 20.1284C32.9099 20.091 33.1361 19.8675 33.2002 19.465ZM11.1162 30.5965C11.1108 30.5627 11.1064 30.5288 11.101 30.495C10.3255 30.5048 9.5392 30.552 8.93369 29.8565C8.92835 29.9812 8.9239 30.0364 8.9239 30.0916C8.92034 30.6018 8.98445 30.6668 9.49646 30.6668C9.91853 30.6668 10.3406 30.6722 10.7627 30.6633C10.8811 30.6606 10.9986 30.6197 11.1162 30.5956V30.5965ZM23.9965 30.5092C23.9938 30.544 23.9912 30.5787 23.9894 30.6134C24.1034 30.6312 24.2174 30.6633 24.3313 30.6651C24.7409 30.6713 25.1505 30.6677 25.561 30.6677C26.138 30.6677 26.2422 30.536 26.1211 29.8904C25.5504 30.5965 24.7463 30.4549 23.9974 30.5092H23.9965ZM27.3446 24.7409C27.3117 24.7516 27.2778 24.7623 27.2449 24.773C27.203 25.0285 27.1612 25.2841 27.1149 25.561H27.7987C27.6278 25.252 27.4853 24.9965 27.3437 24.74L27.3446 24.7409ZM1.03898 27.0712C1.02651 27.5743 1.05056 27.6001 1.50112 27.6001C1.89826 27.6001 2.29629 27.6001 2.69343 27.6001C1.93477 27.4844 1.38329 27.3081 1.03898 27.0712ZM32.9437 27.0365C32.4771 27.5298 31.893 27.5725 31.2955 27.5752C31.7087 27.6001 32.1174 27.601 32.5261 27.5993C32.9384 27.5975 32.982 27.544 32.9437 27.0356V27.0365Z" fill="#2169CF"/>
<path d="M13.9068 2.19752C14.312 2.03368 14.6468 1.91347 14.9655 1.76031C15.0573 1.71668 15.149 1.584 15.1606 1.48249C15.1899 1.23049 15.1623 0.971371 15.1784 0.717593C15.206 0.281274 15.4695 0.0159201 15.9032 0.00879652C16.6253 -0.00277931 17.3475 -0.00277931 18.0696 0.00790607C18.5069 0.0141392 18.7749 0.27415 18.8078 0.704237C18.8328 1.0337 18.7277 1.44509 18.8889 1.67393C19.05 1.90278 19.4694 1.94997 19.7749 2.0782C19.8568 2.11204 19.936 2.15211 20.0901 2.22245C20.2815 2.00696 20.4765 1.76298 20.6983 1.5466C21.0331 1.21981 21.4293 1.20823 21.765 1.52968C22.2868 2.02833 22.797 2.54034 23.2966 3.06125C23.6065 3.38449 23.6341 3.82704 23.2806 4.09328C22.6759 4.5483 22.6083 5.01312 22.9769 5.65157C23.1176 5.89466 23.2084 6.03891 23.5032 6.00329C23.7106 5.97836 23.9252 5.99261 24.1354 6.00686C24.5022 6.03179 24.7845 6.27132 24.7952 6.63106C24.8175 7.41911 24.8166 8.20804 24.7961 8.99609C24.7872 9.33713 24.5503 9.57399 24.2075 9.61673C23.9226 9.65235 23.6296 9.62119 23.3447 9.65858C23.236 9.67283 23.1034 9.77612 23.0499 9.87585C22.919 10.1189 22.8451 10.3914 22.7169 10.6354C22.6261 10.809 22.6572 10.9141 22.7935 11.0361C22.9751 11.1991 23.1488 11.3727 23.3108 11.5552C23.5878 11.8669 23.6056 12.2462 23.3188 12.549C22.8077 13.0895 22.2806 13.6166 21.741 14.1286C21.4284 14.426 21.0446 14.4038 20.7214 14.1144C20.4828 13.9007 20.2762 13.5561 20.0073 13.4991C19.7562 13.4466 19.449 13.7262 19.1524 13.8054C18.8657 13.8811 18.7927 14.0351 18.8132 14.3058C18.831 14.5373 18.8221 14.7733 18.798 15.0039C18.7624 15.3396 18.5318 15.6005 18.1952 15.6103C17.3965 15.6335 16.5968 15.6344 15.7981 15.6103C15.4473 15.5997 15.2175 15.3334 15.1873 14.9755C15.165 14.7101 15.1641 14.4421 15.1748 14.1767C15.1819 13.9888 15.1196 13.8953 14.9308 13.8508C14.7599 13.8107 14.5978 13.7315 14.4348 13.6611C14.1077 13.5193 13.8154 13.5772 13.5577 13.8348C13.4634 13.9292 13.3725 14.0271 13.2728 14.1153C12.9451 14.4047 12.564 14.4234 12.2541 14.1277C11.7234 13.622 11.2043 13.1037 10.6985 12.573C10.3869 12.2462 10.3637 11.8072 10.7172 11.541C11.3201 11.0878 11.3895 10.6283 11.02 9.98716C10.8748 9.73605 10.7724 9.6194 10.4884 9.64345C10.2577 9.66215 10.0209 9.65146 9.79115 9.6194C9.43586 9.56954 9.199 9.33001 9.18921 8.97116C9.16962 8.20537 9.16784 7.43781 9.18565 6.67202C9.19455 6.282 9.44922 6.04871 9.83746 5.99884C9.8704 5.99439 9.90602 5.98103 9.93629 5.98905C10.8713 6.23748 11.0814 5.55985 11.2996 4.90893C11.3254 4.83146 11.2773 4.69879 11.2185 4.62933C11.0609 4.44412 10.8722 4.28473 10.7074 4.10486C10.3967 3.76738 10.3762 3.38894 10.6861 3.06214C11.1909 2.53055 11.7101 2.01141 12.2408 1.50653C12.5649 1.19844 12.9522 1.21624 13.2826 1.53324C13.507 1.74784 13.7082 1.98559 13.9068 2.1993V2.19752ZM22.8202 12.0174C22.562 11.7716 22.3206 11.525 22.0615 11.2997C21.8104 11.0815 21.7882 10.8687 21.9431 10.5695C22.1461 10.1786 22.3162 9.76633 22.4524 9.34693C22.5477 9.05486 22.6929 8.92753 23.0001 8.94177C23.3714 8.95869 23.7436 8.94623 24.0998 8.94623V6.68271C23.7071 6.68271 23.342 6.67202 22.9769 6.68627C22.7009 6.69695 22.5566 6.58298 22.4631 6.32296C22.3028 5.87685 22.1239 5.43519 21.9182 5.00777C21.7971 4.75756 21.8078 4.56967 22.0126 4.38713C22.293 4.1378 22.5718 3.88492 22.8327 3.65073C22.2512 3.06749 21.7356 2.55014 21.1844 1.99717C20.9378 2.25718 20.6751 2.52698 20.4222 2.80569C20.2361 3.01139 20.0527 3.02207 19.8025 2.8983C19.3875 2.69261 18.9601 2.50205 18.5202 2.35869C18.2219 2.26163 18.1088 2.11025 18.1231 1.8075C18.14 1.44687 18.1275 1.08446 18.1275 0.709579H15.8587C15.8587 1.09247 15.8435 1.45667 15.8631 1.81819C15.88 2.12984 15.7411 2.26875 15.4553 2.36492C15.027 2.51007 14.6067 2.68726 14.2033 2.89029C13.9424 3.02118 13.751 3.01228 13.5551 2.79679C13.3049 2.52075 13.0422 2.25451 12.8187 2.01854C12.2577 2.58041 11.743 3.09598 11.2087 3.63203C11.4554 3.87245 11.7225 4.13781 11.995 4.39782C12.1811 4.57591 12.2025 4.7531 12.0841 4.99174C11.8837 5.3969 11.686 5.81096 11.5551 6.24193C11.4509 6.58565 11.2764 6.70764 10.9345 6.68805C10.5854 6.66757 10.2355 6.6836 9.89266 6.6836V8.94712C10.2845 8.94712 10.6504 8.9578 11.0155 8.94355C11.2924 8.93287 11.4358 9.04774 11.5293 9.30775C11.6896 9.75386 11.8686 10.1964 12.0752 10.6229C12.1963 10.8732 12.1882 11.0584 11.9861 11.2445C11.7101 11.4983 11.4403 11.7592 11.1713 12.0138C11.7208 12.5775 12.231 13.1011 12.7661 13.6505C13.0404 13.3682 13.3013 13.1109 13.5488 12.8428C13.7439 12.6318 13.9353 12.6104 14.198 12.7395C14.6129 12.9434 15.0439 13.1233 15.4811 13.2738C15.7572 13.3691 15.8783 13.5107 15.864 13.8045C15.8462 14.1767 15.8596 14.5498 15.8596 14.9265H18.1284C18.1284 14.5329 18.1409 14.1571 18.124 13.7831C18.1115 13.4982 18.2433 13.37 18.498 13.2783C18.9334 13.1206 19.3661 12.9479 19.782 12.744C20.0411 12.6167 20.2388 12.6193 20.4329 12.8357C20.6822 13.1144 20.936 13.3887 21.1746 13.6496C21.7517 13.077 22.2628 12.5712 22.8211 12.0174H22.8202Z" fill="#2169CF"/>
<path d="M10.7966 22.1756C11.378 21.0073 11.9247 19.8693 12.5098 18.7509C12.8802 18.0439 13.4732 17.718 14.3049 17.7295C16.5257 17.7607 18.7474 17.7456 20.9681 17.7367C21.6591 17.734 22.1792 18.0261 22.4953 18.62C23.099 19.7553 23.6689 20.9084 24.2521 22.0545C24.2664 22.0821 24.2637 22.1177 24.2726 22.1747H10.7966V22.1756Z" fill="white"/>
<path d="M8.60155 25.0117C9.13047 25.2503 9.67098 25.4908 10.207 25.7436C10.2694 25.773 10.3174 25.8638 10.3424 25.9369C10.589 26.6421 11.0904 27.049 11.7466 27.0695C12.3922 27.0891 12.9202 26.7107 13.1802 25.9921C13.2595 25.7739 13.3984 25.8113 13.5453 25.8104C15.7563 25.8086 17.9664 25.8095 20.1774 25.8095C20.7214 25.8095 21.2655 25.8095 21.8309 25.8095C21.8666 25.9012 21.8995 25.9912 21.9351 26.0802C22.1711 26.6795 22.7383 27.0749 23.3492 27.0651C23.9564 27.0553 24.4996 26.6706 24.6982 26.0553C24.773 25.8229 24.8967 25.7419 25.1096 25.6564C25.5673 25.4712 26.0009 25.2272 26.4782 24.9912C26.4221 25.3527 26.3687 25.7258 26.3054 26.098C26.1603 26.9618 26.0062 27.8237 25.8656 28.6875C25.7391 29.4657 25.3758 29.7854 24.5904 29.7854C19.8915 29.7854 15.1926 29.7854 10.4937 29.7854C9.72084 29.7854 9.38247 29.5093 9.24623 28.7427C9.02184 27.4791 8.80902 26.2138 8.60155 25.0117ZM17.5408 29.0793C18.6075 29.0793 19.6734 29.0819 20.7401 29.0784C21.1444 29.0775 21.2789 28.8718 21.1257 28.496C21.0046 28.1986 20.8666 27.9074 20.7473 27.6091C20.4579 26.8861 19.8969 26.4756 19.1534 26.4248C18.1472 26.3572 17.1329 26.3491 16.1258 26.3928C15.2327 26.432 14.5791 26.887 14.2737 27.7694C14.1909 28.0098 14.0769 28.2396 13.9825 28.4764C13.8231 28.8762 13.9523 29.0766 14.3752 29.0775C15.4304 29.0801 16.4856 29.0775 17.5416 29.0775L17.5408 29.0793Z" fill="white"/>
<path d="M2.70149 20.1045C2.76293 19.9727 2.80567 19.8738 2.85376 19.7777C3.2972 18.8961 3.74153 18.0146 4.18676 17.1339C4.47971 16.5533 4.94364 16.2684 5.60346 16.2711C7.58025 16.28 9.55794 16.2827 11.5347 16.2702C12.2462 16.2657 12.6994 16.6059 13.0227 17.2497C12.0058 17.8507 11.6532 18.9193 11.1447 19.8836C11.0868 19.994 10.9274 20.1223 10.8144 20.1223C8.15994 20.1347 5.50551 20.1312 2.85108 20.1303C2.81903 20.1303 2.78697 20.1196 2.70238 20.1045H2.70149Z" fill="white"/>
<path d="M10.3015 25.0152C9.69595 24.8469 9.22045 24.5201 8.80372 24.0874C8.65857 23.9369 8.66481 23.8131 8.76098 23.6511C9.08065 23.115 9.55437 22.8728 10.1706 22.8728C13.2462 22.8755 16.3218 22.8746 19.3974 22.8746C21.2406 22.8746 23.0838 22.8719 24.9262 22.8746C25.537 22.8746 26.0268 23.1141 26.3268 23.6626C26.3749 23.7508 26.3972 23.9315 26.3447 23.9859C25.9048 24.4409 25.4293 24.8523 24.789 25.0045C24.4204 24.1773 23.8835 23.7989 23.1711 23.863C22.5487 23.9191 22.1604 24.2877 21.9432 24.8425C21.8702 25.0286 21.7882 25.0927 21.5897 25.0927C18.8916 25.0865 16.1935 25.0882 13.4955 25.09C13.3423 25.09 13.2426 25.0767 13.1749 24.8914C12.9274 24.2129 12.4323 23.8612 11.7805 23.8559C11.1278 23.8505 10.6514 24.1942 10.37 24.8719C10.3531 24.9119 10.3326 24.9502 10.3006 25.0152H10.3015Z" fill="white"/>
<path d="M21.0892 17.0065C21.3813 16.548 21.75 16.2835 22.2495 16.2808C24.3492 16.2701 26.448 16.2701 28.5476 16.2799C29.0668 16.2826 29.4728 16.548 29.7115 16.9959C30.2475 18.003 30.7524 19.027 31.2982 20.0982C31.1397 20.1062 31.0258 20.116 30.9118 20.1169C28.7346 20.1178 26.5575 20.1133 24.3803 20.1231C24.1372 20.124 23.9974 20.0599 23.8977 19.8293C23.7481 19.4838 23.5442 19.1623 23.3937 18.8177C22.9556 17.8169 22.2833 17.1143 21.0892 17.0065Z" fill="white"/>
<path d="M8.10914 26.2752C8.14298 26.4587 8.17058 26.6091 8.20798 26.8148C8.07085 26.8148 7.95598 26.8148 7.84112 26.8148C5.96405 26.8148 4.08699 26.8148 2.20992 26.8148C1.78696 26.8148 1.45215 26.6243 1.36756 26.2067C1.13426 25.0491 0.948157 23.8826 0.745134 22.7303C1.19926 22.9325 1.62134 23.115 2.03807 23.3109C2.10574 23.343 2.16718 23.424 2.19656 23.4961C2.46904 24.1675 2.88844 24.489 3.50285 24.4845C4.10836 24.481 4.52509 24.1649 4.78777 23.5113C4.79935 23.4819 4.81448 23.4534 4.83229 23.4142H8.06106C8.05928 23.7143 7.93194 23.8211 7.63453 23.8122C6.6497 23.782 5.9507 24.2014 5.61945 25.1622C5.55801 25.3394 5.47074 25.5077 5.4004 25.6831C5.2508 26.0553 5.38704 26.2699 5.78418 26.2734C6.48407 26.2797 7.18397 26.2752 7.88297 26.2752C7.94886 26.2752 8.01475 26.2752 8.11003 26.2752H8.10914Z" fill="white"/>
<path d="M26.9065 26.8176C26.9403 26.627 26.967 26.4765 27.0009 26.286C27.4034 26.286 27.7996 26.2904 28.195 26.2851C28.6233 26.2797 28.7533 26.0829 28.5921 25.6858C28.4799 25.4089 28.3989 25.107 28.2315 24.8666C28.0293 24.5745 27.7898 24.2709 27.4933 24.0937C27.2119 23.9245 27.0757 23.7348 27.0267 23.4232H29.0302C29.3445 23.7722 29.5574 24.1311 29.8717 24.3314C30.5653 24.7758 31.4594 24.3955 31.7781 23.603C31.8298 23.4739 31.966 23.3528 32.0942 23.2843C32.4638 23.0875 32.8485 22.9201 33.2447 22.7322C33.0506 23.8568 32.8636 24.9984 32.6508 26.1346C32.5786 26.521 32.2608 26.8095 31.9224 26.8113C30.2688 26.822 28.6153 26.8158 26.9056 26.8158L26.9065 26.8176Z" fill="white"/>
<path d="M4.82425 22.6885C4.61588 22.0697 4.24546 21.6511 3.56693 21.6155C2.85547 21.5781 2.43517 21.9726 2.17249 22.6128C1.65336 22.4668 1.22327 22.1925 0.879561 21.7892C0.829696 21.7313 0.832367 21.5781 0.872437 21.5024C1.09149 21.0919 1.43609 20.8319 1.90803 20.8302C4.80555 20.8212 7.70307 20.8257 10.6959 20.8257C10.4652 21.1837 10.256 21.4864 10.0725 21.8034C9.92028 22.0661 9.73774 22.2522 9.4154 22.286C9.27738 22.3003 9.11532 22.351 9.02004 22.4428C8.72797 22.7215 8.37892 22.6912 8.02541 22.6903C6.96043 22.6867 5.89546 22.6885 4.82425 22.6885Z" fill="white"/>
<path d="M24.415 20.8399H24.7917C27.1683 20.8399 29.5449 20.8452 31.9215 20.8363C32.4664 20.8345 32.8653 21.0491 33.1182 21.522C33.1556 21.5923 33.1396 21.7437 33.0862 21.8016C32.7442 22.172 32.356 22.4801 31.8289 22.6243C31.5448 21.9547 31.0853 21.5148 30.3053 21.6253C29.7078 21.7098 29.3463 22.0954 29.1611 22.6911C28.2822 22.6911 27.3953 22.6938 26.5084 22.6867C26.4292 22.6867 26.3517 22.6172 26.2716 22.5843C25.976 22.4649 25.6883 22.31 25.3811 22.2414C25.1728 22.1951 25.0526 22.1292 24.9644 21.9342C24.8068 21.5843 24.6198 21.2468 24.4123 20.8408L24.415 20.8399Z" fill="white"/>
<path d="M22.5228 25.4427C22.5299 24.9405 22.8807 24.5469 23.3206 24.5487C23.756 24.5496 24.114 24.9539 24.1167 25.449C24.1202 25.9645 23.7578 26.3617 23.2948 26.3519C22.8469 26.3421 22.5156 25.9521 22.5228 25.4427Z" fill="white"/>
<path d="M10.9835 25.4489C10.9853 24.9413 11.3254 24.5504 11.768 24.5478C12.2105 24.5442 12.5551 24.9333 12.5605 25.4427C12.5658 25.9707 12.223 26.3589 11.7564 26.3518C11.3049 26.3447 10.9808 25.9662 10.9835 25.4489Z" fill="white"/>
<path d="M31.1495 23.0518C31.1495 23.4801 30.8806 23.7944 30.5101 23.8016C30.1326 23.8087 29.8477 23.4792 29.8503 23.0384C29.853 22.6155 30.1255 22.294 30.4897 22.2851C30.8637 22.2753 31.1495 22.6084 31.1495 23.0518Z" fill="white"/>
<path d="M4.13062 23.0553C4.12705 23.4774 3.84923 23.8059 3.49216 23.8113C3.12619 23.8166 2.8359 23.4729 2.83679 23.0357C2.83679 22.627 3.12619 22.2868 3.47881 22.2788C3.83944 22.2708 4.13507 22.6225 4.13151 23.0553H4.13062Z" fill="white"/>
<path d="M6.24897 25.5852C6.46178 24.7348 6.97913 24.4142 7.82862 24.571C7.87403 24.8888 7.91945 25.2112 7.97198 25.5852H6.24897Z" fill="white"/>
<path d="M0.79051 19.4634H2.16536C1.99172 20.0742 1.88665 20.1704 1.47705 20.1357C1.07189 20.1018 0.827019 19.8525 0.79051 19.4634Z" fill="white"/>
<path d="M33.2002 19.4651C33.1352 19.8667 32.9099 20.0911 32.5208 20.1285C32.1121 20.1677 32.0257 20.092 31.8147 19.4651H33.2002Z" fill="white"/>
<path d="M11.1162 30.5966C10.9986 30.6198 10.8811 30.6616 10.7627 30.6643C10.3406 30.6723 9.91852 30.6679 9.49645 30.6679C8.98533 30.6679 8.92033 30.6028 8.92389 30.0926C8.92389 30.0374 8.92834 29.9822 8.93368 29.8575C9.53919 30.553 10.3255 30.5058 11.101 30.496C11.1064 30.5298 11.1108 30.5637 11.1162 30.5975V30.5966Z" fill="white"/>
<path d="M23.9964 30.5094C24.7453 30.455 25.5494 30.5966 26.1202 29.8905C26.2413 30.5361 26.138 30.6679 25.5601 30.6679C25.1505 30.6679 24.7409 30.6714 24.3304 30.6652C24.2164 30.6634 24.1024 30.6314 23.9884 30.6135C23.9911 30.5788 23.9938 30.5441 23.9956 30.5094H23.9964Z" fill="white"/>
<path d="M27.3446 24.741C27.4862 24.9965 27.6286 25.253 27.7996 25.562H27.1157C27.1612 25.285 27.203 25.0295 27.2458 24.7739C27.2787 24.7632 27.3125 24.7525 27.3455 24.7419L27.3446 24.741Z" fill="white"/>
<path d="M1.03904 27.0713C1.38334 27.3081 1.93483 27.4845 2.69349 27.6002C2.29635 27.6002 1.89832 27.6002 1.50118 27.6002C1.05061 27.6002 1.02657 27.5735 1.03904 27.0713Z" fill="white"/>
<path d="M32.9437 27.0365C32.982 27.5449 32.9383 27.5984 32.5261 27.6002C32.1174 27.6019 31.7086 27.6002 31.2955 27.5761C31.8938 27.5725 32.4771 27.5298 32.9437 27.0374V27.0365Z" fill="white"/>
<path d="M22.8202 12.0174C22.2619 12.5704 21.7508 13.077 21.1737 13.6496C20.936 13.3887 20.6813 13.1144 20.432 12.8357C20.2379 12.6193 20.0402 12.6167 19.7811 12.744C19.3652 12.9479 18.9334 13.1207 18.4971 13.2783C18.2424 13.37 18.1106 13.4982 18.1231 13.7832C18.14 14.1571 18.1275 14.532 18.1275 14.9265H15.8587C15.8587 14.5507 15.8453 14.1767 15.8631 13.8045C15.8774 13.5107 15.7563 13.3691 15.4802 13.2738C15.043 13.1233 14.612 12.9435 14.1971 12.7396C13.9344 12.6104 13.743 12.6318 13.5479 12.8428C13.3004 13.1118 13.0395 13.3682 12.7652 13.6505C12.231 13.102 11.7207 12.5784 11.1704 12.0138C11.4394 11.7592 11.7092 11.4983 11.9852 11.2445C12.1882 11.0584 12.1962 10.8732 12.0743 10.623C11.8668 10.1964 11.6887 9.75388 11.5284 9.30776C11.4349 9.04775 11.2907 8.93288 11.0146 8.94357C10.6495 8.95782 10.2845 8.94713 9.89177 8.94713V6.68361C10.2346 6.68361 10.5854 6.66758 10.9336 6.68806C11.2755 6.70765 11.45 6.58566 11.5542 6.24195C11.6851 5.81097 11.8828 5.39691 12.0832 4.99176C12.2016 4.75312 12.1811 4.57592 11.9941 4.39783C11.7216 4.13782 11.4545 3.87247 11.2078 3.63205C11.7421 3.09689 12.2568 2.58132 12.8178 2.01855C13.0422 2.25452 13.304 2.51988 13.5542 2.79681C13.7501 3.01229 13.9415 3.0212 14.2024 2.8903C14.6067 2.68728 15.027 2.51008 15.4544 2.36494C15.7402 2.26788 15.8791 2.12986 15.8622 1.8182C15.8426 1.45668 15.8578 1.09249 15.8578 0.709595H18.1266C18.1266 1.08447 18.14 1.44689 18.1222 1.80752C18.1079 2.11027 18.221 2.26165 18.5193 2.3587C18.9592 2.50207 19.3857 2.69351 19.8016 2.89832C20.0509 3.02209 20.2352 3.01051 20.4213 2.80571C20.6742 2.527 20.9369 2.25808 21.1835 1.99718C21.7356 2.55104 22.2503 3.0675 22.8318 3.65075C22.5709 3.88582 22.2921 4.13782 22.0117 4.38715C21.806 4.56969 21.7962 4.75757 21.9173 5.00779C22.123 5.43431 22.3019 5.87687 22.4622 6.32298C22.5557 6.58299 22.7 6.69697 22.976 6.68628C23.3402 6.67204 23.7062 6.68272 24.0989 6.68272V8.94624C23.7427 8.94624 23.3705 8.9596 22.9992 8.94179C22.692 8.92754 22.5459 9.05488 22.4515 9.34694C22.3153 9.76545 22.1452 10.1786 21.9422 10.5695C21.7873 10.8678 21.8095 11.0815 22.0606 11.2997C22.3198 11.525 22.5611 11.7707 22.8193 12.0174H22.8202ZM16.9993 11.8073C19.1729 11.8055 20.9912 10.0068 20.9876 7.86167C20.9841 5.57946 19.2522 3.84219 16.9877 3.84842C14.718 3.85466 12.9968 5.59192 12.9994 7.87414C13.0021 10.0192 14.8222 11.8099 16.9993 11.8081V11.8073Z" fill="white"/>
<path d="M17.5408 29.0793C16.4856 29.0793 15.4304 29.0811 14.3743 29.0793C13.9514 29.0784 13.8222 28.8781 13.9816 28.4783C14.076 28.2414 14.1891 28.0117 14.2728 27.7713C14.5782 26.8888 15.2318 26.4338 16.1249 26.3946C17.132 26.351 18.1472 26.359 19.1525 26.4267C19.896 26.4765 20.457 26.887 20.7464 27.611C20.8657 27.9093 21.0037 28.2005 21.1248 28.4979C21.278 28.8736 21.1435 29.0784 20.7393 29.0802C19.6725 29.0838 18.6066 29.0811 17.5399 29.0811L17.5408 29.0793ZM14.8347 28.3563H20.2442C20.0759 27.4952 19.5932 27.0812 18.7571 27.0758C17.97 27.0705 17.1828 27.0723 16.3965 27.0758C15.5043 27.0785 15.0422 27.4551 14.8347 28.3572V28.3563Z" fill="#2169CF"/>
<path d="M16.9993 11.8073C14.8222 11.809 13.0021 10.0184 12.9994 7.87327C12.9968 5.59105 14.718 3.85378 16.9878 3.84755C19.2522 3.84132 20.9841 5.57947 20.9877 7.8608C20.9912 10.0059 19.1729 11.8046 16.9993 11.8064V11.8073ZM17.0091 4.53587C15.1988 4.53231 13.7234 5.98017 13.7171 7.7673C13.7109 9.65149 15.1151 11.0789 16.978 11.0816C18.855 11.0842 20.2637 9.67999 20.2708 7.79936C20.2771 6.00778 18.8105 4.53943 17.01 4.53587H17.0091Z" fill="#2169CF"/>
<path d="M14.8347 28.3562C15.0422 27.4542 15.5044 27.0775 16.3966 27.0749C17.1837 27.0722 17.9709 27.0704 18.7572 27.0749C19.5933 27.0802 20.0759 27.4943 20.2442 28.3553H14.8347V28.3562Z" fill="white"/>
<path d="M17.0091 4.53578C18.8096 4.53934 20.2771 6.00769 20.2699 7.79927C20.2628 9.6799 18.8541 11.0841 16.9771 11.0815C15.1142 11.0788 13.71 9.6514 13.7162 7.76721C13.7225 5.98008 15.1979 4.53132 17.0082 4.53578H17.0091Z" fill="white"/>
</svg>
