<svg width="30" height="29" viewBox="0 0 30 29" fill="none" xmlns="http://www.w3.org/2000/svg">
<path d="M0.000782326 24.8244C0.157334 24.3978 0.258309 23.9399 0.479829 23.5501C1.11073 22.4409 2.0837 21.828 3.36507 21.7161C3.40264 21.7161 3.44334 21.7043 3.52162 21.691V6.61904C3.52162 5.55215 3.97092 4.93769 4.9932 4.59875C5.50121 4.43046 6.00531 4.24964 6.51645 4.08839C6.68239 4.03595 6.73953 3.95689 6.73718 3.78077C6.72779 2.99801 6.72935 2.21526 6.73718 1.4372C6.74266 0.586343 7.31094 0.00632026 8.13675 5.82081e-05C8.91951 -0.0069866 9.53788 0.626264 9.54571 1.44737C9.54963 1.97182 9.54571 2.49548 9.54571 3.06298C10.1594 2.85947 10.7308 2.67161 11.3007 2.47983C13.1276 1.86458 14.9546 1.25169 16.7799 0.628612C17.0555 0.534681 17.2629 0.580863 17.468 0.780466C18.7768 2.05427 20.0889 3.3239 21.4045 4.58936C21.6162 4.78491 21.7835 5.02363 21.895 5.28939C22.0065 5.55514 22.0598 5.84174 22.051 6.12982C22.0424 7.8284 22.051 9.52777 22.051 11.2263C22.051 11.6357 21.9117 11.8197 21.6127 11.8205C21.3137 11.8212 21.1649 11.6271 21.1649 11.231C21.1649 9.52229 21.161 7.81353 21.1649 6.10477C21.1703 5.94832 21.142 5.79255 21.082 5.64794C21.0221 5.50333 20.9318 5.37325 20.8174 5.26644C19.7638 4.24886 18.711 3.23128 17.659 2.21369C17.6261 2.18238 17.5877 2.15655 17.5228 2.10411V13.0079H24.9511C26.0376 13.0079 26.5949 13.5629 26.5949 14.6431V21.7137C26.8298 21.7137 27.0497 21.7035 27.2697 21.7137C28.0041 21.7479 28.6971 22.0635 29.205 22.595C29.7129 23.1266 29.9968 23.8332 29.9976 24.5684C30.003 25.5445 29.9976 26.5206 29.9976 27.4975C29.9976 28.191 29.549 28.6489 28.8524 28.6716C28.7444 28.6716 28.6371 28.6716 28.5299 28.6716C19.5172 28.6716 10.5048 28.6742 1.49272 28.6795C0.815632 28.6795 0.294316 28.5104 0 27.8654L0.000782326 24.8244ZM16.5905 17.6176C16.477 17.6536 16.3854 17.681 16.2946 17.7115C14.5397 18.3001 12.7858 18.8898 11.0329 19.4805C10.7151 19.587 10.4944 19.5212 10.3778 19.2927C10.233 19.0109 10.3817 18.758 10.7692 18.6265L16.0011 16.8677C16.6015 16.6657 16.6015 16.6665 16.6015 16.0458V14.449C16.4637 14.4936 16.3721 14.5225 16.2813 14.5531L7.53872 17.4892C7.10899 17.634 6.86086 17.5737 6.75597 17.3029C6.6456 17.0078 6.80215 16.7941 7.23736 16.6485C8.42767 16.2493 9.61851 15.8501 10.8099 15.4509C12.6546 14.8304 14.499 14.2071 16.3432 13.5809C16.4418 13.5472 16.5866 13.4408 16.589 13.3648C16.6085 12.6838 16.5999 12.0013 16.5999 11.2913C16.4778 11.3281 16.3862 11.3524 16.297 11.3829C14.04 12.1417 11.7802 12.9007 9.51753 13.6599C8.80757 13.8948 8.09918 14.1429 7.38687 14.3762C7.02132 14.4959 6.7411 14.319 6.73718 13.9848C6.73327 13.7093 6.91095 13.5934 7.14108 13.519C8.83132 12.9534 10.52 12.3864 12.2071 11.8181C13.591 11.3485 14.9749 10.8882 16.3557 10.4154C16.4488 10.3833 16.5905 10.2886 16.5905 10.2197C16.6085 9.53012 16.6015 8.84051 16.6015 8.12742C16.4809 8.16342 16.3972 8.18534 16.3158 8.21274L9.50579 10.5007C8.79505 10.7395 8.089 10.9923 7.372 11.2052C7.28592 11.2241 7.19695 11.2257 7.11027 11.2098C7.02359 11.1939 6.94093 11.161 6.86712 11.1128C6.77397 11.0479 6.71057 10.8068 6.75988 10.7019C6.84451 10.5445 6.98368 10.4234 7.15126 10.3614C8.14301 10.0107 9.14259 9.6851 10.139 9.35008C12.2149 8.65108 14.2876 7.94895 16.3682 7.25777C16.5498 7.1975 16.6156 7.11609 16.607 6.92823C16.5929 6.62609 16.603 6.32316 16.603 6.02024V4.9596C16.4629 5.00422 16.3682 5.0324 16.2798 5.06371L9.35863 7.38536C8.68546 7.6108 8.01386 7.84328 7.33834 8.06166C7.0722 8.14777 6.83816 8.03505 6.75675 7.81353C6.66673 7.57009 6.78023 7.34388 7.04794 7.22881C7.09334 7.21003 7.1403 7.1975 7.18648 7.18185L10.8122 5.95996C12.6574 5.33898 14.5021 4.71669 16.3463 4.09309C16.4418 4.061 16.5882 3.9702 16.5897 3.90445C16.6077 3.16474 16.6007 2.42504 16.6007 1.65246C16.4614 1.69003 16.358 1.71195 16.2586 1.74482C12.5885 2.97531 8.91768 4.2092 5.24603 5.44648C4.61983 5.65704 4.4124 5.94666 4.4124 6.62061C4.4124 13.561 4.4124 20.5036 4.4124 27.4482C4.4124 27.5499 4.42336 27.6525 4.42883 27.755H6.73405V27.42C6.73405 26.4807 6.73405 25.5414 6.73405 24.6076C6.73405 23.9485 7.00254 23.5947 7.63266 23.417C8.92577 23.0517 10.2191 22.6888 11.5128 22.3282C12.2721 22.1176 12.8255 22.5505 12.8262 23.3458C12.8262 24.7125 12.8262 26.0794 12.8262 27.4466V27.7511H16.5835L16.5905 17.6176ZM23.9703 25.0381V24.7046C23.9758 23.5078 24.4893 22.6045 25.5421 22.0284C25.7088 21.9368 25.7182 21.8296 25.7182 21.6785C25.7182 19.3266 25.7182 16.9744 25.7182 14.6219C25.7182 14.0795 25.5468 13.912 24.9973 13.912H17.821C17.7263 13.912 17.6316 13.9214 17.5259 13.9269V25.0381H23.9703ZM17.5298 25.9453V27.7566H23.9484V25.9453H17.5298ZM29.0935 25.0381C29.2195 24.1129 28.8759 23.2957 28.1448 22.8855C27.3268 22.4276 26.4908 22.4464 25.712 22.9755C24.9942 23.4632 24.7977 24.1919 24.8768 25.0381H29.0935ZM29.1217 25.9547H24.8776V27.7738H25.7386C26.7562 27.7738 27.7651 27.7738 28.7788 27.7738C28.9815 27.7738 29.1248 27.7253 29.1248 27.4865C29.1209 26.9824 29.1217 26.4776 29.1217 25.9539V25.9547ZM10.2392 23.6064V27.755H11.9151V23.143L10.2392 23.6064ZM9.31088 23.8694C8.82479 24.0025 8.37784 24.1348 7.92541 24.2451C7.68119 24.3046 7.60448 24.433 7.6123 24.6811C7.62639 25.5297 7.617 26.3789 7.617 27.2275V27.7535H9.31088V23.8694ZM0.946352 25.0318H3.4997V22.6053C2.19954 22.6021 0.86338 23.8788 0.946352 25.0318ZM3.51223 25.9563H0.878252C0.878252 26.4752 0.878252 26.9738 0.878252 27.4693C0.878252 27.6995 0.993318 27.7762 1.20779 27.7746C1.88096 27.7699 2.55492 27.7746 3.22887 27.7746C3.32202 27.7746 3.41438 27.7636 3.51301 27.7574L3.51223 25.9563ZM7.617 3.71032C7.95045 3.59761 8.25182 3.49976 8.54926 3.39096C8.57321 3.37894 8.59395 3.36138 8.60974 3.33973C8.62553 3.31808 8.63593 3.29298 8.64006 3.2665C8.64006 2.60507 8.64711 1.94364 8.61814 1.28378C8.60719 1.02938 8.36532 0.892401 8.08352 0.904142C7.82208 0.917449 7.62483 1.07713 7.62091 1.33387C7.60917 2.11037 7.617 2.88608 7.617 3.71032Z" fill="#2169CF"/>
<path d="M16.5905 17.6176V27.7519H12.8333V27.4474C12.8333 26.0807 12.8333 24.7138 12.8333 23.3466C12.8333 22.5489 12.2791 22.1161 11.5198 22.329C10.2251 22.6875 8.93177 23.0504 7.6397 23.4178C7.01349 23.5955 6.74266 23.9493 6.7411 24.6084C6.7411 25.5477 6.7411 26.4831 6.7411 27.4208V27.7558H4.42883C4.42335 27.6533 4.4124 27.5507 4.4124 27.449C4.4124 20.5085 4.4124 13.566 4.4124 6.6214C4.4124 5.94901 4.61826 5.65939 5.24603 5.44727C8.91716 4.20947 12.5885 2.97532 16.2602 1.74483C16.3596 1.71196 16.4629 1.69004 16.6023 1.65247C16.6023 2.42505 16.6093 3.16475 16.5913 3.90445C16.5913 3.97021 16.4434 4.06101 16.3479 4.0931C14.5047 4.7193 12.66 5.3416 10.8138 5.95997L7.18805 7.18186C7.14187 7.19751 7.0949 7.21003 7.0495 7.22882C6.7818 7.34075 6.6683 7.5701 6.75832 7.81354C6.83659 8.03506 7.07142 8.14778 7.3399 8.06167C8.01542 7.84328 8.68703 7.61081 9.3602 7.38537L16.2813 5.06372C16.3721 5.03241 16.4645 5.00423 16.6046 4.95961V6.02181C16.6046 6.32474 16.5944 6.62766 16.6085 6.92981C16.6171 7.11767 16.5514 7.19908 16.3698 7.25935C14.2916 7.95052 12.2165 8.65265 10.1406 9.35166C9.14416 9.68668 8.14458 10.0123 7.15282 10.363C6.98524 10.425 6.84607 10.5461 6.76145 10.7035C6.71292 10.8084 6.77554 11.0495 6.86868 11.1144C6.9425 11.1626 7.02515 11.1955 7.11183 11.2114C7.19852 11.2272 7.28749 11.2257 7.37356 11.2068C8.09057 10.9923 8.79661 10.7371 9.50735 10.5023L16.3173 8.21431C16.3956 8.18691 16.4825 8.165 16.603 8.12899C16.603 8.84208 16.6101 9.53169 16.5921 10.2213C16.5921 10.2902 16.4512 10.3849 16.3573 10.417C14.9757 10.8866 13.5918 11.3563 12.2086 11.8197C10.5195 12.3869 8.83027 12.9531 7.14108 13.5183C6.91095 13.5965 6.73327 13.7085 6.73718 13.984C6.73718 14.319 7.02132 14.4959 7.38687 14.3754C8.09918 14.1406 8.80757 13.8971 9.51753 13.6592C11.7781 12.8994 14.039 12.1404 16.3001 11.3821C16.3893 11.3516 16.4809 11.3273 16.603 11.2905C16.603 12.0005 16.6116 12.6831 16.5921 13.3641C16.5921 13.4423 16.4449 13.5464 16.3463 13.5801C14.5037 14.2063 12.6593 14.8296 10.813 15.4501C9.62268 15.8504 8.43185 16.2496 7.24049 16.6477C6.80528 16.7933 6.64873 17.007 6.7591 17.3021C6.86086 17.5729 7.10899 17.6332 7.54185 17.4884L16.2876 14.5523C16.3784 14.5218 16.47 14.4928 16.6077 14.4482V16.0427C16.6077 16.6634 16.6077 16.6626 16.0074 16.8645L10.7754 18.6234C10.384 18.7549 10.2361 19.0077 10.384 19.2895C10.5007 19.5181 10.7214 19.5838 11.0392 19.4774C12.7926 18.8893 14.5454 18.3004 16.2978 17.7107C16.3823 17.6802 16.4739 17.6536 16.5905 17.6176ZM7.27572 20.7486C7.81738 20.5545 8.45455 20.3462 9.06901 20.0864C9.16842 20.0449 9.22556 19.7631 9.20286 19.6089C9.19484 19.5573 9.17553 19.5081 9.1463 19.4649C9.11708 19.4216 9.07866 19.3853 9.0338 19.3586C8.98893 19.332 8.93873 19.3155 8.88677 19.3104C8.83481 19.3054 8.78237 19.3119 8.73321 19.3294C8.13831 19.5071 7.5489 19.7067 6.96653 19.922C6.75988 20.0003 6.70196 20.2038 6.75049 20.4143C6.79902 20.6249 6.95635 20.7329 7.27572 20.7478V20.7486Z" fill="white"/>
<path d="M23.9703 25.0381H17.5298V13.9269C17.6355 13.9214 17.7302 13.912 17.8249 13.912H24.9989C25.5468 13.912 25.7198 14.0795 25.7198 14.6219C25.7198 16.9739 25.7198 19.3261 25.7198 21.6785C25.7198 21.8296 25.7104 21.9368 25.5437 22.0284C24.4909 22.6045 23.9782 23.5078 23.9719 24.7046L23.9703 25.0381ZM21.554 20.873C22.2475 20.873 22.9402 20.8793 23.6338 20.873C24.141 20.8668 24.451 20.5952 24.476 20.1286C24.4964 19.7681 24.4964 19.4067 24.476 19.0461C24.4494 18.6085 24.1418 18.3283 23.7066 18.3267C22.2908 18.322 20.8753 18.322 19.4601 18.3267C18.9904 18.3267 18.6993 18.6156 18.6836 19.0923C18.6734 19.3944 18.6773 19.6973 18.6836 20.0003C18.6899 20.5999 18.9591 20.8691 19.5673 20.8738C20.2264 20.877 20.8902 20.873 21.554 20.873ZM21.5587 17.533C22.242 17.533 22.9261 17.5393 23.6087 17.533C24.1402 17.5268 24.451 17.2606 24.476 16.7824C24.494 16.4314 24.494 16.0797 24.476 15.7288C24.4549 15.2865 24.1551 14.9891 23.7285 14.9875C22.2939 14.9812 20.8589 14.9812 19.4233 14.9875C19.3277 14.9839 19.2324 14.9996 19.143 15.0338C19.0537 15.0679 18.9721 15.1196 18.9032 15.186C18.8343 15.2523 18.7794 15.3319 18.742 15.4199C18.7045 15.5079 18.6852 15.6026 18.6852 15.6982C18.6703 16.0004 18.6773 16.3033 18.6781 16.6055C18.6781 17.2645 18.9419 17.5315 19.5971 17.5354C20.2522 17.5393 20.9051 17.533 21.5587 17.533ZM20.1129 24.2373C20.3564 24.2373 20.6006 24.2412 20.8448 24.2373C21.2323 24.2287 21.5383 23.9908 21.5673 23.6111C21.599 23.1835 21.599 22.7542 21.5673 22.3266C21.5595 22.1625 21.4891 22.0077 21.3705 21.894C21.252 21.7803 21.0944 21.7163 20.9301 21.7153C20.4041 21.6918 19.8765 21.6902 19.3505 21.7153C18.9591 21.7325 18.7047 22.0135 18.6891 22.4018C18.6734 22.79 18.6726 23.1634 18.6891 23.543C18.6903 23.6361 18.71 23.7281 18.7469 23.8136C18.7839 23.899 18.8375 23.9763 18.9045 24.041C18.9716 24.1056 19.0508 24.1563 19.1375 24.1902C19.2243 24.224 19.3169 24.2403 19.41 24.2381C19.6433 24.242 19.8781 24.2365 20.1129 24.2373Z" fill="white"/>
<path d="M17.5298 25.9453H23.9484V27.7566H17.5298V25.9453Z" fill="white"/>
<path d="M29.0935 25.038H24.8768C24.7985 24.1919 24.9942 23.4631 25.712 22.9755C26.4947 22.4463 27.3268 22.4276 28.1448 22.8855C28.8798 23.2948 29.2195 24.112 29.0935 25.038Z" fill="white"/>
<path d="M29.1217 25.9539C29.1217 26.4775 29.1217 26.9824 29.1217 27.4873C29.1217 27.7221 28.9784 27.7753 28.7757 27.7745C27.762 27.7745 26.7491 27.7745 25.7355 27.7745H24.8744V25.9539H29.1217Z" fill="white"/>
<path d="M10.2392 23.6072L11.9151 23.1431V27.7527H10.2392V23.6072Z" fill="white"/>
<path d="M9.31088 23.8694V27.7534H7.61465V27.2298C7.61465 26.3812 7.62404 25.532 7.60995 24.6835C7.60526 24.4353 7.68197 24.3069 7.92306 24.2475C8.37862 24.1347 8.82557 24.0025 9.31088 23.8694Z" fill="white"/>
<path d="M0.946348 25.0318C0.863376 23.8788 2.19876 22.6052 3.4997 22.6052V25.0318H0.946348Z" fill="white"/>
<path d="M3.51222 25.9562V27.7566C3.41359 27.7628 3.32123 27.7738 3.22808 27.7738C2.55413 27.7738 1.88017 27.7738 1.207 27.7738C0.992528 27.7738 0.875114 27.6955 0.877463 27.4685C0.877463 26.9715 0.877463 26.4744 0.877463 25.9554L3.51222 25.9562Z" fill="white"/>
<path d="M7.617 3.71035C7.617 2.88689 7.60917 2.1104 7.617 1.33391C7.62091 1.07716 7.81817 0.917479 8.07961 0.904172C8.3614 0.890083 8.60327 1.02941 8.61423 1.28381C8.64319 1.94367 8.63615 2.6051 8.63615 3.26653C8.63201 3.29301 8.62162 3.31811 8.60582 3.33976C8.59003 3.36141 8.5693 3.37897 8.54535 3.39099C8.25181 3.49979 7.95045 3.59764 7.617 3.71035Z" fill="white"/>
<path d="M7.27572 20.7478C6.95713 20.7313 6.79902 20.6304 6.74892 20.4135C6.69883 20.1967 6.75831 19.9971 6.96496 19.9212C7.54733 19.7059 8.1391 19.5063 8.73164 19.3286C8.78081 19.3111 8.83324 19.3046 8.8852 19.3096C8.93716 19.3147 8.98737 19.3311 9.03223 19.3578C9.0771 19.3845 9.11551 19.4208 9.14474 19.4641C9.17396 19.5073 9.19328 19.5565 9.2013 19.6081C9.22556 19.7646 9.16686 20.0441 9.06745 20.0856C8.45376 20.3454 7.8166 20.5537 7.27572 20.7478Z" fill="white"/>
<path d="M21.554 20.873C20.8902 20.873 20.2233 20.873 19.5626 20.873C18.9544 20.8683 18.6852 20.599 18.6789 19.9994C18.675 19.6965 18.6711 19.3936 18.6789 19.0914C18.6946 18.6147 18.9842 18.3267 19.4554 18.3259C20.8706 18.3217 22.2861 18.3217 23.7019 18.3259C24.1371 18.3259 24.4447 18.6077 24.4713 19.0452C24.4917 19.4058 24.4917 19.7672 24.4713 20.1278C24.4463 20.5974 24.1363 20.8659 23.6291 20.8722C22.9402 20.8792 22.2475 20.873 21.554 20.873ZM19.5767 19.9501H23.5641V19.2229H19.5767V19.9501Z" fill="#2169CF"/>
<path d="M21.5587 17.533C20.9051 17.533 20.2507 17.533 19.5971 17.533C18.9435 17.533 18.6805 17.2621 18.6781 16.603C18.6781 16.3009 18.6703 15.998 18.6852 15.6958C18.6852 15.6002 18.7045 15.5055 18.742 15.4175C18.7795 15.3295 18.8343 15.2499 18.9032 15.1836C18.9721 15.1172 19.0537 15.0654 19.143 15.0313C19.2324 14.9972 19.3277 14.9815 19.4233 14.9851C20.8589 14.9804 22.2939 14.9804 23.7285 14.9851C24.1551 14.9851 24.4549 15.2841 24.476 15.7264C24.494 16.0773 24.494 16.429 24.476 16.7799C24.451 17.2582 24.1402 17.5243 23.6087 17.5306C22.9261 17.5392 22.242 17.533 21.5587 17.533ZM23.557 16.6187V15.8743H19.5822V16.6187H23.557Z" fill="#2169CF"/>
<path d="M20.1129 24.2373C19.8781 24.2373 19.6433 24.242 19.4084 24.2373C19.3153 24.2394 19.2227 24.2231 19.136 24.1893C19.0492 24.1555 18.97 24.1048 18.903 24.0401C18.8359 23.9755 18.7824 23.8982 18.7454 23.8127C18.7084 23.7273 18.6887 23.6353 18.6875 23.5422C18.6711 23.1625 18.6719 22.7813 18.6875 22.4009C18.7032 22.0205 18.9607 21.7317 19.3489 21.7144C19.875 21.6917 20.4025 21.6933 20.9285 21.7144C21.0928 21.7155 21.2504 21.7794 21.369 21.8931C21.4875 22.0069 21.5579 22.1617 21.5657 22.3258C21.5974 22.7534 21.5974 23.1827 21.5657 23.6103C21.5367 23.9891 21.2307 24.2271 20.8432 24.2365C20.599 24.2412 20.3548 24.2373 20.1129 24.2373ZM19.5822 23.3465H20.6781V22.6115H19.5822V23.3465Z" fill="white"/>
<path d="M19.5767 19.9502V19.223H23.5641V19.9502H19.5767Z" fill="white"/>
<path d="M23.557 16.6188H19.5822V15.8744H23.557V16.6188Z" fill="white"/>
<path d="M19.5806 23.3466V22.6116H20.6765V23.3434L19.5806 23.3466Z" fill="#2169CF"/>
</svg>
