<svg width="34" height="34" viewBox="0 0 34 34" fill="none" xmlns="http://www.w3.org/2000/svg">
<rect x="1.41916" y="22.6169" width="4.25732" height="5.85381" fill="#2169CF"/>
<g clip-path="url(#clip0_1_1661)">
<path d="M33.9991 33.2701V34H0.338819C0.11797 33.8333 -0.0656262 33.6346 0.0230679 33.3348C0.184491 32.7893 0.684726 32.9924 1.04749 32.9162V6.90572H0.663439C0.182717 6.90572 0.00976345 6.72834 0.00887651 6.24495C0.00887651 5.59216 0.00355486 4.93938 0.00887651 4.28659C0.00887651 3.92649 0.205778 3.73668 0.559668 3.7216C0.636724 3.71584 0.714102 3.71584 0.791158 3.7216C1.01467 3.7491 1.10868 3.68613 1.15303 3.43246C1.49273 1.5007 3.26306 0.00709553 5.23296 0.00532165C13.0765 -0.00177388 20.9197 -0.00177388 28.7626 0.00532165C30.7378 0.00532165 32.5002 1.48208 32.8505 3.42093C32.8993 3.69234 33.0057 3.75176 33.2346 3.72072C33.5574 3.67726 33.8191 3.77039 34.0009 4.05243V6.57578C33.765 7.01304 33.3197 6.87557 32.957 6.91903V32.9117C33.7765 33.0049 33.7765 33.0049 33.9991 33.2701ZM31.8607 6.9279H2.15705V16.9831H6.3647V15.9552C5.63208 15.8319 5.31988 15.4612 5.31988 14.7285C5.31988 14.2531 5.29505 13.7751 5.32786 13.3015C5.34265 12.9829 5.41257 12.6693 5.53452 12.3746C6.02322 11.2996 6.53588 10.2344 7.06361 9.18161C7.45829 8.39135 8.11463 7.97804 9.00689 7.97537C10.0801 7.97094 11.1533 7.97537 12.2265 7.97537C13.1462 7.97537 13.8115 8.39312 14.2194 9.21088C14.5441 9.86367 14.8101 10.5493 15.1765 11.1763C15.7852 12.2097 16.0573 13.4068 15.9552 14.6017C15.8958 15.4647 15.7228 15.7609 14.9077 15.9827V16.9894H19.1171V15.9605C18.3836 15.8372 18.0714 15.4665 18.0714 14.7356C18.0714 14.2487 18.0493 13.76 18.0794 13.2748C18.0902 12.9782 18.1541 12.6859 18.2683 12.4119C18.7686 11.3174 19.283 10.2291 19.8258 9.15501C20.2169 8.37982 20.8742 7.97981 21.7531 7.97626C22.8263 7.97626 23.8995 7.97626 24.9727 7.97626C25.8925 7.97626 26.5586 8.39312 26.9657 9.21088C27.2912 9.86367 27.5564 10.5493 27.9227 11.1763C28.5316 12.2096 28.8041 13.4067 28.7023 14.6017C28.642 15.4665 28.4682 15.7645 27.6548 15.9827V16.9902H31.8651L31.8607 6.9279ZM20.1797 29.787C19.3708 29.5919 19.1287 29.2779 19.1287 28.4327C19.1287 27.9794 19.11 27.5244 19.1358 27.0721C19.1423 26.7982 19.1985 26.5277 19.3016 26.2739C19.8178 25.151 20.3455 24.0317 20.9061 22.9301C21.2884 22.1788 21.9376 21.7948 22.7873 21.7886C23.8711 21.7806 24.9559 21.7886 26.0397 21.7886C26.9595 21.7886 27.622 22.2126 28.0282 23.0303C28.328 23.6343 28.6154 24.2436 28.9028 24.8521C29.9485 27.0526 29.7205 26.1657 29.748 28.6491C29.7525 28.6707 29.7525 28.6931 29.748 28.7147C29.6256 28.9764 29.5467 29.277 29.3622 29.4846C29.2114 29.6549 28.9347 29.7134 28.7041 29.8261V30.7946H31.8527V20.2134H17.0195V30.7928H20.1797V29.787ZM2.21115 3.70209H31.8039C31.8006 3.65274 31.7947 3.6036 31.7862 3.55486C31.4252 2.03376 30.164 1.06522 28.5364 1.06522C20.8496 1.06522 13.161 1.06522 5.47066 1.06522C5.38197 1.06522 5.29327 1.06522 5.20458 1.07054C3.69234 1.14238 2.39475 2.27767 2.21115 3.70209ZM13.8035 20.1992H2.14995V30.791H3.72605V21.9403C3.72605 21.4143 3.88924 21.252 4.41963 21.252C6.7653 21.252 9.11067 21.252 11.4557 21.252C12.0766 21.252 12.2212 21.3904 12.2212 22.0023C12.2212 24.8021 12.2212 27.6019 12.2212 30.4017V30.791H13.8026L13.8035 20.1992ZM1.08208 5.82099H32.9108V4.79835H1.08208V5.82099ZM2.1464 19.1038H31.8501V18.0785H2.14552L2.1464 19.1038ZM4.80723 22.327V32.9117H7.4237V22.327H4.80723ZM11.1382 32.9241V22.3385H8.52174V32.9241H11.1382ZM6.38332 14.8536H14.8767C14.8767 14.301 14.8953 13.7706 14.8722 13.242C14.866 12.9658 14.7504 12.7034 14.5508 12.5124C14.3513 12.3213 14.0841 12.2172 13.8079 12.2229C11.6852 12.2123 9.56241 12.2123 7.43967 12.2229C7.16937 12.2179 6.90789 12.3191 6.71149 12.5049C6.51509 12.6907 6.39948 12.9461 6.38953 13.2163C6.36026 13.7485 6.38332 14.2922 6.38332 14.8536ZM27.6264 14.8651C27.6264 14.709 27.6264 14.5893 27.6264 14.4687C27.6264 14.0598 27.6424 13.6491 27.6194 13.2411C27.6119 12.9654 27.4959 12.7038 27.2966 12.5131C27.0973 12.3224 26.8308 12.2182 26.555 12.2229C24.4329 12.2123 22.3104 12.2123 20.1877 12.2229C19.6555 12.2229 19.2174 12.5635 19.165 13.0842C19.1056 13.6695 19.1517 14.2656 19.1517 14.8651H27.6264ZM28.6908 28.6739C28.6908 28.1258 28.7014 27.6176 28.6908 27.1094C28.6739 26.5027 28.2473 26.0406 27.6468 26.037C25.5135 26.0234 23.3798 26.0234 21.2458 26.037C20.7491 26.037 20.3154 26.3413 20.2631 26.8131C20.1957 27.4278 20.2471 28.0548 20.2471 28.6757L28.6908 28.6739ZM17.0169 32.9153H31.8483V31.8917H17.0169V32.9153ZM14.9006 20.2019V32.9126H15.925V20.2019H14.9006ZM13.9605 11.1497C13.6944 10.5972 13.4602 10.0854 13.2021 9.58961C13.007 9.21354 12.67 9.03704 12.2504 9.03438C11.1684 9.02551 10.0854 9.02729 9.00335 9.03438C8.66808 9.03438 8.33903 9.14259 8.17051 9.43262C7.8521 9.97897 7.58779 10.5564 7.28357 11.1506L13.9605 11.1497ZM20.052 11.1364H26.704C26.4379 10.591 26.2038 10.0721 25.9368 9.56566C25.7461 9.20379 25.4047 9.03349 25.0046 9.03349C23.9226 9.02463 22.8402 9.02463 21.7576 9.03349C21.3425 9.03349 21.0001 9.21088 20.8059 9.58872C20.5442 10.0863 20.3118 10.5972 20.052 11.1364ZM27.7728 24.9559C27.4899 24.3847 27.2406 23.8348 26.9479 23.3088C26.7617 22.9762 26.4202 22.8476 26.0459 22.8449C24.9745 22.8396 23.9031 22.8396 22.8316 22.8449C22.4582 22.8449 22.1159 22.9753 21.9296 23.3079C21.636 23.833 21.3877 24.3838 21.1048 24.9559H27.7728ZM11.6668 16.9894V15.9534H9.58607V16.9894H11.6668ZM22.327 16.9894H24.4202V15.9596H22.327V16.9894ZM23.3913 29.7693V30.7973H25.4747V29.7649L23.3913 29.7693ZM3.71186 31.8988H2.15793V32.9206H3.71186V31.8988ZM13.8035 31.8909H12.2416V32.9162H13.8035V31.8909ZM7.4645 15.9516V16.9752H8.48892V15.9516H7.4645ZM13.7911 16.9894V15.9543H12.7737V16.9894H13.7911ZM20.2028 16.9894H21.2334V15.9596H20.2028V16.9894ZM26.555 15.9578H25.5244V16.9743H26.555V15.9578ZM21.2697 29.7649V30.7919H22.2906V29.7649H21.2697ZM27.6025 30.7999V29.7764H26.5807V30.7999H27.6025Z" fill="white"/>
<path d="M31.8607 6.92883V16.9841H27.6504V15.9765C28.4637 15.7583 28.6376 15.4603 28.6979 14.5956C28.7997 13.4005 28.5272 12.2034 27.9182 11.1702C27.5519 10.5431 27.2867 9.85751 26.9612 9.20472C26.5541 8.38696 25.888 7.9701 24.9683 7.9701C23.8951 7.9701 22.8219 7.9701 21.7487 7.9701C20.8697 7.9701 20.2125 8.37366 19.8214 9.14885C19.2785 10.2229 18.7641 11.3112 18.2639 12.4057C18.1497 12.6797 18.0857 12.972 18.075 13.2687C18.0448 13.7538 18.0661 14.2443 18.067 14.7295C18.067 15.4603 18.3792 15.8311 19.1127 15.9543V16.9832H14.9033V15.9774C15.7184 15.7557 15.8913 15.4594 15.9507 14.5964C16.0529 13.4015 15.7807 12.2044 15.172 11.1711C14.8057 10.544 14.5396 9.8584 14.215 9.20561C13.807 8.38785 13.1418 7.9701 12.222 7.9701C11.1488 7.9701 10.0756 7.9701 9.00245 7.9701C8.11019 7.9701 7.45385 8.38608 7.05916 9.17634C6.53143 10.2327 6.01878 11.2979 5.53008 12.3693C5.40864 12.6671 5.34021 12.9837 5.32785 13.3051C5.29504 13.7787 5.31898 14.2567 5.31987 14.7321C5.31987 15.4648 5.63207 15.8355 6.36469 15.9588V16.9867H2.15704V6.92883H31.8607Z" fill="#2169CF"/>
<path d="M20.1797 29.787V30.7928H17.0195V20.2134H31.8518V30.7937H28.7032V29.8252C28.9338 29.7125 29.2105 29.654 29.3613 29.4837C29.5458 29.2761 29.6274 28.9755 29.7471 28.7138C29.7516 28.6922 29.7516 28.6698 29.7471 28.6482C29.7187 26.1648 29.9467 27.0561 28.901 24.8468C28.6136 24.2383 28.3262 23.629 28.0264 23.025C27.6202 22.2072 26.9577 21.7833 26.0379 21.7833C24.9541 21.7833 23.8694 21.7771 22.7855 21.7833C21.9358 21.7895 21.2866 22.1735 20.9043 22.9248C20.3438 24.0263 19.816 25.1421 19.2998 26.2685C19.1967 26.5224 19.1405 26.7928 19.134 27.0668C19.1083 27.5191 19.1269 27.9741 19.1269 28.4273C19.1287 29.2779 19.3708 29.5919 20.1797 29.787Z" fill="#2169CF"/>
<path d="M2.21114 3.70207C2.39474 2.27764 3.69233 1.14236 5.20546 1.06697C5.29415 1.06253 5.38284 1.06165 5.47154 1.06165C13.1584 1.06165 20.847 1.06165 28.5373 1.06165C30.1649 1.06165 31.4261 2.03728 31.7871 3.55395C31.7955 3.60269 31.8015 3.65183 31.8048 3.70118L2.21114 3.70207Z" fill="#2169CF"/>
<path d="M13.8035 20.2036V30.791H12.222V30.4017C12.222 27.6013 12.222 24.8015 12.222 22.0023C12.222 21.3903 12.081 21.252 11.4566 21.252C9.11155 21.252 6.76618 21.252 4.42051 21.252C3.88835 21.252 3.72693 21.4143 3.72693 21.9402V30.791H2.14994V20.2036H13.8035Z" fill="#2169CF"/>
<path d="M1.08207 5.82098V4.79834H32.9108V5.82098H1.08207Z" fill="#2169CF"/>
<path d="M2.14551 19.1038V18.0785H31.8492V19.1038H2.14551Z" fill="#2169CF"/>
<path d="M4.80988 22.327H7.42636V32.9118H4.80988V22.327Z" fill="#2169CF"/>
<path d="M11.1382 32.9241H8.52173V22.3385H11.1382V32.9241Z" fill="#2169CF"/>
<path d="M6.38332 14.8536C6.38332 14.2922 6.36026 13.7503 6.38952 13.2119C6.40061 12.9419 6.51721 12.687 6.71425 12.5021C6.9113 12.3171 7.17304 12.2169 7.44321 12.2229C9.56537 12.2123 11.6881 12.2123 13.8114 12.2229C14.0876 12.2172 14.3548 12.3213 14.5544 12.5124C14.7539 12.7034 14.8695 12.9659 14.8758 13.242C14.8988 13.7742 14.8802 14.3011 14.8802 14.8536H6.38332Z" fill="#2169CF"/>
<path d="M27.6264 14.8652H19.1535C19.1535 14.2656 19.1074 13.6696 19.1668 13.0842C19.2191 12.5636 19.6564 12.2248 20.1894 12.223C22.3116 12.2129 24.434 12.2129 26.5568 12.223C26.8326 12.2182 27.0991 12.3225 27.2984 12.5132C27.4977 12.7038 27.6137 12.9655 27.6211 13.2412C27.6442 13.6492 27.6273 14.0598 27.6282 14.4687C27.6273 14.5894 27.6264 14.7091 27.6264 14.8652Z" fill="#2169CF"/>
<path d="M28.6881 28.6739H20.2418C20.2418 28.053 20.1903 27.4269 20.2577 26.8113C20.3101 26.3395 20.7438 26.037 21.2405 26.0352C23.3744 26.0252 25.5081 26.0252 27.6415 26.0352C28.2393 26.0352 28.6686 26.5009 28.6854 27.1076C28.6988 27.6176 28.6881 28.1258 28.6881 28.6739Z" fill="#2169CF"/>
<path d="M17.0168 32.9153V31.8917H31.8483V32.9153H17.0168Z" fill="#2169CF"/>
<path d="M14.9006 20.2019H15.925V32.9127H14.9006V20.2019Z" fill="#2169CF"/>
<path d="M13.9605 11.1498H7.28534C7.58778 10.5555 7.85209 9.97813 8.17228 9.43178C8.3408 9.14175 8.66985 9.03531 9.00511 9.03354C10.0872 9.02733 11.1701 9.02556 12.2522 9.03354C12.6673 9.03354 13.0088 9.21093 13.2039 9.58877C13.4602 10.0872 13.6944 10.5972 13.9605 11.1498Z" fill="#2169CF"/>
<path d="M20.052 11.1365C20.3118 10.5972 20.5442 10.0864 20.8032 9.58878C20.9974 9.2136 21.3398 9.0371 21.7549 9.03355C22.837 9.02527 23.9193 9.02527 25.002 9.03355C25.4029 9.03355 25.7435 9.20296 25.9342 9.56572C26.2002 10.0704 26.4371 10.591 26.7014 11.1365H20.052Z" fill="#2169CF"/>
<path d="M27.7728 24.9559H21.1048C21.3877 24.3838 21.6369 23.833 21.9296 23.3079C22.1159 22.9753 22.4618 22.8467 22.8316 22.8449C23.9031 22.8396 24.9745 22.8396 26.0459 22.8449C26.4202 22.8449 26.7617 22.9762 26.9479 23.3088C27.2406 23.8348 27.4899 24.3847 27.7728 24.9559Z" fill="#2169CF"/>
<path d="M11.6668 16.9893H9.58606V15.9534H11.6668V16.9893Z" fill="#2169CF"/>
<path d="M22.327 16.9849V15.9596H24.4201V16.9849H22.327Z" fill="#2169CF"/>
<path d="M23.394 29.7649H25.4774V30.7929H23.394V29.7649Z" fill="#2169CF"/>
<path d="M3.71185 31.8988V32.9206H2.15793V31.8988H3.71185Z" fill="#2169CF"/>
<path d="M13.8035 31.8909V32.9162H12.2416V31.8909H13.8035Z" fill="#2169CF"/>
<path d="M7.4645 15.9517H8.48891V16.9752H7.4645V15.9517Z" fill="#2169CF"/>
<path d="M13.791 16.9894H12.7737V15.9543H13.791V16.9894Z" fill="#2169CF"/>
<path d="M20.2027 16.9849V15.9596H21.2334V16.9849H20.2027Z" fill="#2169CF"/>
<path d="M26.555 15.9579V16.9743H25.5244V15.9579H26.555Z" fill="#2169CF"/>
<path d="M21.2697 29.7649H22.2906V30.792H21.2697V29.7649Z" fill="#2169CF"/>
<path d="M27.6025 30.7999H26.5807V29.7764H27.6025V30.7999Z" fill="#2169CF"/>
</g>
<defs>
<clipPath id="clip0_1_1661">
<rect width="33.9991" height="34" fill="white"/>
</clipPath>
</defs>
</svg>
