<svg width="34" height="29" viewBox="0 0 34 29" fill="none" xmlns="http://www.w3.org/2000/svg">
<path d="M0 15.871C0.0856731 15.2605 0.157206 14.6474 0.260347 14.0394C0.784367 10.9577 2.08444 8.2361 4.12978 5.87967C6.68916 2.93268 9.8757 0.979667 13.7218 0.313412C20.4202 -0.846918 26.0072 1.21672 30.3491 6.4694C32.3013 8.83165 33.45 11.5873 33.8401 14.6217C34.4822 19.6182 33.1896 24.0773 29.9831 27.9792C29.7028 28.3202 29.425 28.4491 28.9825 28.4483C20.9242 28.4342 12.8668 28.4367 4.80851 28.4442C4.52737 28.4442 4.3477 28.361 4.16388 28.1464C2.17676 25.8315 0.883348 23.1815 0.301935 20.1879C0.190477 19.6148 0.143898 19.0284 0.0648787 18.4487C0.0499067 18.3414 0.022458 18.2357 0 18.1293C0 17.3765 0 16.6238 0 15.871ZM16.9924 27.4319C20.9325 27.4319 24.8727 27.4335 28.812 27.4261C28.9492 27.4261 29.1438 27.387 29.2137 27.293C29.756 26.5677 30.3383 25.8606 30.7883 25.0796C32.7313 21.7018 33.4267 18.076 32.7463 14.2249C32.0002 10.002 29.8725 6.59833 26.4181 4.07721C22.7574 1.40387 18.646 0.466459 14.176 1.25332C10.2608 1.94287 7.05348 3.88091 4.55399 6.96098C2.43877 9.56695 1.27844 12.5613 1.04638 15.9167C0.919115 17.7566 1.11458 19.5624 1.61032 21.33C2.21752 23.4951 3.24809 25.4473 4.68208 27.1857C4.8318 27.367 4.97237 27.4385 5.2061 27.4377C9.13459 27.4302 13.0639 27.4327 16.9924 27.4327V27.4319Z" fill="#2169CF"/>
<path d="M16.9924 27.4319C13.0639 27.4319 9.13457 27.4294 5.20608 27.4368C4.97235 27.4368 4.83178 27.3661 4.68206 27.1848C3.24807 25.4464 2.2175 23.4942 1.6103 21.3291C1.11456 19.5616 0.919094 17.7558 1.04636 15.9159C1.27842 12.5613 2.43875 9.56609 4.55396 6.96013C7.05429 3.88172 10.2608 1.94285 14.176 1.2533C18.6451 0.46644 22.7566 1.40385 26.4189 4.07719C29.8725 6.59914 32.0001 10.0019 32.7471 14.2249C33.4275 18.0752 32.7329 21.7009 30.7891 25.0796C30.3391 25.8615 29.7568 26.5676 29.2145 27.293C29.1447 27.3869 28.9492 27.426 28.8128 27.426C24.8726 27.4327 20.9325 27.4319 16.9932 27.4319H16.9924ZM16.9982 26.0528C20.7279 26.0528 24.4576 26.0553 28.1873 26.0445C28.3495 26.0445 28.5757 25.9738 28.6647 25.8556C29.9498 24.148 30.8581 22.2607 31.3114 20.1646C31.8604 17.6277 31.7872 15.1107 31.0053 12.6337C28.8444 5.78732 22.2742 1.57603 15.1367 2.45189C11.9726 2.84034 9.23022 4.15205 6.9262 6.34378C4.3743 8.77091 2.8746 11.7412 2.44873 15.248C2.21916 17.1386 2.36888 18.9976 2.85714 20.8334C3.33375 22.6275 4.15637 24.2528 5.24517 25.7525C5.4082 25.9771 5.5704 26.0603 5.84239 26.0594C9.56127 26.0511 13.2793 26.0536 16.9982 26.0536V26.0528Z" fill="white"/>
<path d="M16.9981 26.0528C13.2793 26.0528 9.56122 26.0504 5.84234 26.0587C5.57035 26.0587 5.40815 25.9763 5.24512 25.7517C4.15632 24.252 3.33369 22.6268 2.85709 20.8326C2.36883 18.9969 2.21911 17.1378 2.44868 15.2472C2.87455 11.7404 4.37508 8.77016 6.92614 6.34303C9.23017 4.15129 11.9725 2.83958 15.1366 2.45114C22.2741 1.57528 28.8443 5.78657 31.0053 12.6329C31.7872 15.11 31.8595 17.6269 31.3114 20.1639C30.8581 22.2608 29.9489 24.1472 28.6647 25.8549C28.5757 25.973 28.3494 26.0437 28.1872 26.0437C24.4575 26.0545 20.7278 26.052 16.9981 26.052V26.0528ZM16.4891 3.38772C15.4361 3.31453 13.0189 3.79696 12.2578 4.22865C12.5307 4.89407 12.8043 5.56116 13.0846 6.24405C12.7569 6.37796 12.4666 6.49608 12.1605 6.62084C11.8677 5.92298 11.5883 5.25756 11.3096 4.59297C10.0786 5.12947 8.29276 6.3422 7.72881 7.02842C8.23536 7.52748 8.74441 8.02988 9.2651 8.54308C9.02056 8.78014 8.79432 8.99973 8.53647 9.25009C8.03241 8.73606 7.52586 8.21952 7.01182 7.6955C6.0062 8.78929 5.20353 9.96709 4.598 11.3071C5.29004 11.5965 5.95795 11.8752 6.63669 12.1588C6.50111 12.4824 6.37883 12.7735 6.24908 13.0813C5.55454 12.7976 4.88746 12.5256 4.20373 12.2462C3.69718 13.6294 3.41438 15.0102 3.37279 16.4816H5.55205V17.5022H3.3678C3.42353 18.9852 3.6897 20.3785 4.20872 21.7442C4.91075 21.4556 5.57866 21.1811 6.25989 20.9016C6.39547 21.2335 6.51358 21.5238 6.63752 21.8274C5.93882 22.1202 5.27423 22.3988 4.54476 22.7049C4.96148 23.4011 5.35824 24.0491 5.7392 24.7062C5.88808 24.9624 6.07523 25.0497 6.378 25.0497C13.4606 25.0397 20.5424 25.0422 27.6249 25.0422C27.7131 25.0422 27.8038 25.0539 27.8894 25.0381C27.9593 25.0256 28.0516 24.9982 28.0849 24.9458C28.5499 24.2046 29.0057 23.4577 29.4756 22.6941C28.7162 22.3764 28.0483 22.0969 27.3646 21.8108C27.5018 21.488 27.6258 21.1994 27.7564 20.8925C28.4576 21.1786 29.1246 21.4514 29.805 21.7293C30.3074 20.346 30.5911 18.9628 30.6285 17.4855H28.4476V16.4674H30.631C30.5836 14.986 30.2966 13.5928 29.7909 12.2279C29.1022 12.5098 28.4326 12.7852 27.7439 13.0671C27.61 12.7436 27.4902 12.4533 27.3621 12.1439C28.0558 11.8527 28.7221 11.5733 29.3983 11.2896C28.7803 9.94546 27.9818 8.77432 26.9687 7.67304C26.4488 8.1979 25.9389 8.71277 25.4498 9.20601C25.2111 8.98393 24.9791 8.76933 24.7079 8.5173C25.2369 7.99827 25.7468 7.49754 26.2716 6.98267C25.1961 5.9862 24.0125 5.19102 22.6792 4.57966C22.3939 5.26255 22.1144 5.93047 21.8274 6.61752C21.5047 6.48443 21.2128 6.36382 20.9033 6.23573C21.1895 5.53787 21.4623 4.87161 21.7335 4.20702C20.6912 3.72958 18.3756 3.28625 17.503 3.39854V5.54452H16.4874V3.38606L16.4891 3.38772Z" fill="#2169CF"/>
<path d="M16.4892 3.38761V5.54608H17.5048V3.40009C18.3773 3.2878 20.693 3.73114 21.7352 4.20858C21.4632 4.87234 21.1904 5.53942 20.9051 6.23729C21.2145 6.36538 21.5065 6.48599 21.8292 6.61907C22.1162 5.93202 22.3957 5.26411 22.681 4.58122C24.0143 5.19257 25.1979 5.98775 26.2734 6.98422C25.7486 7.49909 25.2378 7.99982 24.7097 8.51885C24.9808 8.77005 25.2129 8.98548 25.4516 9.20757C25.9407 8.71432 26.4506 8.19862 26.9704 7.6746C27.9835 8.77587 28.782 9.94702 29.4001 11.2912C28.7238 11.5748 28.0576 11.8543 27.3639 12.1454C27.4911 12.454 27.6117 12.7451 27.7457 13.0687C28.4344 12.7867 29.1048 12.5114 29.7927 12.2294C30.2984 13.5944 30.5853 14.9876 30.6328 16.469H28.4493V17.4871H30.6303C30.5928 18.9643 30.3092 20.3476 29.8068 21.7308C29.1264 21.453 28.4593 21.1802 27.7581 20.894C27.6275 21.201 27.5036 21.4904 27.3664 21.8123C28.0501 22.0985 28.718 22.3779 29.4774 22.6957C29.0075 23.4601 28.5508 24.2062 28.0867 24.9473C28.0542 24.9997 27.9611 25.0272 27.8912 25.0396C27.8055 25.0554 27.7149 25.0438 27.6267 25.0438C20.5441 25.0438 13.4624 25.0413 6.37977 25.0513C6.077 25.0513 5.88902 24.9639 5.74096 24.7078C5.36001 24.0506 4.96325 23.4019 4.54653 22.7065C5.276 22.4004 5.94142 22.1218 6.63928 21.829C6.51535 21.5254 6.39724 21.2351 6.26166 20.9032C5.58126 21.1827 4.91334 21.4572 4.21049 21.7458C3.69146 20.38 3.42529 18.9868 3.36956 17.5037H5.55381V16.4831H3.37455C3.41531 15.0117 3.69895 13.631 4.2055 12.2477C4.88922 12.5272 5.55631 12.7992 6.25084 13.0828C6.3806 12.7751 6.50287 12.4839 6.63845 12.1604C5.95972 11.8767 5.2918 11.5981 4.59976 11.3086C5.20613 9.96864 6.0088 8.79084 7.01358 7.69706C7.52762 8.22108 8.03418 8.73761 8.53823 9.25165C8.79608 9.00212 9.02233 8.7817 9.26687 8.54464C8.74618 8.03143 8.2363 7.52904 7.73058 7.02997C8.29452 6.34375 10.0804 5.13102 11.3114 4.59452C11.5909 5.25912 11.8695 5.92454 12.1623 6.6224C12.4684 6.49763 12.7595 6.37869 13.0864 6.2456C12.8061 5.56271 12.5324 4.89563 12.2596 4.23021C13.0207 3.79851 15.4378 3.31525 16.4909 3.38928L16.4892 3.38761ZM11.5193 24.3493H22.4763V20.2378H11.5193V24.3493ZM17.024 5.7482C16.9675 5.84718 16.9517 5.86465 16.9475 5.88461C16.1731 9.15849 15.3896 12.4299 14.6352 15.7079C14.4796 16.3833 14.4289 17.0754 14.6651 17.7666C15.2523 19.4792 17.3085 20.0406 18.641 18.8221C19.4869 18.0485 19.6416 17.0462 19.4154 15.9891C18.9063 13.6052 18.3657 11.228 17.8192 8.8524C17.5855 7.83596 17.3027 6.83034 17.024 5.74737V5.7482ZM9.05061 16.0523H10.008V15.1015H9.05061V16.0523ZM12.0009 15.0941H11.0386V16.0473H12.0009V15.0941ZM22.0056 15.0916V16.0498H22.9613V15.0916H22.0056ZM23.9993 15.0882V16.0548H24.95V15.0882H23.9993Z" fill="white"/>
<path d="M11.5193 24.3493V20.2378H22.4763V24.3493H11.5193ZM21.459 23.3503V21.2642H12.544V23.3503H21.459Z" fill="#2169CF"/>
<path d="M17.0239 5.74829C17.3026 6.83127 17.5846 7.83689 17.8191 8.85332C18.3656 11.2289 18.9063 13.6061 19.4153 15.99C19.6407 17.0472 19.486 18.0495 18.6409 18.823C17.3084 20.0416 15.2523 19.4801 14.665 17.7675C14.428 17.0763 14.4795 16.3842 14.6351 15.7088C15.3903 12.4308 16.1739 9.15941 16.9474 5.88553C16.9524 5.86557 16.9682 5.8481 17.0239 5.74912V5.74829ZM17.0963 9.87308C17.0555 9.87474 17.014 9.87724 16.9732 9.8789C16.9582 9.92714 16.9399 9.97372 16.9283 10.0228C16.5332 11.7421 16.1206 13.458 15.7546 15.1832C15.6232 15.8045 15.54 16.4508 15.5509 17.0829C15.5617 17.6984 15.9368 18.1626 16.524 18.3847C17.0672 18.5901 17.5663 18.4653 17.988 18.0603C18.4978 17.5712 18.5744 16.9424 18.4479 16.3094C18.0171 14.1601 17.5496 12.0174 17.0963 9.87225V9.87308Z" fill="#2169CF"/>
<path d="M9.05062 16.0523V15.1016H10.008V16.0523H9.05062Z" fill="#2169CF"/>
<path d="M12.0009 15.0941V16.0473H11.0385V15.0941H12.0009Z" fill="#2169CF"/>
<path d="M22.0055 15.0917H22.9612V16.0499H22.0055V15.0917Z" fill="#2169CF"/>
<path d="M23.9994 15.0883H24.9501V16.0548H23.9994V15.0883Z" fill="#2169CF"/>
<path d="M21.459 23.3504H12.544V21.2643H21.459V23.3504Z" fill="white"/>
<path d="M17.0964 9.87305C17.5497 12.0182 18.0172 14.16 18.448 16.3102C18.5753 16.944 18.4988 17.572 17.9881 18.0611C17.5663 18.4661 17.0673 18.5909 16.5241 18.3855C15.9361 18.1634 15.5618 17.6984 15.5509 17.0837C15.5401 16.4507 15.6225 15.8045 15.7547 15.184C16.1207 13.4588 16.5333 11.7429 16.9284 10.0236C16.9392 9.97452 16.9583 9.92711 16.9733 9.8797C17.014 9.87804 17.0556 9.87554 17.0964 9.87388V9.87305ZM18.0646 17.0022C18.0704 16.3959 17.6096 15.9251 17.0074 15.9217C16.4185 15.9184 15.9477 16.3742 15.9377 16.9565C15.9277 17.5595 16.3877 18.0469 16.9783 18.0577C17.5722 18.0694 18.0588 17.5961 18.0646 17.0022Z" fill="white"/>
<path d="M18.0645 17.0023C18.0587 17.5961 17.5721 18.0694 16.9782 18.0578C16.3877 18.0461 15.9277 17.5587 15.9377 16.9565C15.9476 16.3743 16.4184 15.9184 17.0073 15.9218C17.6087 15.9251 18.0703 16.3967 18.0645 17.0023Z" fill="#2169CF"/>
</svg>
