<svg width="34" height="31" viewBox="0 0 34 31" fill="none" xmlns="http://www.w3.org/2000/svg">
<g clip-path="url(#clip0_1_1446)">
<path d="M0 1.08612C0.286557 0.285554 0.85346 1.91636e-05 1.69273 0.00357723C7.04829 0.0237396 12.4047 0.0237396 17.7621 0.00357723C18.8826 -0.00264939 19.4087 0.773899 19.4025 1.63584C19.3723 5.8308 19.3883 10.0249 19.3883 14.2198V14.5917C23.4879 15.0266 25.8425 17.2673 26.5256 21.3244H28.7666C29.8072 21.3244 30.8479 21.3297 31.8876 21.3244C32.7047 21.3182 33.3027 21.674 33.6221 22.4212C33.9414 23.1684 33.7738 23.8515 33.2086 24.4342C33.1865 24.4573 33.1687 24.4849 33.1306 24.5338C33.5369 24.9074 33.7782 25.3735 33.7747 25.9312C33.777 26.178 33.7276 26.4225 33.6298 26.6489C33.532 26.8754 33.3879 27.0788 33.2069 27.2459C33.3985 27.68 33.6505 28.0598 33.733 28.4726C33.9441 29.5017 33.1235 30.5122 32.0784 30.5184C29.3228 30.5362 26.567 30.5362 23.8108 30.5184C22.8802 30.514 22.1465 29.7544 22.1066 28.8186C22.1021 28.7296 22.1066 28.6407 22.1066 28.5179C21.734 28.6327 21.388 28.7643 21.0304 28.8444C18.5605 29.4012 16.3701 28.8373 14.452 27.181C14.3136 27.0668 14.1415 27.0014 13.9623 26.9951C9.90085 26.9844 5.83848 26.9746 1.77701 26.9951C0.929757 27.0004 0.315833 26.7451 0.00266141 25.9277L0 1.08612ZM18.5277 14.565L18.573 14.6539C18.5783 14.565 18.588 14.476 18.588 14.3924C18.588 10.1227 18.588 5.85067 18.588 1.57624C18.588 1.01763 18.3849 0.819264 17.8251 0.819264H1.58981C0.985649 0.819264 0.797568 1.00695 0.797568 1.61182C0.797568 9.53445 0.797568 17.4574 0.797568 25.3806C0.797568 25.9801 0.992746 26.1812 1.59602 26.1812C5.48125 26.1812 9.36588 26.1812 13.2499 26.1812C13.3391 26.1762 13.428 26.1664 13.5161 26.1518C13.4699 26.0709 13.4451 26.0228 13.4149 25.9739C11.8313 23.5624 11.6876 21.0629 12.9483 18.4735C13.0064 18.3443 13.0367 18.2043 13.037 18.0625C13.0468 17.375 13.037 16.6865 13.0432 15.9989C13.0476 15.5861 13.1727 15.4652 13.5817 15.4598C14.2915 15.4598 15.0012 15.4598 15.7109 15.4598C15.8308 15.4631 15.9505 15.4478 16.0658 15.4145C16.8873 15.1316 17.7071 14.8469 18.5277 14.565ZM25.681 21.8679C25.7369 18.5118 22.8935 15.5586 19.5923 15.4527C15.8839 15.3344 12.9855 18.252 12.9279 21.7105C12.9105 22.5545 13.0597 23.3937 13.3669 24.1797C13.6741 24.9657 14.1333 25.6831 14.7181 26.2905C15.3028 26.8979 16.0015 27.3835 16.7741 27.7192C17.5467 28.0549 18.3778 28.2341 19.2197 28.2466C22.7409 28.3071 25.6215 25.4633 25.681 21.8679ZM27.9619 29.7206C29.2631 29.7206 30.5675 29.7206 31.8752 29.7206C32.522 29.7206 32.9558 29.314 32.9549 28.7216C32.954 28.1292 32.5175 27.7245 31.8681 27.7236C29.248 27.7236 26.6279 27.7236 24.0078 27.7236C23.3477 27.7236 22.8979 28.147 22.9068 28.7448C22.9157 29.3274 23.3584 29.7232 24.0149 29.7232L27.9619 29.7206ZM24.5188 26.9195C24.4948 26.9043 24.5037 26.9141 24.5117 26.9141C27.01 26.9141 29.5074 26.9266 32.0056 26.9141C32.5681 26.9141 32.9673 26.4445 32.9549 25.8858C32.9507 25.6277 32.8449 25.3817 32.6607 25.2015C32.4764 25.0212 32.2285 24.9212 31.971 24.9234C29.9808 24.9145 27.9912 24.9145 26.0021 24.9234C25.9473 24.9287 25.8941 24.9453 25.846 24.9723C25.7979 24.9992 25.7559 25.0359 25.7227 25.0799C25.3155 25.6857 24.9242 26.2968 24.5188 26.9195ZM26.1725 24.1059C26.2612 24.1113 26.3499 24.121 26.4324 24.121C28.2363 24.121 30.0403 24.121 31.8442 24.121C32.5184 24.121 32.9585 23.7154 32.9558 23.1123C32.9531 22.5092 32.5122 22.1241 31.8318 22.1232H26.53L26.1725 24.1059ZM13.894 16.2782V17.0343L14.6658 16.2782H13.894Z" fill="#2169CF"/>
<path d="M24.9047 7.64811V7.23805C24.9047 5.01959 24.9047 2.80114 24.9047 0.582683C24.9047 0.112129 24.9996 0.0151717 25.4654 0.0142822C26.4395 0.0142822 27.413 0.0142822 28.386 0.0142822C28.8659 0.0142822 28.9573 0.109461 28.9573 0.606701C28.9573 2.81329 28.9573 5.02048 28.9573 7.22826V7.6659H29.3406C29.9155 7.6659 30.4939 7.64989 31.0652 7.67658C31.2152 7.6837 31.4307 7.78599 31.4866 7.90518C31.5425 8.02438 31.4866 8.26099 31.3979 8.37841C30.0471 10.0632 28.6867 11.7405 27.3169 13.4104C27.0508 13.7351 26.8175 13.736 26.5557 13.4148C25.1895 11.7414 23.8292 10.064 22.4747 8.38285C22.3816 8.26722 22.3177 8.02171 22.378 7.91408C22.449 7.78688 22.6673 7.68458 22.8269 7.67658C23.4009 7.649 23.9803 7.66679 24.5525 7.66501C24.6563 7.66413 24.7636 7.65523 24.9047 7.64811ZM26.9292 12.6018L30.2863 8.47181H28.8029C28.2644 8.47181 28.1597 8.36862 28.1597 7.83936V0.842423H25.6987V1.23292C25.6987 3.43892 25.6987 5.64522 25.6987 7.85181C25.6987 8.36595 25.594 8.47448 25.0777 8.47448H23.5695L26.9292 12.6018Z" fill="#2169CF"/>
<path d="M26.2585 16.6678C27.3311 15.9321 28.3877 15.2054 29.4461 14.4787C29.9039 14.1647 29.9784 14.1727 30.3617 14.5943C31.2879 15.6244 32.2123 16.6553 33.206 17.7619C33.206 17.5021 33.206 17.3233 33.206 17.1446C33.1998 16.8635 33.3337 16.6829 33.6105 16.6856C33.8678 16.6856 34.0027 16.8572 34.0018 17.125C34.0018 17.6685 34.0018 18.2129 34.0018 18.7564C34.0018 19.0606 33.8412 19.2011 33.5458 19.2011C33.0135 19.2011 32.4812 19.2011 31.9489 19.2011C31.6703 19.2011 31.4866 19.0739 31.4929 18.7928C31.4991 18.5117 31.6889 18.3925 31.9648 18.3997C32.1804 18.4059 32.3969 18.3997 32.6888 18.3997L29.8294 15.2161C29.7212 15.2837 29.6191 15.3415 29.5224 15.4073C28.5365 16.0845 27.5517 16.7618 26.5682 17.439C26.2018 17.6907 26.0722 17.6711 25.7741 17.342L22.3851 13.5936C22.355 13.5607 22.3266 13.526 22.2964 13.4949C22.0995 13.2938 22.0347 13.0786 22.2503 12.8544C22.4233 12.6765 22.6646 12.7068 22.882 12.9434C23.4515 13.566 24.014 14.1887 24.5791 14.8114L26.2585 16.6678Z" fill="#2169CF"/>
<path d="M18.5277 14.5649C17.7071 14.8469 16.8873 15.1315 16.0649 15.4082C15.9497 15.4415 15.83 15.4568 15.7101 15.4535C15.0003 15.458 14.2906 15.4535 13.5808 15.4535C13.1719 15.4535 13.0485 15.5799 13.0423 15.9926C13.0361 16.6802 13.0423 17.3687 13.0361 18.0563C13.0358 18.198 13.0056 18.3381 12.9474 18.4672C11.6867 21.0566 11.8304 23.5561 13.414 25.9676C13.4442 26.013 13.4691 26.0566 13.5152 26.1455C13.4271 26.1601 13.3382 26.1699 13.249 26.1749C9.3644 26.1749 5.47977 26.1749 1.59514 26.1749C0.992746 26.1749 0.79668 25.9774 0.79668 25.3743C0.79668 17.4517 0.79668 9.52877 0.79668 1.60555C0.79668 1.00068 0.984761 0.812988 1.58893 0.812988H17.8242C18.384 0.812988 18.5872 1.01135 18.5872 1.56997C18.5872 5.83965 18.5872 10.1117 18.5872 14.3861C18.5872 14.4751 18.5774 14.564 18.5721 14.6476L18.5277 14.5649ZM9.6968 2.75391H3.35972C2.84694 2.75391 2.73072 2.86688 2.73072 3.36946C2.73072 4.93323 2.73072 6.4967 2.73072 8.05988C2.73072 8.54645 2.85403 8.67098 3.33311 8.67098H16.0401C16.5342 8.67098 16.6558 8.54645 16.6558 8.03675C16.6558 6.48425 16.6558 4.93204 16.6558 3.38013C16.6558 2.874 16.536 2.75747 16.0348 2.75747L9.6968 2.75391ZM7.90116 22.4211C7.90116 22.8659 7.89672 23.3106 7.90116 23.7554C7.90559 24.0827 8.03601 24.2313 8.36071 24.2349C9.24789 24.2443 10.133 24.2443 11.016 24.2349C11.3398 24.2349 11.4827 24.0801 11.4844 23.7616C11.4898 22.8721 11.4898 21.9847 11.4844 21.0993C11.4844 20.7791 11.3416 20.6225 11.0222 20.619C10.1351 20.6095 9.24996 20.6095 8.36692 20.619C8.03157 20.619 7.90382 20.7746 7.90027 21.1269C7.89761 21.5556 7.90027 21.9888 7.90116 22.4211ZM14.8637 10.2801C14.4432 10.2801 14.0226 10.2801 13.6021 10.2801C13.1816 10.2801 13.053 10.4082 13.0494 10.8076C13.0423 11.6627 13.0423 12.517 13.0494 13.3703C13.0494 13.7466 13.1843 13.8782 13.548 13.8809C14.4216 13.8862 15.2957 13.8862 16.1705 13.8809C16.5121 13.8809 16.6549 13.7377 16.6576 13.3925C16.6635 12.5161 16.6635 11.6399 16.6576 10.764C16.6576 10.4296 16.497 10.2863 16.159 10.2819C15.7234 10.2766 15.2913 10.2801 14.8637 10.2801ZM4.5166 24.2349C4.94776 24.2349 5.37981 24.2402 5.81098 24.2349C6.19424 24.2286 6.32731 24.0961 6.32998 23.7083C6.33589 22.8543 6.33589 22.0001 6.32998 21.1456C6.32998 20.7586 6.19246 20.6181 5.81364 20.6119C4.96196 20.6047 4.10997 20.6047 3.2577 20.6119C2.88242 20.6119 2.73338 20.7666 2.7316 21.1402C2.72806 21.9942 2.72806 22.8484 2.7316 23.7029C2.7316 24.0792 2.87799 24.2251 3.25504 24.2322C3.67556 24.2411 4.09608 24.2349 4.5166 24.2349ZM6.33175 12.1027C6.33175 11.6704 6.33707 11.2381 6.33175 10.8049C6.32643 10.4109 6.19779 10.2801 5.81808 10.2783C4.95574 10.2748 4.09282 10.2748 3.22931 10.2783C2.89041 10.2783 2.73604 10.426 2.73427 10.7596C2.72717 11.6354 2.72717 12.5116 2.73427 13.3881C2.73427 13.7332 2.87621 13.8755 3.21777 13.8773C4.09194 13.8838 4.9658 13.8838 5.83937 13.8773C6.20755 13.8773 6.32554 13.7492 6.33264 13.3667C6.33707 12.9487 6.33175 12.527 6.33175 12.1027ZM2.73072 17.2352C2.73072 17.68 2.72539 18.1248 2.73072 18.5695C2.73604 18.9075 2.8842 19.0588 3.21689 19.0605C4.09105 19.0659 4.96491 19.0659 5.83848 19.0605C6.18271 19.0605 6.32465 18.9253 6.32731 18.5775C6.335 17.7011 6.335 16.8249 6.32731 15.949C6.32731 15.5932 6.19867 15.4642 5.84647 15.4615C4.9729 15.455 4.09903 15.455 3.22487 15.4615C2.86468 15.4615 2.73427 15.6039 2.72983 15.9739C2.72717 16.392 2.73072 16.8172 2.73072 17.2352ZM11.4871 12.109C11.4871 11.6642 11.4871 11.2194 11.4871 10.7747C11.4871 10.4135 11.3478 10.2792 10.9805 10.2774C10.1182 10.2739 9.25558 10.2739 8.39265 10.2774C8.03778 10.2774 7.90471 10.4118 7.90293 10.7551C7.8982 11.6446 7.8982 12.5318 7.90293 13.4166C7.90293 13.7439 8.03512 13.8747 8.37225 13.8764C9.25942 13.883 10.1442 13.883 11.0267 13.8764C11.3523 13.8764 11.4818 13.7323 11.4862 13.4032C11.4924 12.9745 11.4871 12.5422 11.4871 12.109ZM11.4871 17.2806C11.4871 16.8252 11.4871 16.3706 11.4871 15.9161C11.4871 15.6163 11.3416 15.4589 11.0435 15.458C10.1368 15.458 9.22985 15.458 8.32257 15.458C8.03956 15.458 7.90027 15.6154 7.90027 15.9027C7.90027 16.8012 7.90027 17.6996 7.90027 18.598C7.90027 18.92 8.04311 19.0579 8.37136 19.0605C9.24552 19.0659 10.1194 19.0659 10.993 19.0605C11.3478 19.0605 11.4809 18.9155 11.4836 18.5464C11.4924 18.123 11.4871 17.7014 11.4871 17.2806Z" fill="white"/>
<path d="M25.681 21.8679C25.6215 25.4634 22.7409 28.3071 19.2197 28.2466C18.3777 28.2342 17.5465 28.0549 16.7739 27.7191C16.0013 27.3834 15.3025 26.8977 14.7177 26.2902C14.133 25.6827 13.6738 24.9652 13.3666 24.1791C13.0595 23.393 12.9104 22.5537 12.9279 21.7096C12.9855 18.2511 15.8839 15.3335 19.5923 15.4518C22.8935 15.5586 25.7369 18.5118 25.681 21.8679ZM19.7103 26.0994C20.9807 25.7338 21.7153 24.9661 21.7774 23.9645C21.8502 22.7779 21.3054 22.1045 19.7369 21.441V18.4709C20.4751 18.655 20.9 19.1336 20.979 19.8727C21.0074 20.1485 21.1218 20.33 21.403 20.3175C21.6843 20.305 21.7978 20.1049 21.7801 19.8318C21.7224 18.9192 21.2744 18.2307 20.4538 17.8811C19.9215 17.6578 19.548 17.4577 19.7085 16.8137C19.7091 16.8025 19.7076 16.7914 19.7041 16.7808C19.6535 16.5646 19.5338 16.4134 19.2996 16.4143C19.0653 16.4152 18.9323 16.5593 18.9039 16.7843C18.883 16.9382 18.8795 17.094 18.8932 17.2487C18.919 17.5075 18.8462 17.6267 18.5659 17.7041C17.3238 18.0448 16.5892 19.2323 16.8802 20.4305C17.1073 21.3689 17.755 21.9097 18.6546 22.1855C18.7433 22.2139 18.879 22.318 18.8808 22.3883C18.8959 23.3285 18.8906 24.2687 18.8906 25.2134C18.2092 25.1298 17.7372 24.613 17.6228 23.856C17.5696 23.5002 17.4223 23.3472 17.1535 23.3952C16.8421 23.4513 16.7897 23.6843 16.8164 23.9485C16.8658 24.4803 17.0986 24.9783 17.4746 25.3566C17.8579 25.7471 18.3334 25.9641 18.8941 26.086C18.8941 26.3369 18.8941 26.5788 18.8941 26.8208C18.8941 27.0876 19.0245 27.2869 19.3049 27.2815C19.5852 27.2762 19.7077 27.0805 19.7112 26.8119C19.713 26.5824 19.7103 26.3493 19.7103 26.0994Z" fill="white"/>
<path d="M27.9619 29.7206H24.0149C23.3584 29.7206 22.9157 29.3274 22.9068 28.7421C22.8979 28.1444 23.3504 27.7218 24.0078 27.7209C26.6279 27.7209 29.248 27.7209 31.8681 27.7209C32.5175 27.7209 32.9531 28.1292 32.9549 28.719C32.9567 29.3087 32.5184 29.7152 31.8752 29.7206C30.5711 29.7224 29.2666 29.7224 27.9619 29.7206Z" fill="white"/>
<path d="M24.5188 26.9194C24.9242 26.2968 25.3172 25.6857 25.7227 25.0844C25.7559 25.0403 25.7979 25.0037 25.846 24.9767C25.8941 24.9498 25.9473 24.9331 26.0021 24.9278C27.9924 24.9189 29.982 24.9189 31.971 24.9278C32.2285 24.9257 32.4764 25.0256 32.6607 25.2059C32.8449 25.3862 32.9507 25.6322 32.9549 25.8903C32.9673 26.4489 32.5681 26.9168 32.0056 26.9186C29.5074 26.9292 27.01 26.9186 24.5117 26.9186C24.5037 26.9141 24.4948 26.9043 24.5188 26.9194Z" fill="white"/>
<path d="M26.1725 24.1059L26.5273 22.1232H31.8282C32.5122 22.1232 32.9496 22.5092 32.9523 23.1123C32.9549 23.7154 32.5184 24.1201 31.8433 24.121C30.0394 24.121 28.2355 24.121 26.4315 24.121C26.3464 24.121 26.2594 24.1112 26.1725 24.1059Z" fill="white"/>
<path d="M13.894 16.2755H14.6658L13.894 17.0316V16.2755Z" fill="white"/>
<path d="M26.9292 12.6018L23.5713 8.47177H25.0795C25.5949 8.47177 25.7005 8.36592 25.7005 7.84911C25.7005 5.64311 25.7005 3.43681 25.7005 1.23022V0.839722H28.1615V7.83666C28.1615 8.37037 28.2662 8.46911 28.8047 8.46911H30.2907L26.9292 12.6018Z" fill="white"/>
<path d="M9.6968 2.75392H16.0339C16.536 2.75392 16.6549 2.87401 16.6549 3.37659C16.6549 4.92909 16.6549 6.4813 16.6549 8.03321C16.6549 8.5429 16.5333 8.66743 16.0392 8.66743H3.33045C2.85137 8.66743 2.72806 8.5429 2.72806 8.05633C2.72806 6.49256 2.72806 4.92909 2.72806 3.36591C2.72806 2.86333 2.84428 2.75037 3.35706 2.75037L9.6968 2.75392ZM3.56111 7.84374H15.8041V3.57406H3.56111V7.84374Z" fill="#2169CF"/>
<path d="M7.90027 22.4212C7.90027 21.9888 7.90027 21.5557 7.90027 21.1233C7.90027 20.7675 8.03158 20.619 8.36693 20.6154C9.2541 20.6065 10.1392 20.6065 11.0222 20.6154C11.3416 20.6154 11.4827 20.7755 11.4845 21.0958C11.4892 21.9853 11.4892 22.8727 11.4845 23.7581C11.4845 24.0765 11.3398 24.2278 11.016 24.2313C10.1289 24.239 9.24375 24.239 8.36072 24.2313C8.03601 24.2313 7.9056 24.0792 7.90116 23.7519C7.89673 23.3107 7.90116 22.8659 7.90027 22.4212ZM10.6727 23.3934V21.4614H8.72091V23.3934H10.6727Z" fill="#2169CF"/>
<path d="M14.8637 10.2801C15.2949 10.2801 15.7269 10.2801 16.1581 10.2801C16.4961 10.2801 16.654 10.4278 16.6567 10.7622C16.6644 11.6381 16.6644 12.5143 16.6567 13.3907C16.6567 13.7359 16.5112 13.8773 16.1696 13.8791C15.296 13.8856 14.4219 13.8856 13.5471 13.8791C13.1834 13.8791 13.0521 13.7448 13.0485 13.3685C13.0414 12.5146 13.0414 11.6603 13.0485 10.8058C13.0485 10.4064 13.1923 10.281 13.6012 10.2783C14.0102 10.2757 14.4396 10.2801 14.8637 10.2801ZM15.8147 11.1118H13.8878V13.0545H15.8121L15.8147 11.1118Z" fill="#2169CF"/>
<path d="M4.5166 24.2349C4.09608 24.2349 3.67556 24.2412 3.25504 24.2349C2.87799 24.2278 2.73338 24.0819 2.7316 23.7057C2.72806 22.8505 2.72806 21.9963 2.7316 21.143C2.7316 20.7694 2.88242 20.6173 3.2577 20.6146C4.10997 20.6093 4.96196 20.6093 5.81364 20.6146C6.19246 20.6146 6.3282 20.7578 6.32998 21.1483C6.3353 22.0022 6.3353 22.8565 6.32998 23.711C6.32998 24.0988 6.19424 24.2314 5.81098 24.2376C5.37981 24.2403 4.94776 24.2349 4.5166 24.2349ZM5.50313 23.3997V21.4587H3.56732V23.3997H5.50313Z" fill="#2169CF"/>
<path d="M6.33175 12.1028C6.33175 12.5244 6.33707 12.9461 6.33175 13.3677C6.32465 13.7502 6.20666 13.8756 5.83848 13.8783C4.96491 13.8836 4.09105 13.8836 3.21689 13.8783C2.87533 13.8783 2.73515 13.7342 2.73338 13.389C2.72805 12.5126 2.72805 11.6364 2.73338 10.7605C2.73338 10.4269 2.88952 10.2811 3.22842 10.2793C4.09193 10.2757 4.95486 10.2757 5.81719 10.2793C6.1969 10.2793 6.32554 10.4118 6.33086 10.8059C6.33707 11.2408 6.33175 11.6732 6.33175 12.1028ZM3.56466 13.0537H5.49248V11.0967H3.56466V13.0537Z" fill="#2169CF"/>
<path d="M2.73072 17.2352C2.73072 16.8136 2.73072 16.392 2.73072 15.9703C2.73072 15.6003 2.86557 15.4607 3.22576 15.458C4.09992 15.4526 4.97378 15.4526 5.84735 15.458C6.20222 15.458 6.32554 15.587 6.3282 15.9454C6.3353 16.8219 6.3353 17.6981 6.3282 18.574C6.3282 18.9218 6.18359 19.0561 5.83937 19.057C4.9658 19.0611 4.09194 19.0611 3.21778 19.057C2.88509 19.057 2.73693 18.904 2.7316 18.566C2.72539 18.1221 2.73072 17.6782 2.73072 17.2352ZM3.56643 16.2754V18.2324H5.49249V16.2754H3.56643Z" fill="#2169CF"/>
<path d="M11.4871 12.1089C11.4871 12.5421 11.4915 12.9744 11.4871 13.4067C11.4827 13.7359 11.3531 13.8773 11.0276 13.88C10.1404 13.8871 9.25558 13.8871 8.37314 13.88C8.03601 13.88 7.9056 13.7474 7.90382 13.4201C7.8985 12.5306 7.8985 11.6434 7.90382 10.7587C7.90382 10.4153 8.04311 10.2828 8.39354 10.281C9.25587 10.2774 10.1185 10.2774 10.9814 10.281C11.3487 10.281 11.4844 10.4171 11.488 10.7782C11.4924 11.2221 11.4871 11.666 11.4871 12.1089ZM10.6709 13.0616V11.1109H8.71913V13.0616H10.6709Z" fill="#2169CF"/>
<path d="M11.4871 17.2806C11.4871 17.7013 11.4871 18.123 11.4871 18.5446C11.4871 18.9137 11.3531 19.057 10.9965 19.0587C10.1223 19.0629 9.24848 19.0629 8.37491 19.0587C8.04666 19.0587 7.9056 18.9182 7.90382 18.5962C7.8985 17.6978 7.90382 16.7994 7.90382 15.901C7.90382 15.6172 8.04311 15.4615 8.32611 15.4562C9.2328 15.4515 10.1398 15.4515 11.0471 15.4562C11.3443 15.4562 11.4907 15.6145 11.4907 15.9143C11.4862 16.3724 11.4871 16.8252 11.4871 17.2806ZM8.71647 18.2324H10.6683V16.2834H8.71647V18.2324Z" fill="#2169CF"/>
<path d="M19.7103 26.0993C19.7103 26.3493 19.7103 26.5824 19.7103 26.811C19.7103 27.0778 19.5817 27.2762 19.304 27.2806C19.0263 27.2851 18.8977 27.0894 18.8932 26.8199C18.8879 26.5779 18.8932 26.336 18.8932 26.0851C18.3361 25.9633 17.8606 25.7462 17.4737 25.3557C17.0968 24.9762 16.8639 24.4766 16.8155 23.9432C16.7889 23.6763 16.8412 23.4459 17.1526 23.3899C17.4187 23.3418 17.5687 23.4931 17.6219 23.8506C17.7364 24.6076 18.2083 25.1244 18.8897 25.208C18.8897 24.2634 18.895 23.3232 18.8799 22.3829C18.8799 22.3127 18.7442 22.205 18.6537 22.1801C17.7541 21.9044 17.1065 21.3636 16.8793 20.4251C16.5901 19.2269 17.3229 18.0394 18.565 17.6988C18.8453 17.6214 18.9198 17.5022 18.8923 17.2433C18.8786 17.0886 18.8822 16.9329 18.903 16.779C18.9314 16.5539 19.0653 16.4107 19.2987 16.409C19.532 16.4072 19.6535 16.5593 19.7032 16.7754C19.7067 16.786 19.7082 16.7972 19.7076 16.8083C19.5471 17.4559 19.9241 17.6561 20.4529 17.8758C21.2735 18.2227 21.7215 18.9138 21.7792 19.8265C21.7969 20.0996 21.6852 20.2979 21.4021 20.3122C21.1191 20.3264 21.0065 20.1449 20.9781 19.8674C20.9027 19.1282 20.4777 18.6496 19.736 18.4655V21.4427C21.3019 22.1063 21.8466 22.777 21.7765 23.9663C21.7153 24.9661 20.9852 25.7338 19.7103 26.0993ZM19.7378 22.3322V25.2241C20.483 25.0462 20.9932 24.4377 20.9799 23.7599C20.9665 23.0821 20.4644 22.4959 19.7378 22.3322ZM18.8666 18.4797C18.1445 18.6114 17.6157 19.2323 17.6184 19.9234C17.621 20.6146 18.1507 21.231 18.8666 21.3582V18.4797Z" fill="#2169CF"/>
<path d="M3.56111 7.84378V3.5741H15.8041V7.84378H3.56111Z" fill="white"/>
<path d="M10.6727 23.3935H8.72091V21.4614H10.6727V23.3935Z" fill="white"/>
<path d="M15.8112 11.1118V13.0545H13.8878V11.1118H15.8112Z" fill="white"/>
<path d="M5.50313 23.3997H3.56732V21.4587H5.50313V23.3997Z" fill="white"/>
<path d="M3.56466 13.0563V11.0994H5.49248V13.0563H3.56466Z" fill="white"/>
<path d="M3.56643 16.2755H5.49248V18.2324H3.56643V16.2755Z" fill="white"/>
<path d="M10.6709 13.0617H8.71913V11.111H10.6709V13.0617Z" fill="white"/>
<path d="M8.71647 18.2324V16.2834H10.6682V18.2297L8.71647 18.2324Z" fill="white"/>
<path d="M19.7378 22.3322C20.4644 22.4958 20.9736 23.09 20.9799 23.7598C20.9861 24.4296 20.4795 25.047 19.7378 25.224V22.3322Z" fill="white"/>
<path d="M18.8666 18.4797V21.3582C18.1524 21.231 17.6201 20.6146 17.6184 19.9234C17.6166 19.2323 18.1462 18.6114 18.8666 18.4797Z" fill="white"/>
</g>
<defs>
<clipPath id="clip0_1_1446">
<rect width="34" height="30.5255" fill="white"/>
</clipPath>
</defs>
</svg>
