<svg width="102" height="99" viewBox="0 0 102 99" fill="none" xmlns="http://www.w3.org/2000/svg">
<path d="M0 40.5701C0.196092 38.8371 0.310037 37.0935 0.598876 35.3764C2.74794 22.5403 9.41772 12.7012 20.4863 5.92014C28.126 1.24043 36.5235 -0.569449 45.4298 0.153972C63.0171 1.57961 78.0791 14.4501 82.3083 31.5632C82.3799 31.8467 82.4726 32.1276 82.5786 32.4853C84.7992 32.4853 87.0066 32.4853 89.2166 32.4853C89.5796 32.4853 89.9851 32.3873 90.2978 32.5145C90.8145 32.7212 91.5034 32.9755 91.6836 33.3969C91.8638 33.8156 91.673 34.5999 91.3551 34.9921C89.5637 37.1968 87.6876 39.3326 85.8406 41.4923C84.937 42.547 84.0493 43.6122 83.1271 44.6483C82.2659 45.6155 81.4842 45.6049 80.6309 44.6165C77.9148 41.4632 75.1854 38.3177 72.5276 35.114C72.1698 34.6847 71.926 33.805 72.1301 33.3651C72.3368 32.9225 73.1529 32.5542 73.7227 32.5251C75.6279 32.4217 77.5438 32.4853 79.6054 32.4853C79.457 31.8838 79.3696 31.3803 79.2132 30.9007C74.2473 15.6161 63.8677 6.22753 48.0956 3.37359C27.5933 -0.338908 7.65289 13.6711 3.633 34.2289C3.23022 36.2906 3.16132 38.4211 2.94403 40.5198C2.92018 40.7503 2.92813 40.9809 2.92813 41.2141C2.92548 42.0567 2.77179 42.8438 1.82578 43.0955C0.861215 43.3499 0.386884 42.7007 0 41.9613V40.5728L0 40.5701ZM81.8976 41.7838C83.7287 39.64 85.4882 37.5837 87.3113 35.4532H76.4759C78.3202 37.6076 80.0559 39.6347 81.8976 41.7838Z" fill="#2169CF"/>
<path d="M21.7742 43.0186C21.7742 42.5867 21.7742 42.2316 21.7742 41.8765C21.7848 38.1402 21.7133 34.4038 21.8246 30.6728C22.1107 21.1464 29.7557 12.9053 39.245 11.7976C50.0989 10.5283 59.5988 17.5161 61.5994 28.2799C61.822 29.4724 61.8591 30.7099 61.8697 31.9288C61.9042 35.5963 61.883 39.2638 61.883 42.9789C63.1337 43.1034 64.3527 43.1273 65.5319 43.3605C69.1198 44.0707 71.7485 46.127 73.516 49.3042C74.0274 50.2264 73.8552 51.0293 73.1053 51.4586C72.3554 51.8905 71.6081 51.6175 71.0728 50.6795C69.2179 47.4228 66.4223 45.8885 62.6806 45.8964C48.7978 45.9203 34.915 45.9044 21.0322 45.907C15.3244 45.907 11.5324 49.6937 11.5271 55.4069C11.5191 65.8846 11.5138 76.3649 11.5297 86.8426C11.5377 91.57 14.442 95.1579 18.9441 96.0271C19.6172 96.157 20.3247 96.1543 21.0163 96.1543C34.8991 96.1622 48.7819 96.1066 62.6647 96.1861C67.673 96.2153 71.1735 92.8605 71.8837 89.0738C72.0957 87.9502 72.04 86.7737 72.0983 85.621C72.1195 85.1917 72.0877 84.7571 72.1407 84.3358C72.2414 83.5329 72.7476 83.0691 73.5372 83.0718C74.2871 83.0718 74.8145 83.5461 74.894 84.2801C75.673 91.5912 72.1513 97.3812 65.1424 98.8068C64.3394 98.9711 63.4994 98.9897 62.6753 98.9897C48.7581 99.0003 34.8435 99.0056 20.9262 98.995C13.8484 98.9897 8.73939 93.8701 8.73939 86.8055C8.73674 76.2271 8.73409 65.6514 8.73939 55.073C8.74204 49.0684 12.7275 44.2985 18.6473 43.2465C19.6145 43.0743 20.6162 43.0981 21.7742 43.0213V43.0186ZM59.0662 43.0398C59.0662 38.8133 59.0741 34.6847 59.0582 30.5562C59.0582 29.9971 58.9681 29.4353 58.8701 28.8841C57.2483 19.7128 49.2298 13.6525 39.9127 14.5455C31.4887 15.3538 24.6573 22.7761 24.5857 31.2293C24.5566 34.8967 24.5778 38.5642 24.5804 42.2316C24.5804 42.486 24.6202 42.7378 24.644 43.0186H32.6838C32.6838 42.5973 32.6838 42.2422 32.6838 41.8871C32.6838 38.6834 32.6785 35.4771 32.6891 32.2733C32.6918 31.5473 32.6785 30.8079 32.8084 30.1004C33.6643 25.373 37.9439 22.1189 42.6925 22.5456C47.3563 22.9643 50.9495 26.9364 50.9681 31.7248C50.984 35.1273 50.9707 38.5324 50.9707 41.9348C50.9707 42.2873 50.9707 42.6397 50.9707 43.0398H59.0635H59.0662ZM48.1486 43.0266C48.1486 38.9829 48.3526 34.9762 48.0876 31.004C47.8571 27.5645 44.6719 25.0656 41.4894 25.3227C38.0048 25.6036 35.5007 28.378 35.4874 31.9739C35.4821 33.858 35.4874 35.742 35.4874 37.6261C35.4874 39.4042 35.4874 41.1849 35.4874 43.0266H48.1512H48.1486Z" fill="#2169CF"/>
<path d="M36.3407 81.9085C34.5414 81.9085 32.8296 81.8979 31.1204 81.9112C29.3211 81.9244 27.649 81.5402 26.2048 80.406C24.5062 79.0731 23.4251 77.3507 23.3986 75.1778C23.335 69.9575 23.2846 64.7346 23.4118 59.5169C23.5019 55.8548 26.5679 53.0088 30.2433 52.8471C30.54 52.8339 30.8368 52.8286 31.1363 52.8286C51.9883 52.8286 72.8403 52.8577 93.6923 52.8021C97.7917 52.7915 100.296 55.2665 101.051 57.7044C101.34 58.6345 101.475 59.6468 101.486 60.6219C101.531 65.1162 101.515 69.6104 101.502 74.1046C101.488 78.8081 98.4833 81.8582 93.7718 81.9006C89.4101 81.9377 85.0483 81.9085 80.6866 81.9085C70.6727 81.9085 60.6614 81.9165 50.6474 81.8926C49.8975 81.8926 49.3569 82.1046 48.8217 82.6293C45.6126 85.7747 42.3665 88.883 39.1469 92.0205C38.5904 92.5637 38.0127 92.9957 37.2257 92.6644C36.4414 92.3332 36.3327 91.6098 36.3354 90.8387C36.3513 88.2603 36.3407 85.6846 36.3407 83.1063C36.3407 82.7485 36.3407 82.3908 36.3407 81.9085ZM39.1867 88.0695C42.0856 85.2633 44.7647 82.7194 47.3801 80.1092C48.1459 79.3461 48.9409 79.0599 50.0115 79.0599C64.6495 79.089 79.2901 79.0811 93.9281 79.0758C96.7847 79.0758 98.6184 77.303 98.6343 74.4862C98.6608 69.6952 98.6661 64.9042 98.6291 60.1132C98.6105 57.4712 96.7423 55.6348 94.1083 55.6322C72.9595 55.6242 51.8107 55.6242 30.6619 55.6322C28.0492 55.6322 26.1677 57.5242 26.1571 60.1343C26.1412 64.9598 26.1386 69.7826 26.1571 74.6081C26.1677 77.1705 28.0359 79.044 30.5904 79.0731C32.6732 79.097 34.7534 79.0784 36.8362 79.0811C38.8422 79.0811 39.1814 79.4229 39.1814 81.4527C39.1814 83.5568 39.1814 85.6634 39.1814 88.0695H39.1867Z" fill="#2169CF"/>
<path d="M81.8978 41.7838C80.0561 39.6321 78.323 37.6076 76.4761 35.4532H87.3115C85.4884 37.5864 83.7315 39.6427 81.8978 41.7838Z" fill="white"/>
<path d="M59.066 43.0399H50.9732C50.9732 42.6397 50.9732 42.2873 50.9732 41.9349C50.9732 38.5324 50.9838 35.1273 50.9706 31.7248C50.9494 26.9391 47.3561 22.9643 42.6949 22.5456C37.9463 22.119 33.6668 25.373 32.8108 30.1004C32.6836 30.808 32.6942 31.5473 32.6916 32.2733C32.681 35.4771 32.6863 38.6834 32.6863 41.8872C32.6863 42.2422 32.6863 42.5947 32.6863 43.0187H24.6465C24.6227 42.7378 24.5829 42.486 24.5829 42.2316C24.5829 38.5642 24.5591 34.8967 24.5882 31.2293C24.6571 22.7761 31.4885 15.3538 39.9152 14.5456C49.2322 13.6525 57.2508 19.7129 58.8725 28.8841C58.9706 29.4353 59.058 29.9997 59.0607 30.5562C59.0766 34.6847 59.0686 38.8106 59.0686 43.0399H59.066Z" fill="white"/>
<path d="M48.1486 43.0266H35.4848C35.4848 41.1849 35.4848 39.4069 35.4848 37.6261C35.4848 35.7421 35.4795 33.858 35.4848 31.9739C35.4954 28.378 38.0022 25.6036 41.4868 25.3227C44.672 25.0656 47.8571 27.5645 48.085 31.004C48.35 34.9762 48.146 38.9802 48.146 43.0266H48.1486Z" fill="white"/>
<path d="M39.1866 88.0695C39.1866 85.6607 39.1866 83.5567 39.1866 81.4527C39.1866 79.4229 38.8474 79.0811 36.8414 79.0811C34.7586 79.0811 32.6784 79.097 30.5956 79.0731C28.0411 79.044 26.1729 77.1705 26.1623 74.608C26.1438 69.7826 26.1438 64.9598 26.1623 60.1343C26.1703 57.5242 28.0517 55.6348 30.6672 55.6322C51.816 55.6216 72.9648 55.6216 94.1136 55.6322C96.7449 55.6322 98.6131 57.4685 98.6343 60.1131C98.6687 64.9041 98.6661 69.6951 98.6396 74.4861C98.6237 77.3056 96.7899 79.0758 93.9334 79.0758C79.2954 79.0811 64.6547 79.089 50.0167 79.0599C48.9461 79.0599 48.1512 79.3434 47.3853 80.1092C44.7699 82.7194 42.0909 85.2633 39.1919 88.0695H39.1866ZM60.9899 69.8117C60.9899 71.1658 60.9634 72.2867 60.9978 73.405C61.027 74.3775 61.6153 74.9949 62.4155 74.987C63.2211 74.9764 63.7961 74.3537 63.8226 73.3811C63.8518 72.247 63.8306 71.1128 63.8306 69.8091C64.9011 70.4265 65.7782 70.9353 66.6607 71.4361C67.7445 72.0535 68.5129 71.9661 68.9926 71.187C69.4748 70.4053 69.1728 69.6554 68.1075 69.0247C67.2092 68.4921 66.3029 67.978 65.2456 67.3632C66.3162 66.7379 67.2489 66.2026 68.1684 65.6514C69.1675 65.0552 69.4536 64.3132 69.0058 63.5474C68.5606 62.7869 67.7524 62.6597 66.772 63.2108C65.8365 63.7382 64.9117 64.2814 63.8306 64.9041C63.8306 63.8124 63.8306 62.9273 63.8306 62.0422C63.8306 60.4444 63.4172 59.766 62.4314 59.7448C61.4139 59.7209 60.9872 60.4126 60.9846 62.0846C60.9846 62.9591 60.9846 63.8336 60.9846 64.8988C59.8584 64.2549 58.9389 63.6905 57.9796 63.2029C57.5927 63.0068 57.0283 62.7816 56.705 62.9273C56.2598 63.1261 55.7034 63.6481 55.6795 64.0615C55.6504 64.5331 56.0399 65.193 56.448 65.4924C57.386 66.1787 58.4486 66.6928 59.5934 67.3553C58.446 68.0204 57.4735 68.5689 56.5169 69.1413C55.6318 69.6713 55.3774 70.3762 55.7723 71.1155C56.1777 71.876 56.9965 72.0641 57.8975 71.5686C58.8726 71.0333 59.8319 70.4716 60.9899 69.8091V69.8117ZM45.2363 64.9253C45.2363 63.5845 45.2469 62.4689 45.2336 61.3533C45.2204 60.3357 44.7275 59.766 43.8875 59.7474C43.0077 59.7289 42.4751 60.3278 42.4618 61.3851C42.4486 62.4954 42.4592 63.6057 42.4592 64.8988C41.3171 64.2496 40.3207 63.6984 39.3376 63.1234C38.7387 62.7736 38.1637 62.6994 37.594 63.1552C36.7858 63.8018 36.9262 64.9333 37.9093 65.5295C38.903 66.131 39.9206 66.7008 41.0468 67.3526C39.8914 68.0231 38.9004 68.5477 37.965 69.1625C37.6099 69.3957 37.1886 69.8144 37.1568 70.1774C37.1197 70.6279 37.329 71.301 37.6682 71.5236C38.0445 71.7727 38.7652 71.8071 39.1945 71.6163C40.2836 71.1287 41.2932 70.4636 42.3717 69.8515C42.4221 70.0688 42.4486 70.1297 42.4486 70.1933C42.4539 71.1499 42.4539 72.1092 42.4592 73.0658C42.4645 74.3113 42.9256 74.9525 43.8265 74.9764C44.7328 75.0002 45.231 74.351 45.2363 73.1214C45.2416 72.0774 45.2363 71.0307 45.2363 69.7905C46.3519 70.4239 47.2952 71.0015 48.2784 71.4997C48.6652 71.6958 49.2138 71.9131 49.5556 71.7806C49.9743 71.619 50.5069 71.1155 50.5334 70.7286C50.5652 70.241 50.2658 69.5494 49.8736 69.2579C48.9249 68.5451 47.8411 68.0125 46.7043 67.3447C47.8252 66.6902 48.7977 66.1416 49.7517 65.5613C50.5944 65.0472 50.8514 64.2814 50.4672 63.5686C50.067 62.8266 49.2403 62.6544 48.3367 63.1526C47.3615 63.6905 46.4022 64.2523 45.2336 64.92L45.2363 64.9253ZM83.779 67.3526C84.9555 66.6716 85.9678 66.1125 86.9482 65.5083C87.7035 65.0419 87.926 64.2258 87.5445 63.5527C87.1549 62.8611 86.3785 62.665 85.5729 63.0704C85.2205 63.2479 84.8866 63.4652 84.5421 63.6613C83.8479 64.0562 83.1509 64.4457 82.3295 64.9094C82.3295 63.5898 82.3401 62.5007 82.3295 61.4116C82.3189 60.3278 81.8154 59.7421 80.9356 59.7501C80.0638 59.758 79.563 60.3569 79.555 61.4354C79.5444 62.5378 79.555 63.6401 79.555 64.9174C78.4341 64.2735 77.5014 63.7302 76.558 63.2029C75.5855 62.6597 74.7614 62.8054 74.3374 63.5765C73.9267 64.3238 74.2102 65.0552 75.143 65.6117C76.0916 66.1761 77.0456 66.7326 78.1267 67.3659C77.0032 68.0178 76.0201 68.5504 75.082 69.1519C74.7428 69.3692 74.3136 69.7296 74.2738 70.0635C74.2208 70.5219 74.3559 71.2294 74.6739 71.4494C75.0714 71.725 75.824 71.8151 76.2692 71.6243C77.3662 71.1526 78.3785 70.4769 79.555 69.8091C79.555 71.1181 79.4861 72.2417 79.5868 73.3493C79.6319 73.8449 79.8942 74.4729 80.2732 74.7538C81.1556 75.4083 82.2871 74.7061 82.3215 73.5322C82.3586 72.3371 82.3295 71.142 82.3295 69.7852C83.5113 70.4636 84.4732 71.0333 85.4537 71.5686C86.3467 72.0588 87.0887 71.9078 87.5233 71.1923C87.9658 70.4663 87.7035 69.6713 86.8104 69.1307C85.8591 68.5557 84.8946 68.0045 83.7816 67.3526H83.779Z" fill="white"/>
<path d="M60.9901 69.8117C59.8321 70.4715 58.8728 71.036 57.8976 71.5712C56.9967 72.0668 56.1778 71.876 55.7724 71.1181C55.3776 70.3788 55.632 69.6739 56.517 69.1439C57.4736 68.5716 58.4462 68.023 59.5936 67.3579C58.4488 66.6954 57.3862 66.1814 56.4481 65.495C56.0374 65.1956 55.6505 64.5358 55.6797 64.0641C55.7062 63.6507 56.2626 63.1287 56.7052 62.9299C57.0285 62.7842 57.5929 63.0094 57.9798 63.2055C58.939 63.6931 59.8585 64.2575 60.9848 64.9015C60.9848 63.8389 60.9848 62.9644 60.9848 62.0873C60.9848 60.4152 61.414 59.7262 62.4316 59.7474C63.4147 59.7686 63.8281 60.4496 63.8307 62.0449C63.8307 62.9299 63.8307 63.8124 63.8307 64.9068C64.9119 64.284 65.8367 63.7408 66.7721 63.2135C67.7526 62.6597 68.5634 62.7869 69.006 63.55C69.4538 64.3158 69.165 65.0578 68.1686 65.654C67.2465 66.2052 66.3163 66.7405 65.2458 67.3659C66.3031 67.978 67.2093 68.4947 68.1077 69.0273C69.1729 69.658 69.475 70.4106 68.9927 71.1897C68.5104 71.9714 67.7446 72.0562 66.6608 71.4387C65.7784 70.9379 64.9013 70.4265 63.8307 69.8117C63.8307 71.1181 63.8519 72.2523 63.8228 73.3838C63.7963 74.3563 63.2239 74.979 62.4157 74.9896C61.6154 75.0002 61.0298 74.3828 60.998 73.4076C60.9636 72.2894 60.9901 71.1685 60.9901 69.8144V69.8117Z" fill="#2169CF"/>
<path d="M45.2363 64.9253C46.4049 64.2576 47.3642 63.6958 48.3394 63.1578C49.2456 62.657 50.0697 62.8293 50.4699 63.5739C50.8541 64.2867 50.5944 65.0525 49.7544 65.5666C48.8004 66.1469 47.8279 66.6955 46.707 67.35C47.8438 68.0178 48.9276 68.553 49.8763 69.2632C50.2658 69.5573 50.5653 70.249 50.5361 70.7339C50.5123 71.1208 49.977 71.6243 49.5583 71.7859C49.2165 71.9184 48.668 71.7011 48.2811 71.505C47.298 71.0042 46.3546 70.4292 45.239 69.7958C45.239 71.036 45.2443 72.0827 45.239 73.1267C45.2337 74.3536 44.7355 75.0029 43.8292 74.9817C42.9283 74.9578 42.4672 74.3165 42.4619 73.0711C42.4593 72.1145 42.4566 71.1552 42.4513 70.1986C42.4513 70.135 42.4248 70.0714 42.3745 69.8568C41.296 70.4716 40.2863 71.1367 39.1972 71.6216C38.768 71.8124 38.0498 71.7779 37.6709 71.5289C37.3344 71.3063 37.1224 70.6332 37.1595 70.1827C37.1913 69.8197 37.6126 69.401 37.9677 69.1678C38.9004 68.553 39.8915 68.0284 41.0495 67.3579C39.9233 66.7061 38.9084 66.1363 37.912 65.5348C36.9289 64.9386 36.7885 63.8071 37.5967 63.1605C38.1664 62.7047 38.7415 62.7789 39.3403 63.1287C40.3234 63.7037 41.3198 64.2549 42.4619 64.9041C42.4619 63.611 42.4513 62.5007 42.4646 61.3904C42.4778 60.3331 43.0104 59.7342 43.8902 59.7527C44.7302 59.7686 45.2231 60.341 45.2363 61.3586C45.2522 62.4742 45.239 63.5898 45.239 64.9306L45.2363 64.9253Z" fill="#2169CF"/>
<path d="M83.779 67.3526C84.892 68.0045 85.8565 68.5557 86.8078 69.1307C87.7008 69.6713 87.9632 70.4662 87.5207 71.1923C87.0834 71.9078 86.3415 72.0588 85.4511 71.5686C84.4706 71.0307 83.5087 70.4609 82.3269 69.7852C82.3269 71.142 82.356 72.3397 82.3189 73.5322C82.2818 74.7061 81.153 75.4083 80.2706 74.7538C79.8916 74.4729 79.6293 73.8449 79.5842 73.3493C79.4835 72.2417 79.5524 71.1155 79.5524 69.8091C78.3759 70.4768 77.3663 71.1552 76.2666 71.6243C75.8214 71.815 75.0688 71.7223 74.6713 71.4494C74.3533 71.2294 74.2182 70.5219 74.2712 70.0635C74.3109 69.7296 74.7402 69.3692 75.0794 69.1519C76.0175 68.5504 76.9979 68.0177 78.1241 67.3659C77.043 66.7299 76.089 66.1761 75.1404 65.6116C74.2102 65.0552 73.9241 64.3238 74.3348 63.5765C74.7588 62.8028 75.5829 62.657 76.5554 63.2029C77.4961 63.7302 78.4289 64.2761 79.5524 64.9174C79.5524 63.6401 79.5445 62.5378 79.5524 61.4354C79.563 60.3569 80.0612 59.758 80.933 59.7501C81.8128 59.7421 82.3136 60.3278 82.3269 61.4116C82.3401 62.5007 82.3269 63.5898 82.3269 64.9094C83.1483 64.4457 83.8453 64.0535 84.5395 63.6613C84.884 63.4652 85.2179 63.2479 85.5703 63.0704C86.3759 62.665 87.1497 62.8611 87.5419 63.5527C87.9208 64.2258 87.7008 65.0419 86.9456 65.5083C85.9652 66.1151 84.9556 66.6716 83.7764 67.3526H83.779Z" fill="#2169CF"/>
</svg>
