<svg width="60" height="58" viewBox="0 0 60 58" fill="none" xmlns="http://www.w3.org/2000/svg">
<g clip-path="url(#clip0_1_7845)">
<path d="M14.1987 17.3115C11.8255 14.3768 11.6874 11.5753 13.7086 9.19118C15.2639 7.35455 18.426 6.20826 21.7101 8.488C22.1728 7.05754 23.034 5.93373 24.3162 5.17275C26.7183 3.74872 29.4626 4.18379 31.6107 6.32225C33.6545 8.35635 35.6934 10.3969 37.7115 12.4567C38.0601 12.8131 38.3124 12.8596 38.7992 12.6798C40.8028 11.9381 42.7486 12.1099 44.3023 13.6495C47.9993 17.3131 51.7767 20.9158 55.2232 24.8074C58.668 28.6974 60.0401 33.4736 59.7477 38.664C59.3701 45.3491 56.3945 50.6727 50.9123 54.4744C46.5501 57.5007 41.6544 58.5394 36.3683 57.7367C31.5047 56.9982 27.504 54.7185 24.0816 51.2491C19.6182 46.7233 15.1017 42.2522 10.6028 37.7617C8.82257 35.9845 8.17506 33.9022 8.972 31.4828C9.56006 29.6976 10.8583 28.5641 12.7751 27.8738C11.0141 26.2972 9.8557 24.5039 10.1931 22.1102C10.5289 19.7245 11.9203 18.1753 14.2003 17.3083L14.1987 17.3115ZM40.8591 25.0819C39.6203 23.873 38.3863 22.6946 37.1797 21.4889C35.4524 19.7631 35.0748 17.7434 35.8943 15.4605C35.973 15.2421 35.9393 14.8536 35.7931 14.7059C33.5565 12.4486 31.3328 10.1737 29.0191 7.99513C27.6148 6.67224 25.2642 7.35295 24.6279 9.17352C24.223 10.3294 24.5572 11.3168 25.4008 12.1629C28.8938 15.6579 32.3916 19.1482 35.8734 22.6561C36.1819 22.9675 36.4968 23.3528 36.6109 23.759C36.7908 24.3964 36.5418 24.9599 35.9344 25.3227C35.25 25.7305 34.6346 25.5603 34.114 25.0562C32.9058 23.8858 31.7248 22.685 30.5342 21.4969C27.0958 18.0613 23.6494 14.632 20.2239 11.1819C19.3482 10.2989 18.336 9.97143 17.1647 10.3294C15.1611 10.9411 14.61 13.4376 16.1444 14.9933C18.6381 17.5219 21.1638 20.0167 23.6767 22.5276C26.4548 25.3019 29.2456 28.0648 31.9964 30.8679C32.3611 31.2388 32.6664 31.7895 32.7387 32.292C32.827 32.9101 32.3836 33.3981 31.7811 33.6213C31.1271 33.8621 30.5857 33.6004 30.1197 33.1364C28.0037 31.0221 25.8876 28.9061 23.7715 26.7917C21.8258 24.8475 19.88 22.9017 17.9311 20.9591C17.0972 20.1275 16.0898 19.8803 14.9844 20.219C13.9191 20.5449 13.3102 21.3396 13.1206 22.4201C12.9261 23.5278 13.4483 24.3659 14.2035 25.1188C18.8164 29.7233 23.4197 34.3373 28.0213 38.953C28.2463 39.1777 28.476 39.4121 28.6431 39.6786C29.0223 40.2887 28.9082 41.0272 28.3828 41.4912C27.8349 41.9744 27.2276 42.0081 26.6235 41.6132C26.3584 41.4398 26.1334 41.2022 25.9085 40.9758C22.8043 37.8837 19.7081 34.7852 16.6007 31.698C15.2768 30.3831 13.4821 30.3044 12.3043 31.4587C11.4014 32.345 11.2391 34.2859 12.5936 35.6169C17.335 40.2807 21.9833 45.0408 26.7327 49.6966C31.5288 54.399 37.2937 56.0269 43.8026 54.4327C51.5663 52.5302 56.7592 45.5819 56.7881 37.6301C56.8058 32.6371 54.8761 28.3988 51.3783 24.8652C48.5601 22.0171 45.7194 19.1915 42.8867 16.3579C41.8279 15.2999 40.3835 15.1875 39.4741 16.0882C38.3959 17.1558 38.4184 18.5638 39.5431 19.6892C40.9024 21.049 42.2778 22.3944 43.6323 23.759C44.5867 24.7207 44.5529 25.3629 43.6885 26.3775C43.1952 26.9571 42.7148 27.6009 42.4352 28.2992C41.6897 30.1535 42.032 31.8906 43.2177 33.4961C43.8106 34.2988 43.6853 35.2107 42.996 35.6907C42.2923 36.182 41.3796 36.0198 40.8478 35.1994C40.3465 34.424 39.8532 33.61 39.548 32.7463C38.5968 30.054 39.1383 27.5543 40.8607 25.0819H40.8591Z" fill="#2169CF"/>
<path d="M53.8028 10.7741C53.896 11.5753 53.663 12.2528 52.9094 12.5739C52.3133 12.8291 51.6417 12.7424 51.2497 12.1773C50.9942 11.8097 50.8255 11.3023 50.8159 10.8528C50.7179 6.81993 47.3229 3.18198 43.0409 2.9524C41.6608 2.87855 41.198 2.50449 41.1177 1.61346C41.0357 0.691935 41.6704 -0.0176731 42.6666 -1.31439e-05C45.737 0.0593884 48.3737 1.18802 50.5476 3.35056C52.6026 5.39429 53.6276 7.90521 53.8044 10.7741H53.8028Z" fill="#2169CF"/>
<path d="M10.8036 53.6685C4.878 53.4052 0.194399 48.6852 -1.45385e-05 42.782C-0.0337558 41.7368 0.523778 41.0272 1.40748 40.9919C2.30242 40.9566 2.89209 41.5843 2.96439 42.6487C3.2777 47.3061 6.48312 50.5154 11.0478 50.7402C12.1324 50.7931 12.7992 51.4337 12.7285 52.3552C12.6722 53.0873 11.9299 53.9157 10.802 53.6685H10.8036Z" fill="#2169CF"/>
<path d="M5.06765 42.379C5.04997 41.4382 5.5818 40.772 6.40444 40.7013C7.20459 40.6323 7.87459 41.191 7.97743 42.1446C8.16702 43.9154 8.99769 45.1324 10.7635 45.6092C11.0945 45.6991 11.448 45.7023 11.7821 45.7826C12.616 45.9832 13.1254 46.6447 13.0306 47.3752C12.9277 48.1699 12.2642 48.6916 11.3789 48.674C8.00313 48.6033 5.1271 45.736 5.06604 42.3806L5.06765 42.379Z" fill="#2169CF"/>
<path d="M47.2778 12.9624C46.5163 12.972 45.9748 12.4824 45.8286 11.6555C45.3707 9.06757 44.7055 8.38846 42.215 7.97426C41.243 7.81211 40.716 7.16351 40.8236 6.25964C40.9184 5.46334 41.6575 4.92712 42.5717 4.99294C45.986 5.23697 48.6468 7.97105 48.7721 11.3666C48.8074 12.3025 48.1985 12.9511 47.2778 12.9624Z" fill="#2169CF"/>
<path d="M40.859 25.0819C39.1366 27.5527 38.5952 30.0524 39.5463 32.7463C39.8516 33.61 40.3449 34.424 40.8462 35.1994C41.3764 36.0214 42.2906 36.182 42.9944 35.6907C43.682 35.2107 43.8074 34.2988 43.2161 33.4961C42.0303 31.8906 41.6881 30.1535 42.4336 28.2992C42.7148 27.6009 43.1936 26.9571 43.6869 26.3775C44.5513 25.3629 44.5834 24.7207 43.6306 23.759C42.2762 22.3944 40.9008 21.049 39.5415 19.6892C38.4168 18.5638 38.3943 17.1558 39.4724 16.0882C40.3818 15.1875 41.8279 15.2983 42.8851 16.3579C45.7178 19.1915 48.5585 22.0187 51.3766 24.8652C54.8745 28.3988 56.8042 32.6371 56.7865 37.6301C56.7576 45.5819 51.5662 52.5302 43.8009 54.4327C37.2921 56.0285 31.5256 54.399 26.7311 49.6966C21.9816 45.0408 17.3334 40.2807 12.5919 35.6169C11.2374 34.2843 11.3997 32.3433 12.3027 31.4587C13.4804 30.3044 15.2751 30.3831 16.5991 31.698C19.7081 34.7836 22.8043 37.8837 25.9068 40.9758C26.1334 41.2006 26.3583 41.4398 26.6218 41.6132C27.226 42.0081 27.8317 41.9744 28.3812 41.4912C28.9066 41.0272 29.0207 40.2887 28.6415 39.6786C28.4744 39.4105 28.2446 39.1777 28.0197 38.953C23.4164 34.3389 18.8132 29.7249 14.2019 25.1188C13.4467 24.3643 12.9245 23.5278 13.1189 22.4201C13.3085 21.338 13.9175 20.5449 14.9827 20.219C16.0882 19.8803 17.0956 20.1275 17.9295 20.9591C19.8768 22.9017 21.8226 24.8475 23.7699 26.7917C25.886 28.9061 28.002 31.0221 30.1181 33.1364C30.5824 33.6004 31.1255 33.8621 31.7794 33.6213C32.3803 33.3997 32.8238 32.9101 32.737 32.292C32.6663 31.7879 32.3595 31.2388 31.9947 30.8679C29.244 28.0664 26.4531 25.3035 23.6751 22.5276C21.1622 20.0183 18.6364 17.5219 16.1428 14.9933C14.61 13.4376 15.1595 10.9411 17.163 10.3295C18.3344 9.97144 19.345 10.2989 20.2223 11.1819C23.6478 14.6321 27.0942 18.0613 30.5326 21.4969C31.7232 22.6866 32.9025 23.8859 34.1124 25.0562C34.633 25.5603 35.2483 25.7305 35.9328 25.3227C36.5401 24.9599 36.7892 24.3964 36.6092 23.759C36.4952 23.3528 36.1802 22.9675 35.8718 22.6561C32.39 19.1498 28.8921 15.6579 25.3991 12.1629C24.554 11.3184 24.2214 10.3295 24.6263 9.17353C25.2625 7.35295 27.6132 6.67224 29.0175 7.99513C31.3295 10.1737 33.5532 12.447 35.7914 14.7059C35.9376 14.8536 35.9714 15.2421 35.8926 15.4605C35.0748 17.7434 35.4508 19.7631 37.178 21.4889C38.3847 22.6946 39.617 23.873 40.8574 25.0819H40.859ZM50.3001 36.6909C50.3275 37.6911 49.9338 38.4746 49.3313 39.1938C48.6565 39.9981 48.7063 40.8699 49.4148 41.4446C50.0029 41.9231 50.9268 41.7754 51.555 41.1059C53.5329 38.9899 53.8349 35.6297 52.2507 33.2055C52.0193 32.8507 51.7382 32.5216 51.4457 32.2149C50.8416 31.5792 49.9788 31.5278 49.3731 32.064C48.7689 32.597 48.695 33.4591 49.2526 34.1366C49.8792 34.8992 50.3419 35.71 50.3017 36.6909H50.3001Z" fill="white"/>
<path d="M50.3001 36.6909C50.3403 35.71 49.8775 34.8992 49.2509 34.1366C48.6934 33.4575 48.7657 32.597 49.3714 32.064C49.9788 31.5278 50.84 31.5791 51.4441 32.2149C51.7365 32.5232 52.0161 32.8507 52.2491 33.2055C53.8349 35.6281 53.5328 38.9899 51.5533 41.1059C50.9267 41.7753 50.0013 41.923 49.4132 41.4446C48.7046 40.8683 48.6548 39.9981 49.3296 39.1938C49.9322 38.4745 50.3258 37.6911 50.2985 36.6909H50.3001Z" fill="#2169CF"/>
</g>
<defs>
<clipPath id="clip0_1_7845">
<rect width="59.7846" height="58" fill="white"/>
</clipPath>
</defs>
</svg>
