<svg width="34" height="32" viewBox="0 0 34 32" fill="none" xmlns="http://www.w3.org/2000/svg">
<path d="M33.9992 28.8872C33.8652 28.9972 33.7428 29.1284 33.5947 29.2154C32.1434 30.0598 30.6869 30.8937 29.2357 31.739C28.9696 31.8943 28.738 31.9085 28.4639 31.7488C26.995 30.8901 25.5216 30.0394 24.0438 29.1967C23.7812 29.0468 23.6703 28.8508 23.6712 28.5545C23.6765 26.8505 23.6765 25.1473 23.6712 23.4433C23.6703 23.147 23.7812 22.951 24.0447 22.8011C25.5225 21.9584 26.9959 21.1077 28.4657 20.2499C28.7239 20.1 28.9465 20.092 29.2073 20.2437C30.6771 21.0997 32.1541 21.9433 33.6248 22.7975C33.7632 22.8783 33.8759 23.0051 34 23.1098V28.8863L33.9992 28.8872ZM33.0713 24.1388C32.9959 24.1618 32.9622 24.1663 32.9356 24.1813C31.7886 24.8422 30.6381 25.4995 29.5 26.1754C29.3989 26.2358 29.3191 26.4176 29.3173 26.5445C29.304 27.7934 29.3084 29.0424 29.3102 30.2914C29.3102 30.3739 29.3279 30.4572 29.3421 30.5859C30.5716 29.8762 31.7656 29.1896 32.9524 28.4933C33.0172 28.4552 33.0651 28.3328 33.066 28.2494C33.0731 26.8904 33.0713 25.5314 33.0713 24.1388ZM25.1144 23.2748C25.1597 23.3147 25.1819 23.3404 25.2102 23.3564C26.3652 24.0243 27.5184 24.6967 28.6813 25.3514C28.7744 25.4037 28.9571 25.3789 29.0592 25.3212C30.0873 24.742 31.1083 24.1485 32.1301 23.5586C32.2712 23.477 32.4096 23.3901 32.5533 23.3041C32.5204 23.2659 32.5107 23.2446 32.4929 23.2349C31.5101 22.6654 30.5051 22.1296 29.5515 21.514C29.0423 21.1849 28.6635 21.1716 28.1464 21.5051C27.1697 22.1367 26.1381 22.684 25.1144 23.2748ZM28.3371 30.5619C28.3495 30.4909 28.3619 30.451 28.3619 30.4111C28.3628 29.0965 28.369 27.7819 28.3531 26.4682C28.3513 26.3528 28.2289 26.1967 28.1198 26.132C27.0464 25.4977 25.9651 24.8786 24.8847 24.2567C24.8137 24.2159 24.7348 24.1884 24.6266 24.1405C24.6266 25.5501 24.6221 26.9188 24.6363 28.2866C24.6372 28.3815 24.7587 28.5066 24.8554 28.5634C25.9296 29.195 27.0101 29.8168 28.0887 30.4395C28.1615 30.4812 28.2395 30.514 28.3362 30.561L28.3371 30.5619Z" fill="#2169CF"/>
<path d="M16.9944 14.6213C16.6626 14.5921 16.3317 14.5663 16.0026 14.5326C15.6389 14.4945 15.387 14.3047 15.2673 13.9561C15.1998 13.7582 15.1271 13.5587 15.0916 13.3537C15.0455 13.0876 14.9116 12.9519 14.6587 12.8437C14.4228 12.7426 14.2729 12.8118 14.0848 12.9182C13.0585 13.5019 12.9086 13.4877 12.0482 12.661C11.7386 12.3629 11.4529 12.0374 11.1771 11.7074C10.926 11.4076 10.8941 11.0696 11.091 10.721C11.178 10.5675 11.2489 10.4016 11.3545 10.2615C11.5346 10.0238 11.5709 9.78248 11.3944 9.54209C11.3066 9.42145 11.1877 9.29726 11.0547 9.24049C10.8231 9.14203 10.5668 9.10477 10.3273 9.02316C9.99374 8.90873 9.78174 8.66391 9.77021 8.31263C9.74803 7.65267 9.75158 6.99093 9.764 6.33096C9.77198 5.89897 10.0345 5.64793 10.4302 5.52374C10.5987 5.47141 10.7673 5.41109 10.9411 5.38625C11.2126 5.34811 11.3412 5.20086 11.4503 4.95248C11.5532 4.7183 11.4858 4.56573 11.3793 4.37856C10.7921 3.34869 10.8063 3.20322 11.6339 2.34366C11.924 2.04206 12.2433 1.76619 12.56 1.49209C12.8793 1.21622 13.2333 1.18606 13.6023 1.39895C13.746 1.48145 13.8906 1.56306 14.0343 1.64467C14.5621 1.94271 14.932 1.78482 15.0978 1.19049C15.3932 0.140225 15.5635 0.00450595 16.6759 7.06909e-05C17.1168 -0.00170341 17.5585 0.0302305 17.9985 0.0603902C18.3986 0.0870018 18.6416 0.321184 18.7587 0.693745C18.8119 0.862285 18.8572 1.0326 18.9042 1.20203C19.0665 1.78216 19.4488 1.93739 19.9775 1.63668C20.924 1.09913 21.0943 1.11155 21.882 1.86111C22.2014 2.16536 22.4914 2.50067 22.785 2.83065C23.0857 3.16862 23.1132 3.53852 22.8799 3.92882C22.7895 4.08051 22.7185 4.2455 22.6165 4.38832C22.4746 4.58702 22.4701 4.76443 22.5695 4.99417C22.6626 5.20973 22.7824 5.32327 23.0077 5.37561C24.1005 5.63196 24.2753 5.70736 24.2983 7.0681C24.3054 7.47526 24.2682 7.88419 24.2362 8.29134C24.2061 8.67278 23.9941 8.92204 23.6313 9.03824C23.421 9.10566 23.2099 9.17307 22.9953 9.21743C22.7815 9.26178 22.6688 9.37177 22.5748 9.57491C22.4559 9.83038 22.5056 10.0167 22.6369 10.242C23.2037 11.2177 23.1869 11.3854 22.4125 12.1988C22.1082 12.5181 21.7756 12.8118 21.4411 13.0992C21.1227 13.3724 20.7661 13.4016 20.3962 13.1888C20.2623 13.1116 20.1159 13.0504 19.9953 12.9564C19.7265 12.7452 19.4577 12.7337 19.1854 12.9289C19.0967 12.9918 19.0035 13.0805 18.9672 13.1781C18.8793 13.415 18.8279 13.6651 18.7534 13.9073C18.6372 14.2843 18.3799 14.4963 17.9852 14.5344C17.6561 14.5663 17.3261 14.593 16.9944 14.6222V14.6213ZM13.1641 2.23367C13.1064 2.27181 13.0479 2.30197 13 2.34366C12.8101 2.5122 12.615 2.67631 12.4367 2.85726C11.9053 3.39748 11.8938 3.40901 12.2823 4.05212C12.5218 4.44952 12.5662 4.83007 12.3427 5.239C12.3001 5.31617 12.2628 5.39778 12.2389 5.48205C12.12 5.91138 11.8299 6.13049 11.405 6.23693C10.6253 6.43297 10.628 6.4445 10.6253 7.27123C10.6253 7.28188 10.6253 7.29341 10.6253 7.30406C10.6262 8.14143 10.6235 8.15385 11.4228 8.3561C11.8361 8.46077 12.1129 8.67632 12.2353 9.09058C12.2752 9.22718 12.3471 9.35403 12.4039 9.4862C12.5351 9.78869 12.5272 10.0788 12.3675 10.375C11.9036 11.2355 11.9071 11.2381 12.6372 11.9309C13.1162 12.386 13.1277 12.4046 13.7034 12.0462C14.1407 11.7739 14.5567 11.7118 15.0074 11.9806C15.0632 12.0143 15.1271 12.0383 15.191 12.056C15.6212 12.1731 15.8385 12.4632 15.945 12.8889C16.1392 13.6695 16.1525 13.666 16.9748 13.6704C16.997 13.6704 17.0192 13.6704 17.0414 13.6704C17.8512 13.6633 17.8628 13.666 18.0624 12.8774C18.1662 12.4667 18.3764 12.182 18.7933 12.0622C18.9193 12.0258 19.0399 11.9655 19.1588 11.9079C19.4816 11.7526 19.7886 11.765 20.1061 11.9416C20.9311 12.3984 20.9338 12.3931 21.5875 11.7127C21.6186 11.6808 21.6478 11.6479 21.6789 11.616C22.0905 11.176 22.1109 11.1627 21.7889 10.6571C21.4873 10.1834 21.4039 9.72748 21.7144 9.23428C21.7374 9.19791 21.7516 9.15445 21.7631 9.11187C21.8794 8.68431 22.1623 8.45988 22.5917 8.35344C23.3785 8.15917 23.3749 8.14409 23.3794 7.32712C23.3838 6.45603 23.3856 6.44982 22.5579 6.22717C22.1623 6.12073 21.8882 5.90872 21.7738 5.50423C21.741 5.38802 21.6904 5.27537 21.6345 5.16804C21.4491 4.81233 21.4811 4.47791 21.6807 4.13196C22.1109 3.38772 22.1038 3.38329 21.4944 2.77832C20.9071 2.19464 20.9036 2.18843 20.1904 2.60179C19.919 2.7588 19.6458 2.84396 19.3388 2.75348C18.6079 2.53881 18.0251 2.17867 17.9559 1.32267C17.9524 1.2792 17.9524 1.22243 17.9258 1.19582C17.8433 1.11332 17.7563 0.989134 17.6596 0.976715C17.343 0.936798 17.021 0.923492 16.7016 0.929701C16.1481 0.939459 16.1667 0.955426 15.9955 1.48677C15.8997 1.78216 15.7986 2.129 15.5831 2.32237C14.9772 2.86436 14.3234 2.88299 13.6111 2.48115C13.4674 2.40043 13.3237 2.3206 13.1685 2.23455L13.1641 2.23367Z" fill="#2169CF"/>
<path d="M0.00463725 25.9927C0.00463725 25.1296 0.0117337 24.2665 0.00108904 23.4043C-0.00245917 23.1276 0.1031 22.9537 0.341717 22.8171C1.83729 21.962 3.33019 21.1006 4.81955 20.2331C5.05728 20.0947 5.26752 20.0938 5.5017 20.2296C6.99194 21.0944 8.48308 21.9575 9.97865 22.8118C10.2306 22.9555 10.3317 23.1515 10.3317 23.4318C10.3281 25.1465 10.3281 26.8612 10.3317 28.5758C10.3317 28.8597 10.2182 29.0486 9.96889 29.1906C8.48219 30.0395 7.00082 30.8964 5.52033 31.7568C5.27461 31.8996 5.05906 31.9032 4.80891 31.7568C3.32931 30.8946 1.84704 30.0386 0.358571 29.1914C0.0942295 29.0406 -0.00512032 28.8464 0.000201989 28.5466C0.0143948 27.695 0.0055243 26.8434 0.0055243 25.991L0.00463725 25.9927ZM0.95467 24.1202C0.943138 24.2 0.932494 24.2399 0.932494 24.2807C0.931607 25.5953 0.926284 26.9099 0.940477 28.2254C0.941364 28.3354 1.04515 28.488 1.1445 28.5466C2.23646 29.1923 3.33729 29.823 4.43546 30.4573C4.49844 30.4936 4.56852 30.5185 4.66343 30.5611C4.67408 30.4723 4.68738 30.4094 4.68738 30.3464C4.68827 29.0646 4.69537 27.7828 4.67763 26.5019C4.67585 26.3759 4.55167 26.2039 4.43635 26.1338C3.50849 25.5794 2.5691 25.0436 1.63238 24.5034C1.41594 24.3783 1.19684 24.2568 0.95467 24.1202ZM8.91507 23.289C7.72199 22.6007 6.57326 21.9442 5.43251 21.2727C5.23913 21.1592 5.09543 21.1521 4.89939 21.2674C3.83493 21.8937 2.76159 22.5057 1.6927 23.1231C1.61286 23.1692 1.53924 23.2242 1.42924 23.2979C2.65692 24.0066 3.84823 24.6968 5.04487 25.3789C5.10607 25.4135 5.2205 25.4135 5.28171 25.3789C6.47834 24.6968 7.67054 24.0066 8.91596 23.2881L8.91507 23.289ZM9.37545 24.1264C9.25038 24.1894 9.18119 24.2204 9.11643 24.2577C8.03778 24.8804 6.96267 25.5111 5.87692 26.1222C5.68088 26.2322 5.63121 26.3573 5.63298 26.5658C5.64185 27.6817 5.63742 28.7967 5.63742 29.9126C5.63742 30.1184 5.63742 30.3242 5.63742 30.5265C5.69508 30.5309 5.7208 30.5424 5.73588 30.5336C6.90324 29.8647 8.06971 29.1959 9.23264 28.5182C9.30183 28.4783 9.36924 28.3674 9.36924 28.2884C9.37723 26.9197 9.37545 25.5519 9.37545 24.1264Z" fill="#2169CF"/>
<path d="M22.1712 26.0202C22.1712 26.8611 22.165 27.702 22.1748 28.5421C22.1783 28.8401 22.0683 29.0424 21.8093 29.1905C20.3235 30.0403 18.8404 30.8954 17.3608 31.7558C17.1142 31.8995 16.8986 31.9022 16.6502 31.7576C15.1706 30.8963 13.6866 30.0412 12.1999 29.1923C11.9409 29.0441 11.8264 28.849 11.8282 28.5483C11.8353 26.8442 11.8344 25.1411 11.8282 23.4371C11.8273 23.1523 11.9293 22.9598 12.1795 22.8161C13.6751 21.9601 15.168 21.0997 16.6582 20.233C16.8942 20.0955 17.1062 20.0911 17.3412 20.2268C18.8315 21.0917 20.3235 21.9539 21.8182 22.8099C22.0799 22.9598 22.1792 23.1674 22.1757 23.4628C22.1659 24.3144 22.1721 25.1668 22.1721 26.0184L22.1712 26.0202ZM16.5376 30.6053C16.5376 29.171 16.542 27.8014 16.5278 26.4318C16.5269 26.336 16.409 26.2082 16.3123 26.1515C15.2274 25.5128 14.1363 24.8847 13.0453 24.2567C12.9743 24.2159 12.8936 24.1902 12.8182 24.1574C12.7978 24.2008 12.7809 24.2195 12.7809 24.239C12.7782 25.5766 12.7747 26.9152 12.7827 28.2529C12.7827 28.3416 12.851 28.4693 12.9264 28.5128C14.1053 29.2047 15.2904 29.8859 16.5385 30.6062L16.5376 30.6053ZM21.223 24.1441C21.1245 24.1804 21.0819 24.1902 21.0456 24.2106C19.9057 24.8652 18.7641 25.5172 17.6331 26.186C17.5408 26.2402 17.4734 26.414 17.4725 26.5329C17.461 27.8049 17.4654 29.0778 17.4663 30.3508C17.4663 30.4191 17.4841 30.4882 17.4974 30.5903C18.7179 29.8851 19.9048 29.2038 21.0837 28.5092C21.1618 28.4631 21.2141 28.3123 21.2168 28.2085C21.2292 27.6115 21.223 27.0137 21.223 26.4158C21.223 25.6769 21.223 24.938 21.223 24.1449V24.1441ZM20.7431 23.2951C20.6269 23.2215 20.5471 23.1683 20.4646 23.1204C19.5385 22.5846 18.5876 22.0861 17.6934 21.5015C17.1887 21.1715 16.8179 21.1786 16.314 21.5015C15.3347 22.1313 14.304 22.6813 13.2865 23.2694C13.3256 23.3102 13.3433 23.3413 13.3708 23.3563C14.5257 24.0243 15.6789 24.6958 16.8418 25.3504C16.935 25.4028 17.1168 25.3779 17.2206 25.3212C17.8105 24.9983 18.3897 24.6541 18.9716 24.3179C19.5527 23.9826 20.1337 23.6473 20.744 23.2943L20.7431 23.2951Z" fill="#2169CF"/>
<path d="M28.5151 7.93419C27.5685 7.93419 26.6606 7.93419 25.7526 7.93419C25.6184 7.93419 25.4815 7.94157 25.3491 7.91733C25.0969 7.87307 24.9447 7.70339 24.9339 7.39144C24.9231 7.07844 25.0717 6.90138 25.3131 6.82656C25.4086 6.79705 25.5139 6.80232 25.6139 6.80127C26.6705 6.80021 27.7261 6.79916 28.7826 6.80127C29.314 6.80127 29.4663 6.97726 29.4663 7.59379C29.4672 11.2223 29.4663 14.8508 29.4663 18.4804C29.4663 18.5721 29.4663 18.6648 29.4591 18.7565C29.4347 19.0843 29.2735 19.2613 28.9988 19.2666C28.7205 19.2719 28.5647 19.0801 28.5196 18.7702C28.5025 18.6554 28.5133 18.5342 28.5133 18.4161C28.5133 15.0901 28.5133 11.763 28.5133 8.43689V7.9363L28.5151 7.93419Z" fill="#2169CF"/>
<path d="M5.49965 7.93333C5.49965 8.14405 5.49965 8.29893 5.49965 8.45381C5.49965 11.779 5.49965 15.1041 5.49785 18.4293C5.49785 18.5852 5.49516 18.7485 5.45568 18.8939C5.383 19.1668 5.18918 19.3311 4.96665 19.2426C4.80693 19.1794 4.67144 18.9761 4.56645 18.8022C4.51172 18.7116 4.54133 18.5473 4.54133 18.4166C4.54043 14.8291 4.54043 11.2406 4.54133 7.65307C4.54133 6.96191 4.68221 6.80071 5.27712 6.80071C6.30722 6.80071 7.33642 6.80071 8.36652 6.80071C8.46702 6.80071 8.57111 6.79439 8.66712 6.82073C8.92554 6.89238 9.08167 7.07676 9.06552 7.40653C9.04937 7.71629 8.88786 7.89119 8.63751 7.91753C8.37101 7.94492 8.10092 7.93228 7.83263 7.93333C7.07262 7.93438 6.31171 7.93333 5.50054 7.93333H5.49965Z" fill="#2169CF"/>
<path d="M33.0712 24.1388C33.0712 25.5306 33.073 26.8895 33.0659 28.2494C33.0659 28.3328 33.018 28.4561 32.9524 28.4933C31.7646 29.1897 30.5715 29.8762 29.3421 30.5859C29.3279 30.4573 29.3101 30.3748 29.3101 30.2914C29.3084 29.0424 29.3039 27.7934 29.3172 26.5445C29.319 26.4176 29.3988 26.2358 29.5 26.1755C30.6389 25.4995 31.7886 24.8422 32.9355 24.1814C32.9621 24.1663 32.9958 24.1619 33.0712 24.1388Z" fill="white"/>
<path d="M25.1144 23.2748C26.1381 22.684 27.1697 22.1367 28.1464 21.5051C28.6626 21.1716 29.0423 21.1849 29.5515 21.514C30.505 22.1296 31.5101 22.6654 32.4929 23.2349C32.5098 23.2446 32.5204 23.2659 32.5532 23.304C32.4095 23.391 32.2712 23.4779 32.1301 23.5586C31.1082 24.1485 30.0872 24.742 29.0591 25.3212C28.9571 25.3789 28.7744 25.4037 28.6813 25.3514C27.5183 24.6967 26.3652 24.0252 25.2102 23.3564C25.1827 23.3404 25.1606 23.3138 25.1144 23.2748Z" fill="white"/>
<path d="M28.3371 30.562C28.2404 30.5149 28.1623 30.4821 28.0896 30.4404C27.01 29.8177 25.9305 29.1959 24.8563 28.5643C24.7596 28.5075 24.6381 28.3816 24.6372 28.2876C24.623 26.9188 24.6274 25.551 24.6274 24.1415C24.7356 24.1894 24.8146 24.2169 24.8855 24.2577C25.966 24.8795 27.0473 25.4987 28.1206 26.1329C28.2297 26.1977 28.3521 26.3538 28.3539 26.4691C28.3699 27.7837 28.3637 29.0974 28.3628 30.412C28.3628 30.452 28.3495 30.4928 28.338 30.5628L28.3371 30.562Z" fill="white"/>
<path d="M28.3371 30.562C28.2404 30.5149 28.1623 30.4821 28.0896 30.4404C27.01 29.8177 25.9305 29.1959 24.8563 28.5643C24.7596 28.5075 24.6381 28.3816 24.6372 28.2876C24.623 26.9188 24.6274 25.551 24.6274 24.1415C24.7356 24.1894 24.8146 24.2169 24.8855 24.2577C25.966 24.8795 27.0473 25.4987 28.1206 26.1329C28.2297 26.1977 28.3521 26.3538 28.3539 26.4691C28.3699 27.7837 28.3637 29.0974 28.3628 30.412C28.3628 30.452 28.3495 30.4928 28.338 30.5628L28.3371 30.562Z" fill="white"/>
<path d="M13.164 2.23368C13.3193 2.32061 13.4639 2.39955 13.6067 2.48028C14.319 2.88211 14.9727 2.86348 15.5786 2.32149C15.7941 2.129 15.8961 1.78128 15.9911 1.48589C16.1631 0.95366 16.1445 0.93858 16.6972 0.928823C17.0165 0.922613 17.3385 0.935919 17.6552 0.975836C17.7527 0.988255 17.8397 1.11244 17.9213 1.19494C17.9479 1.22155 17.9479 1.27832 17.9514 1.32179C18.0206 2.17779 18.6034 2.53793 19.3344 2.7526C19.6413 2.84308 19.9145 2.75792 20.1859 2.60092C20.8991 2.18755 20.9027 2.19376 21.4899 2.77744C22.0984 3.38241 22.1064 3.38684 21.6762 4.13108C21.4766 4.47703 21.4438 4.81145 21.6301 5.16716C21.6859 5.27449 21.7365 5.38715 21.7693 5.50335C21.8837 5.90785 22.1578 6.11985 22.5535 6.2263C23.382 6.44806 23.3802 6.45516 23.3749 7.32624C23.3704 8.14322 23.3749 8.15741 22.5872 8.35256C22.1578 8.45901 21.8758 8.68343 21.7587 9.11099C21.7471 9.15357 21.7329 9.19703 21.7099 9.2334C21.3994 9.72572 21.4828 10.1825 21.7844 10.6562C22.1073 11.1619 22.086 11.1752 21.6744 11.6151C21.6442 11.6471 21.6141 11.6799 21.583 11.7118C20.9293 12.3922 20.9266 12.3975 20.1017 11.9407C19.7841 11.765 19.4772 11.7517 19.1543 11.907C19.0354 11.9646 18.9148 12.025 18.7888 12.0613C18.3719 12.1811 18.1617 12.4658 18.0579 12.8765C17.8583 13.6651 17.8468 13.6625 17.0369 13.6695C17.0147 13.6695 16.9925 13.6695 16.9704 13.6695C16.1481 13.6651 16.1348 13.6678 15.9405 12.8881C15.8341 12.4623 15.6167 12.1722 15.1865 12.0551C15.1235 12.0383 15.0597 12.0134 15.0029 11.9797C14.5523 11.7109 14.1362 11.7721 13.6989 12.0454C13.1241 12.4037 13.1117 12.3851 12.6327 11.93C11.9035 11.2373 11.8991 11.2355 12.363 10.3742C12.5227 10.0779 12.5316 9.78781 12.3994 9.48532C12.3417 9.35404 12.2708 9.22631 12.2308 9.0897C12.1093 8.67545 11.8326 8.45989 11.4183 8.35522C10.6191 8.15297 10.6226 8.14144 10.6208 7.30318C10.6208 7.29253 10.6208 7.281 10.6208 7.27036C10.6235 6.44451 10.6208 6.43209 11.4006 6.23605C11.8255 6.12961 12.1155 5.91051 12.2344 5.48117C12.2575 5.3969 12.2956 5.31529 12.3382 5.23812C12.5626 4.82919 12.5183 4.44864 12.2779 4.05124C11.8893 3.40813 11.9009 3.3966 12.4322 2.85639C12.6105 2.67543 12.8048 2.51132 12.9955 2.34278C13.0434 2.3002 13.1019 2.27093 13.1596 2.23279L13.164 2.23368ZM17.0183 3.32919C14.8379 3.32652 13.0372 5.12014 13.0381 7.29253C13.0398 9.45783 14.8237 11.2497 16.9837 11.2523C19.1711 11.2559 20.9532 9.48444 20.9665 7.29431C20.979 5.15208 19.1667 3.33096 17.0192 3.3283L17.0183 3.32919Z" fill="white"/>
<path d="M0.95468 24.1201C1.19684 24.2567 1.41595 24.3782 1.63239 24.5033C2.56911 25.0435 3.5085 25.5784 4.43636 26.1337C4.55256 26.2029 4.67586 26.375 4.67764 26.5019C4.69538 27.7836 4.68828 29.0654 4.68739 30.3463C4.68739 30.4093 4.6732 30.4714 4.66344 30.561C4.56853 30.5184 4.49845 30.4936 4.43547 30.4572C3.33641 29.8239 2.23647 29.1923 1.14451 28.5465C1.04516 28.488 0.941374 28.3354 0.940487 28.2254C0.926294 26.9108 0.931616 25.5962 0.932503 24.2807C0.932503 24.2408 0.943148 24.2 0.95468 24.1201Z" fill="white"/>
<path d="M8.91514 23.2889C7.66972 24.0075 6.47753 24.6967 5.28089 25.3797C5.21969 25.4143 5.10526 25.4143 5.04405 25.3797C3.8483 24.6976 2.65699 24.0075 1.42843 23.2987C1.53842 23.226 1.61293 23.1701 1.69188 23.124C2.76167 22.5057 3.83411 21.8945 4.89857 21.2682C5.09461 21.1529 5.23831 21.1591 5.43169 21.2736C6.57244 21.9442 7.72117 22.6015 8.91426 23.2898L8.91514 23.2889Z" fill="white"/>
<path d="M9.37543 24.1263C9.37543 25.5518 9.37809 26.9197 9.36922 28.2884C9.36922 28.3665 9.30091 28.4773 9.23261 28.5181C8.07057 29.1958 6.90321 29.8647 5.73585 30.5335C5.72077 30.5424 5.69505 30.5317 5.63739 30.5264C5.63739 30.3242 5.63739 30.1184 5.63739 29.9126C5.63739 28.7967 5.64183 27.6816 5.63296 26.5657C5.63118 26.3573 5.68086 26.2322 5.87689 26.1222C6.96265 25.511 8.03775 24.8803 9.11641 24.2576C9.18116 24.2204 9.25035 24.1893 9.37543 24.1263Z" fill="white"/>
<path d="M16.5375 30.6054C15.2903 29.8851 14.1052 29.2038 12.9254 28.5119C12.85 28.4676 12.7826 28.3407 12.7817 28.252C12.7737 26.9143 12.7782 25.5758 12.78 24.2381C12.78 24.2195 12.7968 24.2 12.8172 24.1565C12.8926 24.1893 12.9724 24.215 13.0443 24.2558C14.1345 24.8848 15.2264 25.5128 16.3113 26.1506C16.408 26.2074 16.526 26.3351 16.5269 26.4309C16.5411 27.8005 16.5366 29.1701 16.5366 30.6045L16.5375 30.6054Z" fill="white"/>
<path d="M21.2229 24.1441C21.2229 24.9371 21.2229 25.676 21.2229 26.4149C21.2229 27.0128 21.2291 27.6098 21.2167 28.2077C21.2149 28.3114 21.1626 28.4622 21.0836 28.5084C19.9047 29.2038 18.7179 29.8851 17.4973 30.5894C17.484 30.4874 17.4662 30.4191 17.4662 30.3499C17.4645 29.077 17.4609 27.8049 17.4724 26.532C17.4733 26.4132 17.5407 26.2393 17.633 26.1852C18.7649 25.5163 19.9065 24.8644 21.0455 24.2097C21.0819 24.1893 21.1244 24.1796 21.2229 24.1432V24.1441Z" fill="white"/>
<path d="M20.743 23.2952C20.1327 23.6473 19.5517 23.9827 18.9707 24.3188C18.3879 24.655 17.8095 24.9992 17.2196 25.3221C17.1158 25.3789 16.9349 25.4037 16.8408 25.3514C15.6779 24.6967 14.5247 24.0252 13.3698 23.3573C13.3423 23.3413 13.3246 23.3112 13.2855 23.2704C14.303 22.6831 15.3337 22.1323 16.313 21.5025C16.8169 21.1787 17.1886 21.1716 17.6924 21.5025C18.5866 22.087 19.5366 22.5855 20.4636 23.1213C20.5461 23.1692 20.6259 23.2225 20.7421 23.2961L20.743 23.2952Z" fill="white"/>
<path d="M17.0183 3.32922C19.1667 3.33188 20.979 5.153 20.9657 7.29523C20.9524 9.48536 19.1703 11.2559 16.9828 11.2533C14.8237 11.2497 13.039 9.45875 13.0372 7.29346C13.0354 5.12107 14.837 3.32745 17.0174 3.33011L17.0183 3.32922ZM13.997 7.3041C14.0023 8.96821 15.3249 10.297 16.9784 10.2988C18.6789 10.3006 20.0077 8.97708 20.0077 7.28193C20.0077 5.60895 18.6682 4.27926 16.9908 4.28813C15.3098 4.297 13.9917 5.62403 13.997 7.3041Z" fill="#2169CF"/>
<path d="M13.9969 7.3041C13.9916 5.62402 15.3089 4.29611 16.9907 4.28812C18.6681 4.28014 20.0085 5.60894 20.0076 7.28192C20.0076 8.97708 18.6779 10.3014 16.9783 10.2988C15.3249 10.297 14.0023 8.96821 13.9969 7.3041ZM16.2749 7.76625C16.1196 7.58352 15.9972 7.41054 15.8464 7.26773C15.6176 7.05218 15.3639 7.05572 15.1687 7.24821C14.9709 7.44425 14.9691 7.69174 15.1847 7.92503C15.402 8.1601 15.6344 8.38098 15.8624 8.60629C16.2048 8.94426 16.4195 8.94603 16.7583 8.60806C17.4156 7.95431 18.0712 7.297 18.7258 6.6397C18.795 6.56962 18.9041 6.4889 18.905 6.41172C18.9094 6.22988 18.9201 5.98594 18.8145 5.88215C18.709 5.77748 18.4624 5.78103 18.2841 5.79877C18.1856 5.80853 18.096 5.9407 18.01 6.02586C17.4485 6.58647 16.8887 7.14975 16.2749 7.76537V7.76625Z" fill="white"/>
<path d="M16.2749 7.76624C16.8888 7.14974 17.4485 6.58735 18.01 6.02673C18.0952 5.94157 18.1856 5.8094 18.2841 5.79965C18.4624 5.7819 18.709 5.77836 18.8146 5.88303C18.9201 5.98681 18.9095 6.23075 18.905 6.4126C18.9033 6.48977 18.795 6.57049 18.7258 6.64057C18.0712 7.29788 17.4166 7.95429 16.7584 8.60894C16.4186 8.94691 16.2048 8.94424 15.8624 8.60716C15.6345 8.38274 15.403 8.16098 15.1847 7.92591C14.9683 7.69261 14.971 7.44513 15.1688 7.24909C15.3639 7.05571 15.6185 7.05305 15.8465 7.2686C15.9982 7.41142 16.1206 7.58439 16.2749 7.76713V7.76624Z" fill="#2169CF"/>
</svg>
