<svg width="34" height="34" viewBox="0 0 34 34" fill="none" xmlns="http://www.w3.org/2000/svg">
<path d="M28.0859 7.4024V17.901C28.9765 18.3839 29.8828 18.7419 30.6338 19.309C33.3916 21.3996 34.518 24.2257 33.7782 27.5976C33.0448 30.951 30.8539 33.0287 27.5014 33.8187C26.9269 33.9425 26.3402 34.0006 25.7526 33.9917C18.4613 34.0028 11.1697 34.0028 3.87778 33.9917C1.92548 33.9917 0.422649 32.8501 0.10451 31.0093C-0.043461 30.1471 -0.0157167 29.2331 0.0730661 28.3571C0.165548 27.4163 1.05245 26.692 2.00594 26.6179C2.30281 26.5939 2.60245 26.6179 2.95388 26.6179V26.1378C2.95388 18.7163 2.95388 11.2951 2.95388 3.87419C2.95388 2.0518 4.00263 0.59852 5.67008 0.147086C6.06061 0.0486116 6.46223 0.00103907 6.86495 0.00555042C14.6063 -0.00185014 22.3477 -0.00185014 30.0891 0.00555042C32.0682 0.00555042 33.5728 1.13598 33.8928 2.9926C34.0417 3.85476 34.0149 4.76966 33.9215 5.64477C33.8226 6.58927 32.944 7.33302 31.9877 7.37558C30.8354 7.42368 29.6812 7.39871 28.527 7.40518L28.0859 7.4024ZM27.334 1.48196H26.9234C20.2434 1.48196 13.5644 1.49491 6.88437 1.47271C5.39819 1.46809 4.43545 2.55412 4.44099 3.91119C4.47151 11.333 4.45579 18.7539 4.45579 26.1758V26.568H17.7603C17.6012 24.0546 18.354 21.8918 20.1149 20.1267C21.8757 18.3617 24.0583 17.5994 26.5951 17.7595V17.2969C26.5951 12.877 26.5935 8.45637 26.5905 4.03515C26.5886 3.13784 26.7449 2.2951 27.334 1.48381V1.48196ZM32.513 25.8566C32.5075 22.2044 29.5064 19.2091 25.8543 19.2146C24.0929 19.2239 22.4067 19.9292 21.163 21.1768C19.9193 22.4245 19.2191 24.1133 19.215 25.8751C19.2196 29.5254 22.2225 32.5236 25.8737 32.518C29.5249 32.5125 32.5149 29.5079 32.5093 25.8585L32.513 25.8566ZM21.1784 32.5171C19.929 31.5809 19.0319 30.5023 18.4437 29.1748C18.2828 28.8131 18.2218 28.2942 17.9452 28.1286C17.64 27.9436 17.1406 28.0814 16.7254 28.0814H2.49702C1.73404 28.0814 1.49082 28.3293 1.48989 29.099V30.0398C1.48989 31.6226 2.39252 32.5199 3.98691 32.5199H21.1747L21.1784 32.5171ZM28.1257 5.91489C29.3492 5.91489 30.5801 5.92784 31.812 5.90842C32.2291 5.90102 32.4991 5.58279 32.5102 5.14709C32.5241 4.64015 32.5315 4.12951 32.5102 3.62442C32.4898 3.07038 32.2628 2.54405 31.8739 2.14894C31.4851 1.75384 30.9625 1.51855 30.409 1.48936C29.3159 1.41906 28.2819 2.20444 28.1479 3.3395C28.0424 4.17206 28.1257 5.0222 28.1257 5.91489Z" fill="#2169CF"/>
<path d="M27.2613 1.54089C26.6701 2.35288 26.5132 3.19635 26.5188 4.0963C26.528 8.52074 26.5296 12.9452 26.5234 17.3696V17.8326C23.9775 17.6724 21.7963 18.426 20.0198 20.2019C18.2433 21.9777 17.497 24.1331 17.6567 26.6487H4.3032V26.2562C4.3032 18.8279 4.31898 11.4005 4.28835 3.97223C4.28278 2.61398 5.249 1.527 6.74055 1.53163C13.4447 1.55385 20.1479 1.54089 26.852 1.54089H27.2613ZM17.6186 5.98045C15.9281 5.98045 14.2379 5.98045 12.5481 5.98045C12.0469 5.98045 11.7127 6.2647 11.6923 6.69338C11.6719 7.12206 12.0237 7.45907 12.536 7.46C15.9281 7.46494 19.3206 7.46494 22.7133 7.46C23.2498 7.46 23.5644 7.16187 23.5589 6.70634C23.5533 6.25081 23.2256 5.98045 22.6901 5.98045C21.0002 5.97922 19.3097 5.97922 17.6186 5.98045ZM17.6418 10.4172C15.9161 10.4172 14.1906 10.4172 12.4655 10.4172C12.3669 10.4138 12.2686 10.4298 12.1763 10.4644C12.084 10.4989 11.9994 10.5514 11.9275 10.6187C11.8555 10.6859 11.7976 10.7668 11.7571 10.8565C11.7166 10.9461 11.6942 11.0429 11.6914 11.1413C11.6839 11.5264 11.9893 11.8477 12.4098 11.8885C12.536 11.9005 12.6641 11.8986 12.7912 11.8986H18.0019C19.5186 11.8986 21.0352 11.8986 22.5499 11.8986C22.7348 11.9059 22.9197 11.8856 23.0985 11.8385C23.4159 11.7366 23.6062 11.3672 23.5514 11.0274C23.4939 10.6719 23.1857 10.42 22.7801 10.4191C21.068 10.4154 19.3552 10.4148 17.6418 10.4172ZM17.6195 14.854C15.9297 14.854 14.2392 14.854 12.5481 14.854C12.0469 14.854 11.7127 15.1373 11.6923 15.5669C11.6719 15.9966 12.0237 16.3326 12.5351 16.3336C15.9272 16.3391 19.3196 16.3391 22.7124 16.3336C23.2498 16.3336 23.5644 16.0364 23.5589 15.5799C23.5533 15.1235 23.2256 14.854 22.691 14.854H17.6195ZM14.6782 19.289C13.9607 19.289 13.2442 19.289 12.5267 19.289C12.0366 19.289 11.6914 19.5945 11.6914 20.0223C11.6914 20.4296 12.0172 20.763 12.485 20.763C13.9422 20.7741 15.3997 20.7741 16.8575 20.763C17.3216 20.763 17.6511 20.4195 17.6409 20.0102C17.6307 19.601 17.2965 19.2908 16.8297 19.289C16.1131 19.289 15.3957 19.289 14.6782 19.289ZM8.73796 5.97953C8.48271 5.97953 8.2284 5.97212 7.97408 5.97953C7.78708 5.98379 7.60848 6.05787 7.47357 6.18713C7.33867 6.31638 7.25727 6.49142 7.24547 6.67764C7.23486 6.86441 7.2975 7.04797 7.42014 7.1895C7.54278 7.33102 7.71581 7.41939 7.90261 7.43593C8.45697 7.46462 9.01245 7.46462 9.56681 7.43593C9.97427 7.41463 10.2314 7.08039 10.2165 6.68041C10.2108 6.49402 10.1332 6.31701 9.99989 6.18627C9.86658 6.05553 9.68784 5.98114 9.50091 5.9786C9.24659 5.97305 8.99227 5.98138 8.73796 5.98138V5.97953ZM8.72589 10.4163C8.48271 10.4163 8.23953 10.4098 7.99728 10.4163C7.80426 10.4154 7.61833 10.4888 7.47826 10.6213C7.33819 10.7538 7.2548 10.9351 7.24547 11.1274C7.23969 11.3201 7.31031 11.5073 7.44203 11.6484C7.57374 11.7895 7.75591 11.8731 7.94902 11.881C8.47993 11.9051 9.01362 11.906 9.5436 11.881C9.96963 11.8588 10.2379 11.5218 10.2165 11.1107C10.2077 10.9244 10.1272 10.7487 9.99189 10.6201C9.85654 10.4915 9.67671 10.4198 9.48977 10.42C9.23545 10.4108 8.98021 10.4182 8.72589 10.4182V10.4163ZM8.72589 16.3225C8.99135 16.3225 9.25959 16.3401 9.52318 16.3225C9.61901 16.3202 9.71338 16.2986 9.80066 16.2591C9.88794 16.2195 9.96633 16.1628 10.0311 16.0924C10.096 16.022 10.1459 15.9392 10.1779 15.8491C10.2099 15.7589 10.2233 15.6633 10.2174 15.5679C10.2163 15.4723 10.196 15.3779 10.1579 15.2902C10.1198 15.2024 10.0646 15.1231 9.99553 15.0569C9.92644 14.9906 9.84483 14.9388 9.75546 14.9042C9.66608 14.8697 9.57072 14.8533 9.47492 14.8559C8.97742 14.8475 8.479 14.8466 7.98151 14.8559C7.79099 14.8549 7.60756 14.9279 7.46998 15.0594C7.3324 15.1909 7.25145 15.3705 7.24422 15.5604C7.23699 15.7504 7.30405 15.9356 7.43124 16.0771C7.55842 16.2186 7.73577 16.3053 7.92582 16.3188C8.19313 16.3428 8.45858 16.3262 8.72496 16.3262L8.72589 16.3225ZM8.75931 19.289C8.49292 19.289 8.22654 19.2797 7.96109 19.289C7.77404 19.2956 7.5964 19.3724 7.46371 19.5041C7.33102 19.6358 7.25307 19.8126 7.24547 19.9991C7.23062 20.3574 7.50814 20.7213 7.88126 20.7398C8.44703 20.7704 9.01404 20.7704 9.5798 20.7398C9.9817 20.7185 10.2379 20.3695 10.2165 19.9741C10.2077 19.7939 10.1317 19.6234 10.0034 19.4962C9.87517 19.3689 9.7039 19.294 9.52318 19.2862C9.26887 19.2825 9.01362 19.289 8.75931 19.289Z" fill="white"/>
<path d="M32.4685 25.8742C32.474 29.4874 29.5071 32.4612 25.8926 32.4685C22.278 32.4759 19.3056 29.5057 19.2974 25.8916C19.3015 24.1473 19.995 22.4753 21.2268 21.2401C22.4586 20.0049 24.1288 19.3065 25.8733 19.2974C29.4906 19.2928 32.463 22.2584 32.4685 25.8742ZM26.629 29.5789C27.0678 29.546 27.4745 29.5625 27.8583 29.4764C28.9658 29.2263 29.639 28.2235 29.5218 27.063C29.4146 26.0025 28.4885 25.1635 27.3683 25.1397C26.4202 25.1223 25.4712 25.1397 24.5222 25.1342C24.0313 25.1342 23.6978 24.8366 23.6923 24.4171C23.6869 23.9976 24.0294 23.689 24.5167 23.6844C25.4327 23.6783 26.3469 23.6783 27.2593 23.6844C27.7502 23.6844 28.0159 23.939 28.0782 24.4263C28.1404 24.9135 28.4317 25.1709 28.8677 25.1388C29.3038 25.1067 29.5538 24.7825 29.5355 24.3072C29.5145 23.7844 29.3043 23.287 28.9441 22.9075C28.5839 22.528 28.0981 22.2921 27.5771 22.2437C27.273 22.219 26.9661 22.2437 26.63 22.2437C26.63 21.969 26.6382 21.7501 26.63 21.5348C26.6089 21.0769 26.2892 20.7518 25.8807 20.7564C25.4721 20.7609 25.1625 21.0879 25.1479 21.5486C25.1396 21.7611 25.1479 21.9745 25.1479 22.1897C24.71 22.2227 24.3033 22.2053 23.9195 22.2914C22.813 22.5386 22.1379 23.5434 22.2551 24.7047C22.3623 25.7643 23.2875 26.6042 24.4077 26.628C25.3558 26.6463 26.3048 26.628 27.2538 26.6335C27.7456 26.6335 28.0827 26.9302 28.0837 27.3488C28.0846 27.7674 27.7475 28.0815 27.2593 28.0815C26.3433 28.0882 25.4288 28.0882 24.5158 28.0815C24.0258 28.0815 23.7592 27.8251 23.6969 27.3396C23.6346 26.8542 23.3443 26.595 22.9073 26.6271C22.4704 26.6591 22.2203 26.9815 22.2396 27.4578C22.2598 27.9817 22.4699 28.4805 22.8308 28.861C23.1916 29.2415 23.6785 29.4778 24.2007 29.5258C24.5048 29.5515 24.8126 29.5304 25.1479 29.5304C25.1479 29.7969 25.1424 30.0012 25.1479 30.2045C25.1625 30.6844 25.4776 31.0233 25.8981 31.0178C26.3185 31.0123 26.6217 30.678 26.6309 30.1935C26.6336 29.9929 26.629 29.7997 26.629 29.5789Z" fill="white"/>
<path d="M21.1351 32.4685H4.01833C2.4332 32.4685 1.53149 31.6101 1.53149 30.096V29.2004C1.53149 28.4624 1.77465 28.227 2.53452 28.227H16.7002C17.1138 28.227 17.6112 28.096 17.9151 28.2721C18.1914 28.4305 18.2513 28.927 18.4116 29.273C18.9973 30.5402 19.8908 31.5729 21.1351 32.4685Z" fill="white"/>
<path d="M28.2091 6.12101C28.2091 5.1955 28.1329 4.31411 28.2279 3.45477C28.3587 2.27415 29.3593 1.45989 30.4182 1.53661C30.9544 1.56688 31.4606 1.81081 31.8372 2.22044C32.2139 2.63008 32.4337 3.17576 32.4536 3.75017C32.4769 4.27574 32.4697 4.80516 32.4536 5.32881C32.4428 5.78054 32.1848 6.11046 31.7772 6.11813C30.5822 6.13444 29.3898 6.12101 28.2091 6.12101Z" fill="white"/>
<path d="M17.6059 6.12686C19.3082 6.12686 21.0099 6.12686 22.711 6.12686C23.2501 6.12686 23.5799 6.35616 23.5855 6.7261C23.5911 7.09604 23.2744 7.3475 22.7343 7.34827C19.3197 7.35234 15.9048 7.35234 12.4896 7.34827C11.9738 7.34827 11.6225 7.07005 11.6403 6.7154C11.658 6.36075 11.9972 6.12686 12.5017 6.12686C14.2034 6.12584 15.9048 6.12584 17.6059 6.12686Z" fill="#2169CF"/>
<path d="M17.6276 10.416C19.3517 10.416 21.0759 10.416 22.8 10.416C23.2082 10.416 23.5183 10.677 23.5762 11.0441C23.6313 11.395 23.4398 11.7765 23.1204 11.8817C22.9404 11.9304 22.7544 11.9513 22.5684 11.9438C21.0423 11.9486 19.5161 11.9438 17.9918 11.9438H12.7465C12.6186 11.9438 12.4897 11.9438 12.3627 11.9333C11.9396 11.8912 11.6323 11.5595 11.6398 11.1617C11.6466 10.9578 11.7321 10.765 11.8776 10.6256C12.0231 10.4861 12.2167 10.4114 12.4159 10.4179C14.1544 10.414 15.8916 10.4134 17.6276 10.416Z" fill="#2169CF"/>
<path d="M17.6069 15.0098H22.7119C23.2501 15.0098 23.5799 15.239 23.5855 15.6088C23.5911 15.9787 23.2744 16.2301 22.7334 16.2308C19.3188 16.2354 15.9039 16.2354 12.4887 16.2308C11.9739 16.2308 11.6217 15.9527 11.6403 15.5981C11.659 15.2436 11.9972 15.0098 12.5018 15.0098C14.2035 15.0088 15.9052 15.0088 17.6069 15.0098Z" fill="#2169CF"/>
<path d="M14.715 19.2974C15.4537 19.2974 16.1925 19.2974 16.9303 19.2974C17.4081 19.2974 17.755 19.6118 17.7655 20.0419C17.776 20.4719 17.4396 20.815 16.9589 20.8189C15.4585 20.8322 13.9578 20.8322 12.4568 20.8189C11.9789 20.8189 11.6368 20.4719 11.6397 20.0543C11.6397 19.6127 11.9952 19.2993 12.4998 19.2974C13.2385 19.2974 13.9763 19.2974 14.715 19.2974Z" fill="#2169CF"/>
<path d="M8.8903 6.12916C9.15233 6.12916 9.41437 6.12227 9.67641 6.12916C9.86901 6.13126 10.0532 6.19273 10.1905 6.30078C10.3279 6.40883 10.4079 6.55511 10.4137 6.70916C10.429 7.03971 10.1641 7.31594 9.74431 7.33354C9.17312 7.35725 8.60078 7.35725 8.02959 7.33354C7.83712 7.31988 7.65884 7.24684 7.53248 7.12988C7.40611 7.01292 7.34157 6.86122 7.3525 6.70686C7.36466 6.55297 7.44853 6.40831 7.58753 6.30149C7.72653 6.19467 7.91055 6.13345 8.10323 6.12992C8.36527 6.12304 8.6273 6.12916 8.8903 6.12916Z" fill="#2169CF"/>
<path d="M8.87714 10.419C9.1392 10.419 9.40222 10.4113 9.66427 10.419C9.85691 10.4187 10.0422 10.4926 10.1817 10.6252C10.3211 10.7578 10.404 10.9389 10.4132 11.1309C10.4351 11.5546 10.1587 11.9019 9.71975 11.9248C9.17363 11.9535 8.62369 11.9525 8.07662 11.9248C7.87763 11.9166 7.68991 11.8305 7.55419 11.6851C7.41847 11.5396 7.34569 11.3467 7.35165 11.148C7.36126 10.9498 7.44719 10.7629 7.59153 10.6264C7.73586 10.4899 7.92745 10.4142 8.12635 10.4151C8.37598 10.4123 8.62656 10.419 8.87714 10.419Z" fill="#2169CF"/>
<path d="M8.87447 16.2253C8.60021 16.2253 8.325 16.2445 8.05361 16.2206C7.85794 16.2067 7.67535 16.1172 7.5444 15.971C7.41346 15.8248 7.34441 15.6334 7.35186 15.4373C7.3593 15.2411 7.44265 15.0555 7.5843 14.9197C7.72594 14.7839 7.91479 14.7085 8.11094 14.7095C8.62314 14.6999 9.1363 14.7008 9.6485 14.7095C9.74714 14.7068 9.84532 14.7238 9.93734 14.7594C10.0294 14.7951 10.1134 14.8487 10.1845 14.9171C10.2556 14.9855 10.3125 15.0674 10.3517 15.1581C10.3909 15.2487 10.4118 15.3462 10.413 15.4449C10.4191 15.5435 10.4052 15.6423 10.3722 15.7354C10.3393 15.8285 10.2879 15.914 10.2212 15.9868C10.1544 16.0595 10.0737 16.1181 9.98387 16.1589C9.89401 16.1997 9.79685 16.222 9.6982 16.2244C9.4268 16.2464 9.15063 16.2244 8.87733 16.2244L8.87447 16.2253Z" fill="#2169CF"/>
<path d="M8.91163 19.302C9.17367 19.302 9.43667 19.2915 9.6987 19.302C9.88491 19.3102 10.0614 19.3876 10.1935 19.5192C10.3257 19.6508 10.404 19.827 10.4131 20.0134C10.4351 20.4261 10.1711 20.7793 9.75704 20.8052C9.1741 20.8368 8.58987 20.8368 8.00692 20.8052C7.62439 20.7851 7.33748 20.4088 7.35183 20.0393C7.35966 19.8464 7.43997 19.6635 7.57669 19.5274C7.71341 19.3912 7.89644 19.3118 8.08917 19.3049C8.36269 19.2963 8.63716 19.302 8.91163 19.302Z" fill="#2169CF"/>
<path d="M26.7882 29.7906C26.7882 30.0146 26.7928 30.2107 26.7882 30.4068C26.7753 30.9003 26.4728 31.2433 26.0504 31.2433C25.628 31.2433 25.3126 30.905 25.2951 30.4179C25.2886 30.2116 25.2951 30.0043 25.2951 29.7339C24.9575 29.7339 24.6495 29.7552 24.3414 29.7292C23.8145 29.6817 23.3228 29.4423 22.9584 29.0559C22.5939 28.6694 22.3817 28.1624 22.3614 27.6296C22.342 27.1463 22.6048 26.8173 23.0337 26.7866C23.4625 26.7559 23.7669 27.0218 23.8287 27.5097C23.8905 27.9977 24.1598 28.2588 24.6532 28.2626C25.5754 28.27 26.4961 28.27 27.4153 28.2626C27.9069 28.2626 28.2453 27.9466 28.2453 27.519C28.2453 27.0915 27.905 26.795 27.4098 26.7931C26.4543 26.7931 25.4989 26.8061 24.5443 26.7875C23.4164 26.7652 22.485 25.9129 22.377 24.8357C22.259 23.6572 22.9387 22.6376 24.0528 22.3866C24.4392 22.2993 24.8487 22.3169 25.2895 22.2835C25.2895 22.0651 25.2831 21.8485 25.2895 21.6329C25.307 21.1682 25.6169 20.8336 26.0273 20.8289C26.4377 20.8243 26.7605 21.1561 26.7817 21.6189C26.791 21.8373 26.7817 22.0558 26.7817 22.3383C27.1202 22.3383 27.4273 22.3169 27.7353 22.3383C28.2614 22.3867 28.7519 22.6263 29.1154 23.0125C29.479 23.3987 29.6906 23.9051 29.7108 24.437C29.7293 24.9194 29.4664 25.2493 29.0385 25.2809C28.6106 25.3125 28.3053 25.0458 28.2435 24.5578C28.1817 24.0699 27.9133 23.8087 27.419 23.805C26.4968 23.7975 25.5763 23.7975 24.6578 23.805C24.1653 23.805 23.8278 24.1201 23.8278 24.5485C23.8278 24.977 24.169 25.2744 24.6633 25.2763C25.6188 25.2763 26.5742 25.2642 27.5288 25.2818C28.6567 25.3032 29.5891 26.1546 29.697 27.2337C29.815 28.4113 29.1372 29.429 28.0222 29.6827C27.6394 29.7738 27.2299 29.7571 26.7882 29.7906Z" fill="#2169CF"/>
</svg>
