<svg width="20" height="18" viewBox="0 0 20 18" fill="none" xmlns="http://www.w3.org/2000/svg">
<path d="M7.82531 17.7599C5.81489 17.7233 3.99224 17.6172 2.2298 17.0704C1.77468 16.9292 1.33031 16.7249 0.915318 16.4891C0.204322 16.0856 -0.0838038 15.4627 0.0208388 14.6328C0.246609 12.8409 0.964056 11.2907 2.26779 10.0414C3.95927 8.42158 5.99049 7.70557 8.32273 7.95642C11.6039 8.30905 14.2185 10.7065 14.8787 13.9232C14.9467 14.2558 14.9761 14.5976 15.0105 14.9367C15.0657 15.4807 14.8435 15.915 14.4493 16.2698C13.9018 16.7622 13.228 17.0037 12.5357 17.1965C11.5201 17.4789 10.4808 17.6172 9.43079 17.6825C8.83591 17.719 8.2403 17.7405 7.8246 17.7599H7.82531ZM7.89555 16.6425C8.38508 16.6131 9.13478 16.5794 9.88161 16.5199C10.7833 16.4482 11.6777 16.3149 12.5357 16.0232C12.9112 15.8956 13.266 15.6993 13.6151 15.5065C13.8243 15.3903 13.9362 15.1932 13.8917 14.9309C13.8437 14.6478 13.8229 14.3597 13.7649 14.0787C13.2001 11.3552 10.8191 9.24582 8.06255 9.04514C6.17755 8.90752 4.51832 9.46657 3.1336 10.7624C1.92591 11.8927 1.25648 13.2932 1.12747 14.9496C1.1117 15.1567 1.18123 15.2979 1.3303 15.419C1.68007 15.7036 2.09147 15.8641 2.51434 15.9931C4.18361 16.502 5.90519 16.5995 7.89484 16.6418L7.89555 16.6425Z" fill="#735DFF"/>
<path d="M7.4776 6.68494C5.6356 6.68208 4.1491 5.19343 4.14552 3.34785C4.14122 1.50012 5.64277 -0.00214789 7.48978 2.3053e-06C9.33178 0.0021525 10.8319 1.51302 10.8269 3.36003C10.8219 5.19415 9.31744 6.68781 7.4776 6.68494ZM5.26577 3.35287C5.27293 4.58493 6.27134 5.57545 7.49336 5.5647C8.73331 5.55394 9.71594 4.55482 9.70734 3.31416C9.69874 2.10791 8.6903 1.11595 7.47545 1.11953C6.25199 1.1224 5.2586 2.12726 5.26648 3.35287H5.26577Z" fill="#735DFF"/>
<path d="M16.3707 1.56176C15.3665 1.56176 14.3617 1.56176 13.3575 1.56176C12.9884 1.56176 12.7311 1.32883 12.7354 1.002C12.739 0.682335 12.992 0.44438 13.3482 0.443663C15.3637 0.441513 17.3791 0.440796 19.3945 0.443663C19.7637 0.443663 20.0052 0.683768 19.9995 1.02206C19.9937 1.35104 19.7551 1.56105 19.3845 1.56105C18.3804 1.56105 17.3755 1.56105 16.3714 1.56105L16.3707 1.56176Z" fill="#735DFF"/>
<path d="M16.3748 7.15443C15.357 7.15443 14.3393 7.15801 13.3215 7.15299C12.9058 7.15084 12.6406 6.79248 12.7696 6.41978C12.847 6.19687 13.0155 6.07575 13.2455 6.04063C13.3115 6.03059 13.3789 6.03346 13.4462 6.03346C15.3943 6.03346 17.3431 6.03274 19.2912 6.03489C19.3972 6.03489 19.5069 6.04206 19.608 6.07001C19.8732 6.1424 20.0244 6.38609 19.9971 6.67207C19.9721 6.93009 19.757 7.14439 19.4883 7.15013C18.9995 7.16016 18.5107 7.15586 18.0218 7.15658C17.4728 7.15658 16.9238 7.15658 16.3748 7.15658V7.15443Z" fill="#735DFF"/>
<path d="M16.3735 4.34407C15.3557 4.34407 14.338 4.34766 13.3209 4.34264C12.9059 4.34049 12.6393 3.98141 12.7705 3.60942C12.8543 3.37004 13.0392 3.24962 13.2872 3.22884C13.3933 3.21952 13.5015 3.22526 13.6083 3.22526C15.4826 3.22526 17.3575 3.22526 19.2318 3.22526C19.3257 3.22526 19.4203 3.22454 19.512 3.23816C19.8288 3.28403 20.0195 3.52485 19.998 3.84308C19.9786 4.1269 19.7543 4.34121 19.4468 4.34264C18.4226 4.34766 17.3984 4.34479 16.3742 4.34479L16.3735 4.34407Z" fill="#735DFF"/>
<path d="M7.89572 16.6425C5.90608 16.6002 4.18449 16.5027 2.51522 15.9938C2.09235 15.8648 1.68095 15.7043 1.33119 15.4197C1.18139 15.2979 1.11187 15.1574 1.12835 14.9503C1.25736 13.2939 1.92679 11.8934 3.13448 10.7631C4.5192 9.4673 6.17843 8.90825 8.06343 9.04586C10.82 9.24655 13.201 11.3559 13.7657 14.0795C13.8238 14.3604 13.8439 14.6485 13.8926 14.9317C13.937 15.1933 13.8252 15.3911 13.6159 15.5072C13.2669 15.7 12.9121 15.8957 12.5365 16.0239C11.6786 16.3164 10.7834 16.449 9.8825 16.5206C9.13495 16.5801 8.38596 16.6138 7.89644 16.6432L7.89572 16.6425Z" fill="white"/>
<path d="M5.26585 3.35284C5.25869 2.12724 6.25207 1.1231 7.47482 1.11951C8.68967 1.11665 9.69883 2.10788 9.70671 3.31414C9.71531 4.5548 8.73268 5.55392 7.49273 5.56467C6.27071 5.57542 5.2723 4.58419 5.26514 3.35284H5.26585Z" fill="white"/>
</svg>
