<svg width="20" height="20" viewBox="0 0 20 20" fill="none" xmlns="http://www.w3.org/2000/svg">
<path d="M19.9979 18.4331C19.8737 18.708 19.7882 19.0096 19.6181 19.2527C19.2685 19.7526 18.7587 19.9931 18.1462 19.9936C15.6668 19.9957 13.1875 19.9952 10.7081 19.9936C9.65048 19.9931 8.85689 19.2178 8.82767 18.1618C8.82663 18.1169 8.8235 18.0725 8.81984 18.0021C8.60801 18.0021 8.40192 17.9948 8.19687 18.0042C7.99704 18.0131 7.88225 17.9207 7.81494 17.7407C7.67824 17.376 7.54207 17.0113 7.39024 16.6528C7.35893 16.5793 7.27023 16.5 7.19353 16.4801C6.42708 16.2834 5.70079 15.9923 5.02721 15.5759C4.91503 15.5065 4.82738 15.4972 4.70581 15.5551C4.36615 15.7168 4.01605 15.8572 3.67534 16.0173C3.49012 16.1045 3.34351 16.0815 3.20055 15.9365C2.82593 15.5561 2.4487 15.1789 2.06834 14.8043C1.92381 14.6618 1.89929 14.5152 1.98695 14.33C2.15286 13.9778 2.31043 13.6209 2.45809 13.2609C2.48626 13.1915 2.48053 13.0793 2.44244 13.0157C2.02295 12.3207 1.71772 11.5809 1.52154 10.793C1.5038 10.7226 1.42345 10.6438 1.35301 10.6146C0.994047 10.4648 0.62934 10.3271 0.264634 10.1909C0.0846284 10.1236 -0.00302639 10.0099 0.000104141 9.80951C0.00740871 9.27575 0.00897397 8.742 0.000104141 8.20877C-0.00354814 7.99171 0.0888024 7.87536 0.287069 7.80441C0.641341 7.67762 0.989351 7.53361 1.34206 7.40265C1.44849 7.363 1.50641 7.30926 1.53458 7.18926C1.71563 6.41862 2.01303 5.69391 2.43096 5.02137C2.50244 4.90658 2.50453 4.8184 2.4487 4.69997C2.28591 4.35352 2.1393 3.99925 1.9786 3.65176C1.89929 3.4801 1.92694 3.34132 2.05843 3.21036C2.44609 2.8253 2.83219 2.43816 3.21829 2.05102C3.34299 1.9258 3.47916 1.89658 3.64299 1.97171C3.99727 2.13293 4.35623 2.28476 4.70946 2.44912C4.82059 2.50077 4.90512 2.50338 5.01417 2.43555C5.69193 2.01293 6.42447 1.72075 7.19771 1.52248C7.27441 1.50265 7.36102 1.42126 7.39285 1.34717C7.53528 1.01325 7.65216 0.668368 7.79355 0.333401C7.84416 0.213398 7.93651 0.110612 8.00956 0C8.67375 0 9.33742 0 10.0016 0C10.0747 0.110612 10.167 0.213398 10.2171 0.333401C10.3606 0.674107 10.4816 1.02473 10.6241 1.36595C10.6512 1.43065 10.7274 1.50317 10.7936 1.51935C11.5763 1.71031 12.3119 2.01189 12.9965 2.43555C13.1061 2.50338 13.1916 2.50129 13.3012 2.45016C13.6487 2.28946 14.003 2.14232 14.3494 1.97954C14.5294 1.89501 14.6713 1.9284 14.8065 2.0651C15.1816 2.44442 15.5588 2.82217 15.9387 3.19679C16.0827 3.33871 16.1103 3.48532 16.0227 3.67107C15.8594 4.01751 15.7127 4.37178 15.5515 4.71927C15.5025 4.82519 15.5077 4.90606 15.5698 5.00624C15.9914 5.68452 16.2856 6.41654 16.4844 7.18926C16.5042 7.26648 16.583 7.35517 16.6566 7.38648C17.015 7.53831 17.3797 7.67553 17.7445 7.81223C17.925 7.87954 18.0194 7.99328 18.009 8.19363C18.0006 8.35277 18.0074 8.51295 18.0074 8.67156C18.1384 8.68304 18.2422 8.68773 18.3455 8.7013C19.1391 8.80669 19.6577 9.2481 19.9207 9.99838C19.9478 10.0761 19.9734 10.1544 20 10.2321V18.4336L19.9979 18.4331ZM14.4324 9.32323C13.2021 9.32323 11.9718 9.34045 10.742 9.31645C10.0345 9.30288 9.44334 9.8596 9.44699 10.6208C9.45899 13.1007 9.45117 15.5801 9.45169 18.06C9.45169 18.8484 9.97031 19.3696 10.7587 19.3701C13.1927 19.3717 15.6272 19.3717 18.0612 19.3701C18.8501 19.3701 19.3723 18.8494 19.3729 18.0626C19.3744 15.5827 19.3682 13.1033 19.3765 10.6234C19.3791 9.83873 18.776 9.30028 18.0638 9.31593C16.8538 9.34202 15.6428 9.32323 14.4324 9.32323ZM8.81723 13.9653C7.38554 13.8808 6.18237 13.3194 5.24843 12.2367C4.31345 11.1525 3.91848 9.87942 4.07188 8.45712C4.31658 6.18018 6.1062 4.33891 8.44157 4.07021C9.627 3.93351 10.7352 4.19178 11.7276 4.85858C13.0794 5.76643 13.8083 7.05412 13.9638 8.67H17.3641C17.3902 8.46408 17.318 8.32825 17.1476 8.26251C16.8387 8.14302 16.5324 8.01676 16.2204 7.90719C16.0409 7.84406 15.9418 7.73397 15.9053 7.54979C15.7341 6.68576 15.3981 5.888 14.915 5.15285C14.8117 4.99528 14.795 4.85284 14.8774 4.68014C15.0365 4.34622 15.1769 4.00342 15.3319 3.66741C15.3726 3.57871 15.3726 3.51976 15.2969 3.44723C15.0486 3.20827 14.8033 2.96461 14.5659 2.71469C14.4861 2.63069 14.423 2.63799 14.3296 2.68078C13.9873 2.8373 13.6393 2.98183 13.2975 3.13992C13.1452 3.21036 13.0158 3.19627 12.877 3.10548C12.1309 2.61556 11.3232 2.27068 10.4451 2.09798C10.2693 2.06354 10.1628 1.96545 10.1018 1.79379C9.97762 1.44578 9.83309 1.10455 9.70683 0.757066C9.66874 0.652715 9.61604 0.619844 9.50804 0.621931C9.1762 0.628714 8.84384 0.630801 8.51253 0.620888C8.38418 0.617236 8.33096 0.667324 8.28974 0.780023C8.16556 1.12177 8.02521 1.45726 7.9026 1.79953C7.84364 1.96336 7.74346 2.06093 7.57442 2.09484C6.69161 2.27224 5.87663 2.61503 5.1253 3.10966C4.98703 3.20096 4.85607 3.20827 4.70424 3.13783C4.36302 2.9787 4.01448 2.83521 3.67326 2.67556C3.57308 2.6286 3.5136 2.64112 3.43847 2.71991C3.2042 2.96409 2.96524 3.2041 2.72053 3.43732C2.6407 3.5135 2.63236 3.57402 2.67775 3.67263C2.83636 4.01438 2.97984 4.36239 3.13898 4.70414C3.20942 4.85597 3.20107 4.98693 3.10976 5.1252C2.61409 5.87652 2.27182 6.6915 2.09495 7.57483C2.06312 7.73449 1.97547 7.83675 1.81738 7.89467C1.45789 8.02615 1.10153 8.1665 0.7483 8.31468C0.694559 8.33712 0.632992 8.41851 0.631427 8.47434C0.620992 8.82548 0.620992 9.17714 0.631427 9.52828C0.632992 9.58463 0.692472 9.66759 0.745691 9.69003C1.09266 9.8356 1.44276 9.97438 1.79703 10.1017C1.96921 10.1638 2.06521 10.2707 2.10017 10.446C2.27443 11.3236 2.61775 12.1313 3.1082 12.8774C3.19898 13.0157 3.21203 13.1456 3.14107 13.298C2.98245 13.6397 2.83793 13.9877 2.68036 14.3295C2.63653 14.4249 2.63653 14.4876 2.71845 14.5653C2.96367 14.7985 3.20368 15.0375 3.43586 15.2832C3.52038 15.373 3.58769 15.3683 3.68839 15.3213C4.00614 15.1731 4.33223 15.0422 4.64685 14.8888C4.83677 14.7964 4.99643 14.8048 5.17382 14.9227C5.89645 15.4017 6.68482 15.7267 7.53424 15.8994C7.72468 15.938 7.84364 16.032 7.91043 16.2203C8.03356 16.5688 8.17182 16.9127 8.31061 17.2555C8.33096 17.305 8.38627 17.3682 8.43218 17.3744C8.5574 17.3906 8.6868 17.3802 8.81671 17.3802V13.9668L8.81723 13.9653ZM13.3038 8.682C13.2381 6.73324 11.5006 4.69944 9.03794 4.67075C6.68117 4.64309 4.46163 6.64194 4.69224 9.39471C4.7919 10.5827 5.32618 11.5673 6.24238 12.3322C6.98222 12.9499 7.83842 13.2787 8.82663 13.3251C8.82663 13.2322 8.82663 13.1623 8.82663 13.0924C8.82663 12.2727 8.82558 11.4525 8.82767 10.6328C8.82767 10.4967 8.82767 10.3579 8.85271 10.2253C9.03115 9.29297 9.76735 8.68878 10.7326 8.68356C11.5199 8.67887 12.3073 8.68252 13.0946 8.68252C13.1645 8.68252 13.2339 8.68252 13.3043 8.68252L13.3038 8.682Z" fill="#DB2828"/>
<path d="M14.4326 9.32319C15.6431 9.32319 16.8541 9.34197 18.0641 9.31588C18.7763 9.30023 19.3794 9.83868 19.3768 10.6234C19.3679 13.1033 19.3747 15.5827 19.3731 18.0626C19.3731 18.8494 18.8503 19.3696 18.0615 19.3701C15.6275 19.3717 13.193 19.3717 10.759 19.3701C9.9706 19.3701 9.45198 18.8483 9.45198 18.06C9.45146 15.5801 9.45928 13.1007 9.44728 10.6208C9.44363 9.85955 10.0348 9.30284 10.7423 9.31641C11.9721 9.33988 13.2024 9.32319 14.4326 9.32319ZM15.8189 11.9758C16.4826 11.9758 17.1463 11.9758 17.81 11.9758C18.1131 11.9758 18.2769 11.86 18.2743 11.6518C18.2722 11.4441 18.111 11.3351 17.8042 11.3351C16.4837 11.3351 15.1626 11.333 13.842 11.3382C13.7011 11.3387 13.6302 11.3027 13.5644 11.1686C13.2003 10.4288 12.1646 10.3234 11.7227 11.0158C11.5291 11.3189 11.3261 11.3591 11.0365 11.3351C10.9979 11.3319 10.9583 11.3335 10.9197 11.3351C10.6969 11.3434 10.5513 11.4702 10.5513 11.6544C10.5513 11.8386 10.6938 11.9654 10.9202 11.9742C11.0694 11.98 11.2197 11.9831 11.3689 11.9737C11.4889 11.9659 11.5494 12.0061 11.6032 12.1193C11.7962 12.5262 12.1328 12.7449 12.5789 12.748C13.0333 12.7516 13.3771 12.533 13.5759 12.1203C13.6302 12.0076 13.6886 11.9721 13.8086 11.9732C14.4786 11.9789 15.149 11.9758 15.8189 11.9758ZM14.7019 14.656C14.7191 14.6863 14.7337 14.7077 14.7441 14.7312C14.9377 15.17 15.2664 15.4241 15.7527 15.4319C16.239 15.4397 16.5724 15.1945 16.7873 14.7661C16.8134 14.714 16.899 14.6633 16.9585 14.6613C17.2705 14.6508 17.5825 14.6592 17.895 14.655C18.1361 14.6519 18.2816 14.524 18.2743 14.332C18.2675 14.1479 18.1204 14.0268 17.895 14.0247C17.6023 14.0226 17.3096 14.0205 17.0169 14.0258C16.8912 14.0278 16.8145 14.0075 16.7508 13.8703C16.5619 13.4628 16.2197 13.2494 15.773 13.2478C15.3254 13.2457 14.9878 13.4628 14.7895 13.8651C14.728 13.9898 14.6633 14.0278 14.5297 14.0273C13.3396 14.0221 12.1494 14.0242 10.9593 14.0247C10.7026 14.0247 10.5518 14.1437 10.5513 14.3414C10.5508 14.5397 10.6953 14.654 10.9583 14.656C11.2964 14.6581 11.6345 14.6566 11.9731 14.6566C12.8836 14.6566 13.7935 14.6566 14.7024 14.6566L14.7019 14.656ZM16.0261 17.3947C16.6444 17.3947 17.2621 17.3963 17.8804 17.3942C18.1261 17.3932 18.2717 17.2747 18.2743 17.0843C18.2769 16.8907 18.1188 16.7634 17.8694 16.7598C17.8173 16.7592 17.7651 16.7598 17.7134 16.7598C16.5421 16.7598 15.3708 16.7598 14.1999 16.7598C14.1024 16.7598 14.0241 16.7665 13.9688 16.6429C13.7784 16.2177 13.4335 15.987 12.9712 15.986C12.5089 15.985 12.1646 16.2145 11.97 16.6382C11.9214 16.7441 11.862 16.7629 11.7618 16.7613C11.4821 16.7566 11.2019 16.7566 10.9223 16.7613C10.6985 16.7645 10.5529 16.8928 10.5508 17.0775C10.5487 17.2648 10.688 17.3906 10.9165 17.3942C11.1962 17.3989 11.4764 17.4 11.756 17.3937C11.8687 17.3911 11.9235 17.4266 11.9747 17.5335C12.1708 17.9452 12.5053 18.1711 12.9639 18.1727C13.422 18.1742 13.7596 17.9535 13.9579 17.5413C14.0121 17.4286 14.0711 17.3921 14.1911 17.3932C14.8026 17.3989 15.4141 17.3958 16.0261 17.3958V17.3947Z" fill="white"/>
<path d="M8.81714 13.9653V17.3786C8.6867 17.3786 8.55782 17.3896 8.4326 17.3729C8.38669 17.3666 8.33138 17.3035 8.31103 17.2539C8.17173 16.9111 8.03346 16.5678 7.91085 16.2187C7.84459 16.0304 7.7251 15.937 7.53466 15.8979C6.68525 15.7246 5.89635 15.3996 5.17425 14.9211C4.99685 14.8037 4.83771 14.7949 4.64727 14.8872C4.33213 15.0406 4.00604 15.1711 3.68881 15.3198C3.58759 15.3667 3.5208 15.3714 3.43628 15.2817C3.2041 15.0354 2.96409 14.797 2.71887 14.5637C2.63695 14.4855 2.63695 14.4234 2.68078 14.3279C2.83835 13.9862 2.98288 13.6381 3.14149 13.2964C3.21193 13.144 3.1994 13.0136 3.10862 12.8759C2.61817 12.1298 2.27485 11.3216 2.10059 10.4445C2.06563 10.2692 1.96963 10.1617 1.79745 10.1001C1.44318 9.97282 1.09308 9.83403 0.746114 9.68847C0.692895 9.66603 0.633937 9.58307 0.63185 9.52672C0.621415 9.17558 0.621415 8.82392 0.63185 8.47278C0.633415 8.41695 0.694982 8.33556 0.748723 8.31312C1.10195 8.16494 1.45831 8.02511 1.8178 7.89311C1.97589 7.83519 2.06354 7.73293 2.09537 7.57327C2.27225 6.68994 2.61504 5.87444 3.11018 5.12363C3.20149 4.98537 3.20984 4.85441 3.1394 4.70258C2.98079 4.36135 2.83678 4.01282 2.67817 3.67107C2.63278 3.57246 2.6406 3.51193 2.72096 3.43576C2.96566 3.20201 3.20514 2.96253 3.43889 2.71834C3.51402 2.63956 3.5735 2.62756 3.67368 2.674C4.01491 2.83365 4.36344 2.97661 4.70467 3.13627C4.8565 3.20723 4.98746 3.1994 5.12572 3.1081C5.87705 2.61347 6.69203 2.27068 7.57484 2.09328C7.74389 2.05937 7.84406 1.9618 7.90302 1.79797C8.02563 1.4557 8.16599 1.12021 8.29016 0.778462C8.33138 0.665763 8.3846 0.615674 8.51295 0.619326C8.84479 0.62924 9.17662 0.626631 9.50846 0.62037C9.61646 0.618283 9.66916 0.651153 9.70725 0.755504C9.83351 1.10299 9.97804 1.44422 10.1022 1.79223C10.1638 1.96441 10.2697 2.06198 10.4455 2.09641C11.3236 2.26911 12.1313 2.61399 12.8774 3.10392C13.0162 3.19471 13.1456 3.20879 13.298 3.13836C13.6397 2.98079 13.9877 2.83626 14.33 2.67921C14.4234 2.63643 14.4865 2.62913 14.5663 2.71313C14.8037 2.96305 15.0484 3.20671 15.2973 3.44567C15.3725 3.51819 15.373 3.57715 15.3323 3.66585C15.1773 4.00186 15.037 4.34465 14.8778 4.67858C14.7954 4.85128 14.8121 4.99372 14.9154 5.15129C15.3985 5.88644 15.734 6.6842 15.9057 7.54823C15.9422 7.73293 16.0419 7.84302 16.2208 7.90563C16.5328 8.0152 16.8391 8.14198 17.148 8.26094C17.3181 8.32669 17.3903 8.46252 17.3645 8.66843H13.9642C13.8088 7.05204 13.0793 5.76487 11.728 4.85702C10.7351 4.19021 9.62742 3.93247 8.44199 4.06865C6.10662 4.33787 4.31752 6.17862 4.0723 8.45556C3.91943 9.87786 4.31439 11.1509 5.24886 12.2351C6.18227 13.3178 7.38596 13.8792 8.81766 13.9637L8.81714 13.9653Z" fill="white"/>
<path d="M13.3039 8.68199C13.2335 8.68199 13.1641 8.68199 13.0942 8.68199C12.3068 8.68199 11.5195 8.67834 10.7322 8.68303C9.76641 8.68877 9.03073 9.29244 8.85229 10.2248C8.82673 10.3573 8.82777 10.4967 8.82725 10.6323C8.82516 11.452 8.8262 12.2722 8.8262 13.0919C8.8262 13.1618 8.8262 13.2317 8.8262 13.3246C7.838 13.2781 6.98232 12.9499 6.24195 12.3317C5.32575 11.5668 4.79148 10.5822 4.69182 9.39418C4.46121 6.64141 6.68075 4.64204 9.03752 4.67022C11.5002 4.69943 13.2376 6.73271 13.3034 8.68147L13.3039 8.68199Z" fill="white"/>
<path d="M15.8184 11.9758C15.1485 11.9758 14.478 11.979 13.8081 11.9732C13.6881 11.9722 13.6297 12.0077 13.5754 12.1204C13.3766 12.5331 13.0328 12.7517 12.5783 12.748C12.1322 12.7444 11.7952 12.5263 11.6026 12.1193C11.5489 12.0061 11.4884 11.9659 11.3684 11.9737C11.2191 11.9831 11.0689 11.9805 10.9197 11.9743C10.6932 11.9654 10.5508 11.8386 10.5508 11.6544C10.5508 11.4697 10.6964 11.3435 10.9191 11.3351C10.9583 11.3335 10.9974 11.332 11.036 11.3351C11.3256 11.3591 11.5291 11.3189 11.7221 11.0158C12.164 10.3229 13.1997 10.4283 13.5639 11.1687C13.6297 11.3022 13.7006 11.3388 13.8415 11.3382C15.162 11.333 16.4831 11.3351 17.8037 11.3351C18.1105 11.3351 18.2717 11.4442 18.2738 11.6518C18.2759 11.8605 18.112 11.9758 17.8094 11.9758C17.1458 11.9763 16.4821 11.9758 15.8184 11.9758ZM12.5799 12.1125C12.8408 12.1157 13.0427 11.9242 13.0484 11.6675C13.0547 11.4009 12.8538 11.1963 12.5867 11.1968C12.3289 11.1974 12.1275 11.3962 12.1254 11.6513C12.1233 11.9059 12.3242 12.1094 12.5799 12.1125Z" fill="#DB2828"/>
<path d="M14.7019 14.6561C13.793 14.6561 12.883 14.6561 11.9726 14.6561C11.6345 14.6561 11.2964 14.6576 10.9578 14.6555C10.6948 14.654 10.5503 14.5397 10.5508 14.3409C10.5513 14.1432 10.7021 14.0242 10.9588 14.0242C12.1489 14.0237 13.339 14.0216 14.5292 14.0268C14.6627 14.0273 14.7279 13.9887 14.789 13.8646C14.9867 13.4628 15.3248 13.2458 15.7725 13.2473C16.2191 13.2494 16.5614 13.4623 16.7503 13.8698C16.8139 14.007 16.8906 14.0273 17.0164 14.0253C17.3091 14.02 17.6018 14.0216 17.8945 14.0242C18.1199 14.0258 18.2665 14.1474 18.2738 14.3315C18.2811 14.5241 18.1361 14.6519 17.8945 14.6545C17.5825 14.6581 17.2699 14.6503 16.9579 14.6608C16.8984 14.6628 16.8129 14.7135 16.7868 14.7656C16.5713 15.194 16.2384 15.4392 15.7522 15.4314C15.2659 15.4236 14.9372 15.1695 14.7436 14.7307C14.7332 14.7072 14.7186 14.6858 14.7013 14.6555L14.7019 14.6561ZM15.7725 14.8037C16.0235 14.8022 16.229 14.5992 16.2332 14.3487C16.2374 14.091 16.0245 13.8766 15.7668 13.8786C15.5158 13.8807 15.3118 14.0842 15.3092 14.3357C15.3061 14.5971 15.5121 14.8048 15.773 14.8037H15.7725Z" fill="#DB2828"/>
<path d="M16.0261 17.3948C15.4146 17.3948 14.8026 17.3979 14.1911 17.3922C14.0706 17.3911 14.0116 17.4276 13.9579 17.5403C13.7601 17.9525 13.422 18.1732 12.9639 18.1717C12.5053 18.1701 12.1709 17.9442 11.9747 17.5325C11.9236 17.4256 11.8688 17.3901 11.7561 17.3927C11.4764 17.3995 11.1962 17.3979 10.9166 17.3932C10.688 17.3896 10.5482 17.2638 10.5508 17.0765C10.5529 16.8918 10.6985 16.7634 10.9223 16.7603C11.202 16.7561 11.4821 16.7561 11.7618 16.7603C11.862 16.7619 11.9209 16.7431 11.97 16.6372C12.1646 16.2135 12.509 15.9839 12.9712 15.985C13.4335 15.986 13.7789 16.2172 13.9688 16.6419C14.0241 16.7661 14.1024 16.7588 14.2 16.7588C15.3713 16.7588 16.5426 16.7588 17.7135 16.7588C17.7656 16.7588 17.8178 16.7582 17.8695 16.7588C18.1183 16.7624 18.277 16.8897 18.2744 17.0833C18.2717 17.2737 18.1262 17.3927 17.8804 17.3932C17.2621 17.3953 16.6444 17.3937 16.0261 17.3942V17.3948ZM12.9598 17.5393C13.2217 17.5429 13.4361 17.3353 13.4356 17.0791C13.4346 16.8292 13.2311 16.6262 12.977 16.6221C12.7135 16.6184 12.5006 16.824 12.5011 17.0812C12.5017 17.329 12.7088 17.5356 12.9598 17.5393Z" fill="#DB2828"/>
<path d="M12.58 12.1126C12.3243 12.1094 12.1234 11.906 12.1255 11.6513C12.1276 11.3962 12.329 11.1974 12.5867 11.1969C12.8544 11.1964 13.0553 11.4009 13.0485 11.6675C13.0422 11.9242 12.8408 12.1152 12.58 12.1126Z" fill="white"/>
<path d="M15.7725 14.8037C15.5116 14.8053 15.3055 14.5971 15.3086 14.3357C15.3118 14.0842 15.5152 13.8808 15.7662 13.8787C16.024 13.8766 16.2368 14.091 16.2327 14.3488C16.2285 14.5992 16.0229 14.8022 15.7719 14.8037H15.7725Z" fill="white"/>
<path d="M12.9596 17.5393C12.7086 17.5361 12.5015 17.329 12.501 17.0812C12.5005 16.8234 12.7133 16.6178 12.9768 16.622C13.2309 16.6257 13.4349 16.8286 13.4354 17.0791C13.4365 17.3352 13.2215 17.5429 12.9596 17.5393Z" fill="white"/>
</svg>
