<svg width="34" height="34" viewBox="0 0 34 34" fill="none" xmlns="http://www.w3.org/2000/svg">
<g clip-path="url(#clip0_1_1523)">
<path d="M27.2818 15.6301V12.7028C26.6432 12.6274 26.0074 12.5502 25.3707 12.4777C23.9542 12.3157 24.1831 12.4475 23.8007 11.2307C23.5577 10.4546 23.1668 9.72276 22.8127 8.98435C22.5998 8.54074 22.5838 8.42489 22.8918 8.03213C23.4277 7.34835 23.9636 6.6655 24.476 6.0128C23.7686 5.30358 23.0754 4.60849 22.3521 3.88232C21.8096 4.3071 21.2209 4.76767 20.6323 5.22918C20.4938 5.33749 20.3544 5.44674 20.2169 5.55694C19.988 5.73966 19.7432 5.75756 19.4964 5.60874C18.5545 5.04175 17.5411 4.64711 16.4787 4.37585C16.1283 4.28638 15.9946 4.03961 15.9578 3.70808C15.8618 2.84534 15.7629 1.9826 15.6621 1.09255H12.7047C12.6359 1.57195 12.5634 2.06643 12.4965 2.5609C12.4428 2.95648 12.4005 3.353 12.3421 3.74764C12.2968 4.05374 12.1386 4.26189 11.8146 4.32688C10.7456 4.54256 9.75196 4.94662 8.83365 5.53622C8.56993 5.70575 8.31375 5.68692 8.05662 5.47971C7.35211 4.91365 6.6363 4.36079 5.9544 3.8277C5.24519 4.53409 4.54821 5.22635 3.82393 5.94875C4.31934 6.58168 4.84584 7.25416 5.37328 7.92665C5.73966 8.39381 5.70293 8.45408 5.45616 8.99942C5.06152 9.87158 4.70833 10.7645 4.38151 11.6649C4.19313 12.1838 4.14039 12.2799 3.59223 12.3458C2.74362 12.4475 1.89595 12.5483 1.02756 12.6519V15.5999C1.57007 15.6649 2.12388 15.7309 2.67675 15.7977C3.04972 15.842 3.4227 15.8844 3.79567 15.9315C4.08671 15.9682 4.25718 16.1321 4.31746 16.4212C4.5388 17.4884 4.93155 18.4867 5.5268 19.4022C5.71046 19.6838 5.68503 19.94 5.46935 20.2075C4.90329 20.9101 4.35325 21.625 3.82016 22.3041C4.53691 23.0274 5.23012 23.7253 5.93651 24.4374C6.59204 23.9231 7.27488 23.3862 7.95867 22.8494C8.37026 22.5263 8.48799 22.5141 8.93914 22.774C9.81883 23.2808 10.7541 23.6481 11.7346 23.9043C12.197 24.0248 12.2931 24.152 12.3543 24.6304C12.4598 25.4668 12.5803 26.3013 12.6962 27.1518H13.9394V22.645C11.2354 22.4971 8.99942 21.3999 7.35682 19.2054C6.23131 17.7012 5.67561 15.9899 5.67185 14.1146C5.66431 10.3623 8.18565 7.03565 11.824 5.961C15.3965 4.90612 19.2637 6.37353 21.3255 9.53722C23.3655 12.6679 23.196 17.2049 20.0135 20.3846H20.4298C24.1444 20.3846 27.8591 20.4053 31.5738 20.3723C32.7878 20.3619 33.9086 21.2511 33.8907 22.6902C33.854 25.6863 33.8531 28.6842 33.8907 31.6802C33.9096 33.142 32.7539 34.0075 31.5785 34C26.4539 33.967 21.3283 33.9859 16.2027 33.9859C14.7965 33.9859 13.9102 33.1043 13.9093 31.7066C13.9084 30.5924 13.9093 29.4782 13.9093 28.3169C13.3903 28.3169 12.9015 28.3187 12.4127 28.3169C11.8222 28.314 11.6441 28.1388 11.5857 27.5539C11.5057 26.7487 11.42 25.9424 11.3136 25.14C11.2985 25.0288 11.1704 24.8894 11.0602 24.8414C10.2907 24.5005 9.51367 24.1746 8.73287 23.8609C8.63209 23.8204 8.45973 23.8327 8.37779 23.8958C7.71379 24.4006 7.06391 24.9234 6.40838 25.4395C6.00432 25.7578 5.83196 25.7484 5.46935 25.3867C4.60378 24.524 3.73916 23.6594 2.87548 22.7948C2.57315 22.4924 2.55337 22.3069 2.8152 21.9688C3.33322 21.3 3.85972 20.6379 4.3881 19.9777C4.50018 19.8373 4.53126 19.7337 4.44555 19.5454C4.10178 18.79 3.78437 18.0224 3.47356 17.2529C3.40574 17.0862 3.35112 16.9929 3.14391 16.975C2.31414 16.9016 1.48719 16.7951 0.658355 16.7085C0.194963 16.6595 0.00188296 16.4702 0.000941103 16.0143C-0.00282631 14.7918 -0.00282631 13.5702 0.000941103 12.3477C0.00188296 11.906 0.174242 11.7138 0.625391 11.6564C1.45234 11.5509 2.27835 11.4464 3.10718 11.3616C3.35112 11.3362 3.45849 11.2429 3.54514 11.0084C3.85124 10.1758 4.19313 9.35638 4.54539 8.47386C4.04244 7.83623 3.48109 7.1289 2.92352 6.4178C2.59481 5.99867 2.60611 5.83573 2.98756 5.45428C3.83429 4.60567 4.6829 3.758 5.53057 2.91127C5.86398 2.57785 6.06272 2.56279 6.44417 2.86041C7.09216 3.36619 7.73827 3.87573 8.37874 4.39187C8.52284 4.50771 8.62644 4.53503 8.81293 4.45026C9.56924 4.10743 10.335 3.78437 11.1063 3.47827C11.2825 3.40857 11.3663 3.35018 11.3842 3.14862C11.4624 2.30754 11.565 1.46835 11.6554 0.628216C11.7016 0.198731 11.9088 0.00565053 12.3449 0.00470868C13.5674 0.00282497 14.7899 0.00282497 16.0125 0.00470868C16.4561 0.00470868 16.6548 0.179894 16.7104 0.623507C16.813 1.43821 16.9006 2.2548 17.0203 3.06762C17.0381 3.19194 17.1681 3.35206 17.2859 3.40104C18.126 3.75423 18.9765 4.08294 19.8882 4.44555C20.5079 3.95579 21.2077 3.40198 21.9075 2.84911C22.3587 2.49309 22.5282 2.50156 22.9266 2.91316C23.7846 3.79944 24.6417 4.68761 25.4979 5.57672C25.7625 5.8508 25.7823 6.08344 25.5469 6.38671C25.0354 7.04601 24.5212 7.70248 23.9937 8.3486C23.8478 8.52755 23.8393 8.6547 23.941 8.87321C24.281 9.60503 24.5909 10.351 24.8828 11.1026C24.9535 11.2834 25.0213 11.3691 25.2134 11.388C25.9961 11.4661 26.776 11.5669 27.5596 11.6394C28.1944 11.6988 28.3611 11.8617 28.3621 12.4918C28.3621 13.6202 28.3621 14.7485 28.3621 15.8768C28.3621 16.4259 28.2151 16.587 27.6764 16.6454C26.8476 16.7358 26.0178 16.8206 25.1918 16.9317C25.0825 16.9468 24.946 17.0815 24.8998 17.1926C24.6568 17.7766 24.4487 18.3746 24.2094 18.9595C24.0521 19.3429 23.7705 19.4672 23.4635 19.3259C23.1593 19.1865 23.1084 18.9011 23.2582 18.5169C23.5087 17.8745 23.7441 17.2256 23.9551 16.5691C24.1011 16.1161 24.2217 15.9983 24.7208 15.9447C25.5261 15.8589 26.3305 15.7619 27.1348 15.6687C27.18 15.663 27.2234 15.6461 27.2808 15.631L27.2818 15.6301ZM23.9259 21.4564C21.3763 21.4564 18.8258 21.4564 16.2762 21.4564C15.3824 21.4564 14.9755 21.8567 14.9745 22.7373C14.9736 25.7098 14.9736 28.6813 14.9745 31.6538C14.9745 32.51 15.3918 32.9225 16.2564 32.9225C21.3565 32.9225 26.4557 32.9225 31.5559 32.9225C32.3998 32.9225 32.8151 32.51 32.8151 31.6736C32.8151 28.7011 32.8151 25.7296 32.8151 22.7571C32.8151 21.8435 32.4262 21.4573 31.505 21.4564C28.979 21.4564 26.452 21.4564 23.9259 21.4564ZM12.4042 15.9456C12.3072 15.8721 12.2243 15.809 12.1414 15.7469C11.5396 15.2863 11.0885 14.7005 11.0112 13.946C10.9462 13.3093 10.74 12.7282 10.5751 12.1235C10.1937 10.7258 10.7597 9.62952 12.0425 9.19061C12.6726 8.97493 13.3235 8.91183 13.9884 8.98812C14.0958 9.00036 14.2484 8.96834 14.3209 8.89676C14.9745 8.24688 15.6856 8.12349 16.4947 8.53885C17.3452 8.97587 17.9367 9.90831 17.754 10.6722C17.5938 11.3399 17.3198 11.9804 17.1078 12.6369C17.0127 12.9307 16.9044 13.2302 16.878 13.5344C16.8159 14.2503 16.6068 14.8992 16.0897 15.405C15.8759 15.6141 15.8363 15.7968 15.955 16.0473C15.9899 16.1208 16.0181 16.2008 16.0322 16.2809C16.1029 16.6689 16.2941 16.8093 16.7217 16.7989C17.9376 16.7697 18.9784 17.5891 19.2967 18.7551C19.3485 18.9435 19.3768 19.1375 19.4192 19.341C21.2115 17.6664 22.1797 14.5309 21.0966 11.6149C20.0474 8.78938 17.2265 6.57414 13.6955 6.76911C10.6863 6.93487 7.96809 8.95892 7.01681 12.0312C6.12582 14.9114 7.23156 17.9018 8.85531 19.3457C8.88263 19.1837 8.90052 19.0358 8.93443 18.8927C9.25278 17.5562 10.3067 16.7141 11.6818 16.7292C11.9785 16.733 12.1349 16.6388 12.2206 16.3694C12.2658 16.2272 12.3392 16.0944 12.4042 15.9475V15.9456ZM16.9788 20.3601C16.9788 20.3676 16.9788 20.3751 16.9797 20.3827C17.3442 20.3827 17.7078 20.3798 18.0723 20.3836C18.2767 20.3855 18.3737 20.3017 18.3643 20.0879C18.353 19.8533 18.3652 19.6179 18.3596 19.3834C18.3417 18.6723 17.8491 18.0271 17.1662 17.8585C16.6614 17.7342 16.2018 17.7116 15.8335 18.2352C15.5048 18.7015 15.0697 19.0933 14.6788 19.5152C14.2945 19.9296 14.0073 19.9259 13.6183 19.503C13.1568 19.0019 12.7 18.4971 12.2356 17.9979C12.1593 17.916 12.0595 17.8086 11.9634 17.801C11.1534 17.7323 10.3463 17.9753 10.0411 18.9219C9.9262 19.2779 9.95823 19.6857 9.95634 20.07C9.95634 20.1821 10.042 20.3375 10.1372 20.4006C11.2467 21.1324 12.4645 21.543 13.8 21.5948C14.0195 21.6033 14.1561 21.5525 14.286 21.3528C14.6063 20.864 15.0574 20.5221 15.648 20.4411C16.0869 20.3808 16.5352 20.3855 16.9797 20.361L16.9788 20.3601ZM13.8782 12.1754C13.4911 12.1754 13.104 12.1669 12.7169 12.181C12.6152 12.1848 12.4702 12.2281 12.4249 12.3016C12.2206 12.6387 12.035 12.9703 12.0567 13.4073C12.1066 14.4019 12.7866 15.162 13.8066 15.2844C14.6779 15.389 15.5208 14.7381 15.7685 13.8161C15.9268 13.2265 15.7101 12.7763 15.3588 12.3383C15.1139 12.0331 14.7928 12.2196 14.5093 12.1801C14.3021 12.1509 14.0883 12.1744 13.8763 12.1744L13.8782 12.1754ZM16.4382 11.7581C16.538 11.3889 16.6049 11.0065 16.7452 10.6533C16.943 10.1541 16.246 9.30458 15.6725 9.36486C15.4982 9.38275 15.2552 9.49672 15.1874 9.63705C14.9576 10.1117 14.61 10.1325 14.1617 10.0524C13.4808 9.93091 12.8045 9.9667 12.1819 10.3171C11.7195 10.577 11.5839 10.8822 11.6536 11.3239C11.9597 11.2646 12.2629 11.1629 12.57 11.1544C13.3903 11.1308 14.2126 11.1666 15.0329 11.1393C15.5971 11.1205 16.0925 11.1826 16.4382 11.7591V11.7581ZM14.902 16.2347C14.643 16.2734 14.3859 16.3798 14.1627 16.3308C13.5316 16.1924 13.3131 16.5408 13.1831 17.0485C13.169 17.1041 13.1257 17.1559 13.1219 17.2114C13.1172 17.2736 13.1191 17.3565 13.1558 17.397C13.4874 17.769 13.8274 18.1335 14.1834 18.5206C14.3303 18.3596 14.4311 18.2079 14.5677 18.1062C15.243 17.6033 15.3626 16.9976 14.9397 16.2771C14.934 16.2668 14.9246 16.2592 14.902 16.2347Z" fill="#2169CF"/>
<path d="M23.9259 21.4564C26.452 21.4564 28.979 21.4564 31.505 21.4564C32.4262 21.4564 32.8151 21.8435 32.8151 22.7571C32.8151 25.7296 32.8151 28.7012 32.8151 31.6737C32.8151 32.5091 32.3998 32.9226 31.5559 32.9226C26.4557 32.9226 21.3565 32.9226 16.2564 32.9226C15.3927 32.9226 14.9755 32.51 14.9745 31.6539C14.9736 28.6814 14.9736 25.7098 14.9745 22.7373C14.9745 21.8567 15.3824 21.4574 16.2762 21.4564C18.8258 21.4564 21.3763 21.4564 23.9259 21.4564ZM21.9009 25.1711C22.0337 25.1711 22.1618 25.1711 22.2909 25.1711C24.9817 25.1711 27.6736 25.1711 30.3644 25.1711C30.9437 25.1711 31.182 25.0157 31.181 24.638C31.181 24.2613 30.9456 24.1077 30.3616 24.1077C27.6472 24.1077 24.9318 24.1077 22.2174 24.1077C22.046 24.1077 21.8972 24.1285 21.7907 23.9081C21.5167 23.343 21.0401 23.0547 20.4043 23.0519C19.7554 23.05 19.2929 23.3505 18.9755 23.9118C18.9228 24.006 18.7712 24.0936 18.6619 24.0983C18.1693 24.119 17.6748 24.1021 17.1813 24.1115C16.8196 24.1181 16.6087 24.3253 16.6115 24.6418C16.6143 24.9611 16.8281 25.1636 17.1879 25.1683C17.6701 25.1749 18.1514 25.1786 18.6336 25.1654C18.823 25.1607 18.9143 25.2191 19.0057 25.3934C19.2967 25.95 19.7752 26.2335 20.4081 26.2269C21.139 26.2194 21.6099 25.8276 21.9 25.1702L21.9009 25.1711ZM21.4592 29.1985C20.0379 29.1985 18.6176 29.1956 17.1964 29.2003C16.8338 29.2013 16.6209 29.4038 16.6124 29.7221C16.6039 30.0367 16.813 30.2411 17.1728 30.2656C17.2896 30.2731 17.4074 30.2703 17.5251 30.2703C20.2028 30.2703 22.8805 30.2731 25.5572 30.2665C25.7917 30.2665 25.9236 30.324 26.0489 30.5453C26.6479 31.6049 28.1765 31.5964 28.7671 30.5302C28.8848 30.3174 29.0091 30.2599 29.2314 30.2656C29.6891 30.2788 30.1478 30.2769 30.6056 30.2637C30.9795 30.2533 31.1791 30.0593 31.181 29.7391C31.1839 29.4085 30.9635 29.2032 30.583 29.1985C30.1252 29.1919 29.6665 29.1872 29.2088 29.2013C29.0016 29.2069 28.881 29.1608 28.7746 28.9564C28.4911 28.4111 28.0098 28.1398 27.3976 28.1426C26.7845 28.1445 26.3098 28.4214 26.0253 28.9668C25.9264 29.157 25.8115 29.2022 25.6166 29.2013C24.2311 29.1947 22.8447 29.1975 21.4592 29.1985Z" fill="white"/>
<path d="M12.4042 15.9456C12.3392 16.0925 12.2658 16.2262 12.2206 16.3675C12.1339 16.6369 11.9785 16.7301 11.6818 16.7273C10.3067 16.7113 9.25278 17.5543 8.93443 18.8907C8.90052 19.0339 8.88357 19.1818 8.85531 19.3438C7.23156 17.8999 6.12582 14.9095 7.01682 12.0293C7.96715 8.95701 10.6863 6.9339 13.6955 6.76719C17.2265 6.57223 20.0474 8.78841 21.0966 11.613C22.1797 14.529 21.2106 17.6654 19.4192 19.3391C19.3768 19.1356 19.3485 18.9416 19.2967 18.7532C18.9784 17.5863 17.9376 16.7678 16.7217 16.797C16.295 16.8074 16.1029 16.667 16.0322 16.279C16.0181 16.1989 15.9899 16.1198 15.955 16.0454C15.8363 15.7949 15.8759 15.6121 16.0897 15.4031C16.6068 14.8973 16.8168 14.2474 16.878 13.5325C16.9044 13.2293 17.0127 12.9288 17.1078 12.6349C17.3198 11.9785 17.5938 11.338 17.754 10.6702C17.9367 9.9064 17.3452 8.97396 16.4947 8.53694C15.6856 8.12158 14.9745 8.24496 14.3209 8.89484C14.2484 8.96642 14.0967 8.99939 13.9884 8.9862C13.3235 8.90897 12.6727 8.97302 12.0426 9.1887C10.7597 9.62761 10.1927 10.7239 10.5751 12.1216C10.74 12.7263 10.9462 13.3074 11.0112 13.9441C11.0885 14.6986 11.5396 15.2853 12.1414 15.745C12.2234 15.8081 12.3063 15.8702 12.4042 15.9437V15.9456Z" fill="white"/>
<path d="M16.9788 20.3601C16.5343 20.3845 16.0869 20.3798 15.647 20.4401C15.0565 20.5211 14.6053 20.8639 14.2851 21.3518C14.1542 21.5515 14.0186 21.6024 13.7991 21.5939C12.4636 21.5421 11.2467 21.1324 10.1362 20.3996C10.0411 20.3375 9.9554 20.1811 9.9554 20.069C9.95728 19.6847 9.92526 19.2769 10.0402 18.9209C10.3463 17.9743 11.1534 17.7323 11.9625 17.8001C12.0586 17.8086 12.1584 17.9159 12.2347 17.9969C12.699 18.4952 13.1558 19 13.6173 19.502C14.0063 19.9249 14.2936 19.9287 14.6779 19.5143C15.0687 19.0923 15.5048 18.7005 15.8326 18.2343C16.2008 17.7106 16.6614 17.7332 17.1653 17.8576C17.8481 18.0261 18.3407 18.6713 18.3586 19.3824C18.3643 19.6169 18.352 19.8524 18.3633 20.0869C18.3737 20.3007 18.2757 20.3855 18.0714 20.3827C17.7069 20.3789 17.3433 20.3817 16.9788 20.3817C16.9788 20.3742 16.9788 20.3667 16.9779 20.3591L16.9788 20.3601Z" fill="white"/>
<path d="M13.8782 12.1744C14.0892 12.1744 14.3039 12.1509 14.5112 12.1801C14.7946 12.2196 15.1158 12.0331 15.3607 12.3383C15.712 12.7753 15.9286 13.2255 15.7704 13.8161C15.5227 14.7381 14.6797 15.389 13.8085 15.2844C12.7885 15.162 12.1085 14.4019 12.0586 13.4073C12.0369 12.9712 12.2215 12.6387 12.4268 12.3016C12.472 12.2271 12.618 12.1838 12.7188 12.181C13.105 12.1669 13.493 12.1753 13.8801 12.1753L13.8782 12.1744Z" fill="white"/>
<path d="M16.4382 11.7581C16.0925 11.1817 15.5971 11.1195 15.0329 11.1384C14.2126 11.1657 13.3903 11.1299 12.57 11.1534C12.2639 11.1619 11.9597 11.2636 11.6536 11.323C11.5839 10.8812 11.7195 10.5761 12.1819 10.3161C12.8045 9.96576 13.4808 9.92997 14.1617 10.0515C14.61 10.1315 14.9576 10.1108 15.1874 9.63611C15.2552 9.49671 15.4982 9.38275 15.6725 9.36391C16.246 9.30458 16.943 10.1541 16.7452 10.6524C16.6049 11.0056 16.538 11.388 16.4382 11.7572V11.7581Z" fill="white"/>
<path d="M14.902 16.2347C14.9236 16.2602 14.9331 16.2677 14.9396 16.2771C15.3625 16.9976 15.2429 17.6042 14.5676 18.1062C14.4311 18.2079 14.3303 18.3595 14.1834 18.5206C13.8273 18.1335 13.4883 17.769 13.1558 17.397C13.1191 17.3565 13.1172 17.2726 13.1219 17.2114C13.1266 17.1559 13.169 17.105 13.1831 17.0485C13.3131 16.5418 13.5316 16.1924 14.1626 16.3308C14.3858 16.3798 14.643 16.2724 14.902 16.2347Z" fill="white"/>
<path d="M21.9009 25.1711C21.6108 25.8285 21.139 26.2203 20.409 26.2279C19.7761 26.2345 19.2977 25.9519 19.0066 25.3943C18.9153 25.2201 18.8239 25.1617 18.6346 25.1664C18.1533 25.1796 17.6711 25.1749 17.1888 25.1692C16.8291 25.1645 16.6153 24.9629 16.6124 24.6427C16.6096 24.3253 16.8206 24.119 17.1822 24.1125C17.6758 24.103 18.1703 24.12 18.6628 24.0993C18.7721 24.0946 18.9228 24.007 18.9765 23.9128C19.2939 23.3514 19.7563 23.051 20.4053 23.0529C21.041 23.0547 21.5167 23.3439 21.7917 23.909C21.8991 24.1294 22.0469 24.1087 22.2183 24.1087C24.9328 24.1087 27.6481 24.1087 30.3626 24.1087C30.9456 24.1087 31.181 24.2622 31.182 24.6389C31.182 25.0166 30.9446 25.172 30.3654 25.172C27.6745 25.172 24.9827 25.172 22.2918 25.172C22.1628 25.172 22.0347 25.172 21.9019 25.172L21.9009 25.1711ZM20.3751 25.1654C20.6351 25.172 20.8894 24.9262 20.9035 24.6568C20.9186 24.362 20.6812 24.1125 20.3883 24.1143C20.1076 24.1162 19.8854 24.3441 19.8816 24.6314C19.8778 24.9111 20.1067 25.1579 20.3761 25.1645L20.3751 25.1654Z" fill="#2169CF"/>
<path d="M21.4592 29.1984C22.8447 29.1984 24.2311 29.1956 25.6166 29.2022C25.8115 29.2022 25.9264 29.1579 26.0253 28.9677C26.3098 28.4224 26.7845 28.1454 27.3976 28.1436C28.0108 28.1417 28.4911 28.412 28.7746 28.9573C28.881 29.1617 29.0016 29.2088 29.2088 29.2022C29.6665 29.189 30.1243 29.1937 30.583 29.1994C30.9635 29.2041 31.1839 29.4104 31.181 29.74C31.1782 30.0602 30.9785 30.2543 30.6056 30.2646C30.1478 30.2769 29.6891 30.2797 29.2314 30.2665C29.0091 30.2599 28.8848 30.3174 28.7671 30.5312C28.1765 31.5964 26.6488 31.6058 26.0489 30.5462C25.9236 30.324 25.7917 30.2665 25.5572 30.2674C22.8795 30.274 20.2018 30.2722 17.5251 30.2712C17.4074 30.2712 17.2896 30.274 17.1728 30.2665C16.813 30.243 16.604 30.0376 16.6124 29.7231C16.6209 29.4047 16.8338 29.2022 17.1964 29.2013C18.6176 29.1966 20.038 29.1994 21.4592 29.1994V29.1984ZM27.392 29.2116C27.1141 29.2182 26.8862 29.4509 26.8834 29.7315C26.8805 30.0226 27.1216 30.258 27.4202 30.2543C27.7103 30.2514 27.9279 30.0329 27.9298 29.7447C27.9316 29.4584 27.6755 29.205 27.392 29.2116Z" fill="#2169CF"/>
<path d="M20.3751 25.1654C20.1058 25.1588 19.8769 24.912 19.8807 24.6323C19.8844 24.3441 20.1067 24.1171 20.3874 24.1152C20.6803 24.1134 20.9176 24.362 20.9025 24.6577C20.8894 24.9271 20.6341 25.1729 20.3742 25.1663L20.3751 25.1654Z" fill="white"/>
<path d="M27.3919 29.2116C27.6754 29.205 27.9307 29.4583 27.9297 29.7446C27.9278 30.0328 27.7103 30.2513 27.4202 30.2542C27.1216 30.2579 26.8805 30.0225 26.8833 29.7314C26.8862 29.4508 27.1141 29.2181 27.3919 29.2116Z" fill="white"/>
</g>
<defs>
<clipPath id="clip0_1_1523">
<rect width="33.8936" height="34" fill="white"/>
</clipPath>
</defs>
</svg>
