<svg width="30" height="30" viewBox="0 0 30 30" fill="none" xmlns="http://www.w3.org/2000/svg">
<g clip-path="url(#clip0_1_1496)">
<path d="M0 19.6487C0.165527 19.1426 0.366211 18.6431 0.856934 18.3758C1.20455 18.1861 1.57818 18.0487 1.96582 17.9678C3.09961 17.732 4.10156 17.2537 4.93652 16.4488C5.8689 15.5501 6.94409 14.9107 8.22217 14.6631C8.70992 14.5733 9.2043 14.5243 9.7002 14.5166C10.6245 14.4939 11.5496 14.51 12.498 14.51C12.5046 14.4112 12.5149 14.3277 12.5149 14.2434C12.5149 13.3572 12.5149 12.4702 12.5186 11.584C12.5186 11.4112 12.4863 11.3116 12.3113 11.2259C11.6111 10.8816 11.2683 10.3015 11.2273 9.52371C11.198 8.97 11.2668 8.44632 11.5122 7.93948C11.707 7.53812 11.8564 7.11405 12.0117 6.69437C12.1787 6.24246 12.5002 6.03958 12.9727 6.04251C13.5586 6.04251 14.1445 6.04251 14.7268 6.04251H24.8408C25.541 6.04251 25.7395 6.17728 26.0002 6.83133C26.1833 7.29129 26.3474 7.76077 26.5518 8.21121C26.8066 8.77444 26.7554 9.35233 26.6711 9.92801C26.5979 10.4348 26.3013 10.826 25.8728 11.0999C25.7073 11.2054 25.6641 11.3196 25.6655 11.5013C25.6743 12.4073 25.6699 13.3133 25.6692 14.2193C25.6692 15.1472 25.2473 15.5669 24.3105 15.5677H18.3779C18.4043 15.6145 18.4131 15.6534 18.4373 15.6695C19.5454 16.4107 20.6506 17.1563 21.7654 17.888C22.5498 18.4007 23.4595 18.5472 24.3567 18.72C25.3293 18.9097 26.3108 19.0672 27.2688 19.3155C28.6816 19.6817 29.6125 20.6104 29.8828 22.0401C30.0293 22.8311 29.978 23.6756 29.9033 24.4856C29.8301 25.2576 29.1306 25.7798 28.3447 25.7893C27.9954 25.7937 27.646 25.7893 27.2769 25.7893C27.2158 26.1575 27.0804 26.5094 26.879 26.8236C26.6775 27.1378 26.4141 27.4076 26.105 27.6167C25.6465 27.9377 25.0978 28.1044 24.5383 28.0928C23.3342 28.0745 22.1616 27.2871 21.8423 25.8025H8.0376C7.92188 26.3321 7.71826 26.8213 7.33374 27.2132C6.58447 27.9778 5.67627 28.2657 4.64282 27.9947C3.55005 27.7083 2.87549 26.9773 2.64111 25.8655C2.63241 25.79 2.60267 25.7184 2.55527 25.659C2.50788 25.5996 2.44474 25.5546 2.37305 25.5293C1.94238 25.3499 1.5249 25.1389 1.09131 24.9683C0.578613 24.7669 0.183838 24.4556 0 23.9195V19.6487ZM21.8372 24.9009C22.2195 23.2676 23.4807 22.6136 24.5625 22.6128C25.6311 22.6128 26.9004 23.2486 27.2952 24.9082C27.6614 24.9082 28.0276 24.9251 28.3938 24.9031C28.5614 24.8917 28.7196 24.8212 28.8402 24.7043C28.9609 24.5874 29.0362 24.4316 29.053 24.2644C29.0786 23.9671 29.0581 23.666 29.0581 23.3357C28.6099 23.3357 28.1836 23.3423 27.7581 23.3357C27.4211 23.3291 27.1399 23.1643 27.0864 22.8758C26.915 21.9522 26.9473 21.0447 28.0591 20.6353C27.739 20.461 27.4182 20.2647 27.0703 20.1834C26.1182 19.96 25.1543 19.7476 24.1853 19.5974C22.7843 19.3955 21.4543 18.8525 20.3123 18.0161C19.5666 17.4698 18.7742 16.9842 18.0183 16.4561C17.0139 15.7529 15.8144 15.3822 14.5884 15.3963C12.9619 15.3963 11.3347 15.3963 9.70679 15.3963C8.25 15.3963 6.92358 15.8064 5.8623 16.8238C4.7146 17.9224 3.40356 18.6431 1.83398 18.8972C1.32568 18.98 0.988037 19.3001 0.909668 19.8208C0.86792 20.0926 0.902344 20.376 0.902344 20.6836C1.12866 20.6836 1.3418 20.6778 1.55347 20.6836C2.08081 20.7005 2.33423 20.9597 2.33862 21.4893C2.34229 21.8306 2.33862 22.1719 2.33862 22.5147C2.33423 23.0464 2.06177 23.3203 1.52783 23.3306C1.31689 23.3343 1.10522 23.3306 0.79541 23.3306C0.897217 23.584 0.919189 23.8653 1.05542 23.9407C1.56812 24.2256 2.1145 24.4431 2.65356 24.6885C3.0791 23.2874 4.23267 22.6077 5.354 22.618C6.3999 22.6282 7.6604 23.2537 8.05518 24.9046L21.8372 24.9009ZM17.5115 10.7469C17.1174 11.1753 16.6428 11.4119 16.0649 11.417C15.7994 11.4194 15.5363 11.3664 15.2923 11.2614C15.0484 11.1563 14.8291 11.0015 14.6484 10.8069L13.4136 11.4895V14.4383C14.3958 14.521 15.3516 14.658 16.3096 14.6712C19.0078 14.7027 21.7068 14.68 24.405 14.6858C24.6841 14.6858 24.7917 14.5679 24.791 14.3013C24.7866 13.3953 24.791 12.4893 24.791 11.5833C24.789 11.5427 24.7843 11.5024 24.7771 11.4624C24.5076 11.3819 24.2446 11.3365 24.0146 11.2251C23.7847 11.1138 23.5686 10.9322 23.3467 10.7776C22.5527 11.5994 21.3398 11.6697 20.4478 10.7688C19.4451 11.7422 18.241 11.5232 17.5115 10.7469ZM12.3325 8.2991H25.6238C25.481 7.93875 25.3308 7.6033 25.2166 7.2554C25.1374 7.0137 25.0151 6.93753 24.7573 6.93826C20.9087 6.94705 17.0598 6.94901 13.2107 6.94412C13.1528 6.93522 13.0938 6.93671 13.0364 6.94852C12.9565 6.98074 12.8474 7.02176 12.8166 7.08621C12.6475 7.47586 12.501 7.87503 12.3325 8.2991ZM24.5698 23.5013C24.2045 23.5027 23.8477 23.6123 23.5446 23.8162C23.2414 24.0201 23.0054 24.3092 22.8664 24.6471C22.7273 24.9849 22.6913 25.3564 22.7631 25.7146C22.8348 26.0728 23.011 26.4018 23.2695 26.6601C23.5279 26.9183 23.857 27.0942 24.2153 27.1657C24.5736 27.2372 24.945 27.2009 25.2828 27.0616C25.6205 26.9222 25.9094 26.686 26.1131 26.3827C26.3168 26.0794 26.4261 25.7226 26.4272 25.3572C26.4253 24.8653 26.229 24.3941 25.881 24.0465C25.533 23.6988 25.0617 23.5028 24.5698 23.5013ZM5.33203 27.2007C5.69749 27.1974 6.05378 27.0859 6.35594 26.8803C6.6581 26.6747 6.8926 26.3842 7.02985 26.0455C7.1671 25.7068 7.20096 25.335 7.12715 24.977C7.05333 24.6191 6.87516 24.291 6.6151 24.0342C6.35504 23.7774 6.02476 23.6034 5.66591 23.5341C5.30706 23.4649 4.93574 23.5034 4.59877 23.6449C4.26181 23.7864 3.97431 24.0246 3.77255 24.3293C3.57079 24.6341 3.4638 24.9917 3.46509 25.3572C3.47087 25.8484 3.67017 26.3175 4.0197 26.6626C4.36924 27.0078 4.84081 27.2011 5.33203 27.2007ZM14.1372 9.20804H12.1187C12.0754 9.68777 12.167 10.0957 12.5815 10.3667C12.7372 10.4782 12.9231 10.5398 13.1146 10.5433C13.3061 10.5469 13.4941 10.4922 13.6538 10.3865C14.0867 10.1228 14.1973 9.70755 14.1372 9.20804ZM15.0403 9.20804C15.0007 9.71194 15.1011 10.1316 15.5405 10.3924C15.7056 10.4997 15.8998 10.5533 16.0966 10.5457C16.2934 10.5381 16.4829 10.4697 16.6392 10.3499C17.0303 10.0738 17.1248 9.67606 17.0603 9.20804H15.0403ZM19.9863 9.20804H17.9692C17.915 9.68924 18.0146 10.0965 18.4263 10.3675C18.5821 10.4789 18.7681 10.5405 18.9597 10.544C19.1513 10.5475 19.3394 10.4929 19.4993 10.3872C19.9336 10.1228 20.0449 9.70682 19.9863 9.20804ZM20.8872 9.20804C20.8447 9.72879 20.9553 10.1536 21.4146 10.4099C21.5783 10.5092 21.7682 10.5566 21.9594 10.5457C22.1506 10.5349 22.3339 10.4663 22.4854 10.3492C22.8743 10.0708 22.9688 9.67386 22.9043 9.20804H20.8872ZM25.834 9.21829H23.814C23.7656 9.70828 23.8696 10.1177 24.2893 10.3821C24.4428 10.4881 24.6244 10.546 24.811 10.5483C24.9975 10.5507 25.1805 10.4974 25.3367 10.3953C25.7651 10.1272 25.8955 9.71854 25.8311 9.21463L25.834 9.21829ZM27.9258 22.4363H29.0537C29.0112 21.7156 28.8574 21.5142 28.3901 21.5479C27.9697 21.5786 27.8606 21.7823 27.9258 22.4363ZM0.899414 21.5794V22.4114H1.43994V21.5794H0.899414Z" fill="#2169CF"/>
<path d="M9.83716 4.91016C9.67676 4.91016 9.56104 4.91016 9.44531 4.91016C8.95752 4.90356 8.69678 4.67358 8.6792 4.18726C8.66162 3.70093 8.65942 3.19263 8.6792 2.69678C8.69824 2.22217 8.95679 1.98999 9.42773 1.98999C15.8696 1.98999 22.3108 1.98999 28.7512 1.98999C29.2236 1.98999 29.4771 2.2251 29.4932 2.69971C29.5093 3.17432 29.5049 3.65186 29.4932 4.13159C29.4836 4.67578 29.2412 4.90649 28.697 4.91016C28.5916 4.91016 28.4861 4.91016 28.3396 4.91016V5.29907C28.3396 9.42114 28.3396 13.5432 28.3396 17.6653C28.3413 17.8011 28.33 17.9367 28.3059 18.0703C28.2858 18.1656 28.2335 18.2512 28.1578 18.3125C28.0822 18.3739 27.9877 18.4074 27.8903 18.4074C27.7928 18.4074 27.6984 18.3739 27.6227 18.3125C27.547 18.2512 27.4947 18.1656 27.4746 18.0703C27.4508 17.9372 27.44 17.802 27.4424 17.6667C27.4424 13.5447 27.4424 9.42261 27.4424 5.30054V4.93433H10.7432V5.2771C10.7432 7.73267 10.7432 10.1882 10.7432 12.6438C10.7432 12.7793 10.7629 12.9426 10.6963 13.0422C10.6059 13.1799 10.4717 13.2832 10.3154 13.3352C10.1213 13.3872 9.94922 13.2693 9.89209 13.0649C9.85833 12.9334 9.84281 12.7979 9.84595 12.6621C9.84302 10.2061 9.84302 7.75049 9.84595 5.29541L9.83716 4.91016ZM9.59253 4.01367H28.5798V2.88281H9.59253V4.01367Z" fill="#2169CF"/>
<path d="M21.8372 24.9009H8.05298C7.6582 23.25 6.39771 22.6245 5.35181 22.6143C4.23047 22.604 3.0769 23.2837 2.65137 24.6848C2.1123 24.4395 1.56445 24.2219 1.05322 23.937C0.916992 23.8638 0.89502 23.5803 0.793213 23.3269C1.10303 23.3269 1.3147 23.3269 1.52563 23.3269C2.05957 23.3159 2.3313 23.0427 2.33643 22.511C2.33643 22.1704 2.34009 21.8291 2.33643 21.4856C2.33203 20.9597 2.07861 20.7004 1.55127 20.6799C1.33887 20.6726 1.12646 20.6799 0.900146 20.6799C0.900146 20.3723 0.865722 20.0889 0.907471 19.8171C0.98584 19.2964 1.32349 18.9763 1.83179 18.8936C3.40356 18.6394 4.7146 17.9209 5.86011 16.8201C6.92212 15.8064 8.25293 15.3962 9.70679 15.3962C11.3342 15.3933 12.9614 15.3933 14.5884 15.3962C15.814 15.3819 17.0132 15.752 18.0176 16.4546C18.7764 16.9827 19.5659 17.4683 20.3115 18.0146C21.4536 18.851 22.7835 19.394 24.1846 19.5959C25.1536 19.7424 26.1145 19.9578 27.0696 20.1819C27.4175 20.2632 27.7383 20.4595 28.0583 20.6338C26.9465 21.0461 26.9143 21.9521 27.0857 22.8743C27.1392 23.1628 27.4204 23.3276 27.7573 23.3342C28.1829 23.343 28.6091 23.3342 29.0574 23.3342C29.0574 23.6646 29.0779 23.9656 29.0522 24.2629C29.0355 24.4301 28.9601 24.5859 28.8395 24.7028C28.7188 24.8197 28.5607 24.8902 28.3931 24.9016C28.0269 24.9236 27.6563 24.9067 27.2944 24.9067C26.8997 23.2471 25.6304 22.6106 24.5618 22.6113C23.4807 22.6135 22.2195 23.2676 21.8372 24.9009ZM16.7747 20.8674H17.5342C18.6328 20.8674 19.7314 20.8711 20.8345 20.8674C21.4937 20.8674 21.8262 20.3914 21.55 19.79C21.4208 19.5213 21.2245 19.2902 20.9802 19.1191C19.9014 18.3713 18.802 17.6543 17.707 16.9277C16.9841 16.4487 16.1997 16.1001 15.3303 16.0408C14.4771 15.9814 13.6194 15.9924 12.7668 15.9851C12.2271 15.9807 12.011 16.2048 12.0095 16.7505C12.0066 17.8608 12.0066 18.9709 12.0095 20.0808C12.0095 20.658 12.2249 20.8682 12.8057 20.8682C14.127 20.8687 15.45 20.8684 16.7747 20.8674ZM8.15991 20.8674C8.93042 20.8674 9.698 20.8711 10.47 20.8674C10.9417 20.8674 11.2192 20.6411 11.2222 20.2346C11.2314 19.0261 11.2314 17.8176 11.2222 16.6091C11.2222 16.2766 11.0317 16.0576 10.6926 16.0181C10.3538 15.9858 10.0133 15.9748 9.6731 15.9851C8.41479 15.9932 7.28174 16.363 6.29297 17.157C5.65649 17.6697 5.0127 18.1692 4.37036 18.6731C4.23443 18.7693 4.13325 18.9068 4.0819 19.0652C4.03055 19.2236 4.0318 19.3944 4.08545 19.552C4.32202 20.3635 5.00171 20.8586 5.90918 20.8704C6.65918 20.8726 7.40991 20.8674 8.15991 20.8674ZM13.1104 22.7205V22.7446C13.3147 22.7344 13.5205 22.741 13.7212 22.7109C13.9629 22.675 14.1021 22.5242 14.094 22.2678C14.0859 22.0261 13.9475 21.8723 13.7183 21.8599C13.3206 21.8385 12.9222 21.8373 12.5244 21.8562C12.2747 21.8679 12.1326 22.0459 12.1326 22.2861C12.1299 22.3404 12.1381 22.3946 12.1565 22.4456C12.175 22.4967 12.2034 22.5436 12.2401 22.5836C12.2768 22.6236 12.3211 22.6559 12.3704 22.6786C12.4198 22.7014 12.4731 22.7141 12.5273 22.7161C12.7215 22.7278 12.9161 22.7293 13.1104 22.7205Z" fill="#F5F2FF"/>
<path d="M17.5115 10.7468C18.2439 11.5232 19.4451 11.7422 20.4412 10.7688C21.3333 11.6697 22.5461 11.5994 23.3401 10.7776C23.5598 10.9299 23.7693 11.1094 24.0081 11.2251C24.2468 11.3408 24.501 11.3818 24.7705 11.4624C24.7777 11.5023 24.7824 11.5427 24.7844 11.5833C24.7844 12.4893 24.7844 13.3953 24.7844 14.3013C24.7844 14.5679 24.6775 14.6858 24.3984 14.6858C21.7002 14.6799 19.0012 14.7026 16.303 14.6711C15.345 14.6594 14.3892 14.5247 13.407 14.4382V11.4895L14.6418 10.8069C14.8225 11.0015 15.0419 11.1563 15.2858 11.2613C15.5297 11.3664 15.7928 11.4194 16.0584 11.417C16.6428 11.4119 17.1152 11.1753 17.5115 10.7468Z" fill="white"/>
<path d="M12.3325 8.29907C12.4995 7.875 12.6497 7.47583 12.8188 7.08618C12.8474 7.02026 12.9565 6.98071 13.0386 6.94849C13.096 6.93667 13.155 6.93519 13.2129 6.94409C17.0615 6.94409 20.9104 6.94214 24.7595 6.93823C25.0173 6.93823 25.1397 7.01147 25.2188 7.25537C25.3315 7.60327 25.4832 7.93872 25.626 8.29907H12.3325Z" fill="#F5F2FF"/>
<path d="M24.5698 23.5012C24.9353 23.5045 25.2915 23.616 25.5937 23.8216C25.8958 24.0272 26.1303 24.3176 26.2676 24.6563C26.4049 24.995 26.4388 25.3667 26.365 25.7246C26.2912 26.0826 26.1131 26.4106 25.8532 26.6674C25.5932 26.9243 25.263 27.0983 24.9042 27.1677C24.5454 27.2371 24.1741 27.1986 23.8371 27.0572C23.5001 26.9158 23.2126 26.6778 23.0107 26.3731C22.8088 26.0685 22.7017 25.7109 22.7029 25.3455C22.7089 24.8543 22.9082 24.3852 23.2577 24.04C23.6071 23.6948 24.0786 23.5012 24.5698 23.5012ZM24.5515 26.7825C24.8346 26.7828 25.1114 26.6991 25.347 26.5422C25.5825 26.3852 25.7663 26.1619 25.875 25.9006C25.9837 25.6392 26.0126 25.3515 25.9578 25.0738C25.9031 24.796 25.7673 24.5407 25.5675 24.3402C25.3678 24.1396 25.1131 24.0027 24.8355 23.9469C24.558 23.891 24.2702 23.9186 24.0084 24.0263C23.7466 24.134 23.5226 24.3168 23.3646 24.5517C23.2067 24.7867 23.122 25.0631 23.1211 25.3462C23.1232 25.7255 23.2744 26.0887 23.542 26.3574C23.8097 26.6261 24.1723 26.7788 24.5515 26.7825Z" fill="#F5F2FF"/>
<path d="M5.33203 27.2007C4.96662 27.1997 4.60969 27.0905 4.30626 26.8868C4.00283 26.6832 3.7665 26.3943 3.62706 26.0566C3.48762 25.7188 3.45133 25.3473 3.52277 24.9889C3.5942 24.6306 3.77015 24.3014 4.02844 24.0429C4.28672 23.7844 4.61577 23.6082 4.97408 23.5365C5.33239 23.4648 5.70391 23.5008 6.04179 23.6399C6.37966 23.7791 6.66876 24.0152 6.87261 24.3185C7.07647 24.6217 7.18595 24.9786 7.18726 25.344C7.18668 25.836 6.99108 26.3077 6.64332 26.6557C6.29557 27.0037 5.82402 27.1997 5.33203 27.2007ZM5.33203 26.7825C5.61524 26.7797 5.89127 26.693 6.12521 26.5333C6.35915 26.3737 6.54048 26.1482 6.64628 25.8855C6.75207 25.6228 6.77758 25.3346 6.71957 25.0574C6.66156 24.7802 6.52264 24.5264 6.32039 24.3281C6.11813 24.1298 5.86161 23.996 5.58329 23.9435C5.30497 23.8911 5.01734 23.9223 4.75678 24.0333C4.49622 24.1444 4.27443 24.3302 4.11947 24.5672C3.96452 24.8043 3.88335 25.082 3.88623 25.3652C3.89389 25.7435 4.04947 26.1037 4.31961 26.3687C4.58974 26.6336 4.95293 26.7822 5.3313 26.7825H5.33203Z" fill="#F5F2FF"/>
<path d="M14.1372 9.20801C14.1973 9.70752 14.0867 10.1213 13.6538 10.3865C13.4941 10.4921 13.3061 10.5468 13.1146 10.5433C12.9231 10.5398 12.7372 10.4782 12.5815 10.3667C12.167 10.0957 12.0754 9.68774 12.1187 9.20801H14.1372Z" fill="#F5F2FF"/>
<path d="M15.0403 9.20581H17.0574C17.1218 9.67383 17.0273 10.0715 16.6362 10.3477C16.48 10.4675 16.2904 10.5359 16.0937 10.5435C15.8969 10.5511 15.7026 10.4975 15.5376 10.3901C15.1011 10.1294 15.0007 9.70972 15.0403 9.20581Z" fill="#F5F2FF"/>
<path d="M19.9863 9.20801C20.0413 9.70679 19.9336 10.1221 19.4993 10.3872C19.3394 10.4928 19.1513 10.5475 18.9597 10.544C18.7681 10.5404 18.5821 10.4789 18.4263 10.3674C18.0146 10.0964 17.9136 9.68921 17.9692 9.20801H19.9863Z" fill="#F5F2FF"/>
<path d="M20.8872 9.20435H22.9014C22.9658 9.67017 22.8713 10.0671 22.4824 10.3455C22.331 10.4627 22.1476 10.5312 21.9565 10.542C21.7653 10.5529 21.5753 10.5056 21.4116 10.4062C20.9553 10.1499 20.8447 9.7251 20.8872 9.20435Z" fill="#F5F2FF"/>
<path d="M25.8311 9.2146C25.8926 9.71851 25.7622 10.1272 25.3337 10.3916C25.1776 10.4937 24.9946 10.547 24.808 10.5446C24.6215 10.5423 24.4399 10.4844 24.2864 10.3784C23.8667 10.114 23.7627 9.70459 23.811 9.2146H25.8311Z" fill="#F5F2FF"/>
<path d="M27.9258 22.4363C27.8606 21.7822 27.9697 21.5786 28.3894 21.5478C28.8567 21.5141 29.0105 21.7156 29.053 22.4363H27.9258Z" fill="#F5F2FF"/>
<path d="M0.895752 21.5793H1.43628V22.4114H0.895752V21.5793Z" fill="#F5F2FF"/>
<path d="M9.59253 4.01367V2.88281H28.5798V4.01367H9.59253Z" fill="#F5F2FF"/>
<path d="M16.7747 20.8674C15.4504 20.8674 14.126 20.8674 12.8013 20.8674C12.2205 20.8674 12.0066 20.6572 12.0051 20.08C12.0051 18.9706 12.0051 17.8605 12.0051 16.7497C12.0051 16.2048 12.2249 15.9799 12.7625 15.9843C13.6187 15.9916 14.4763 15.9843 15.3259 16.04C16.1953 16.0993 16.9797 16.4479 17.7026 16.9269C18.7976 17.652 19.8999 18.3705 20.9758 19.1183C21.2201 19.2894 21.4164 19.5205 21.5457 19.7892C21.8218 20.3906 21.49 20.8637 20.8301 20.8666C19.7314 20.8718 18.6328 20.8666 17.5298 20.8666L16.7747 20.8674ZM12.9229 19.9467H20.5906C20.5691 19.9156 20.5445 19.8866 20.5173 19.8603C19.4006 19.1162 18.2834 18.3727 17.1658 17.6301C16.5908 17.2492 15.9624 16.9709 15.2747 16.9218C14.51 16.8691 13.7366 16.9006 12.9705 16.8976C12.9558 16.8976 12.9412 16.9204 12.925 16.9343L12.9229 19.9467Z" fill="#2169CF"/>
<path d="M8.15991 20.8674C7.40991 20.8674 6.65918 20.8725 5.90918 20.8674C5.00171 20.8579 4.32202 20.3627 4.08545 19.549C4.0318 19.3914 4.03055 19.2206 4.0819 19.0622C4.13325 18.9038 4.23443 18.7663 4.37036 18.6701C5.0127 18.1662 5.65649 17.6645 6.29297 17.154C7.28174 16.3608 8.41699 15.9909 9.6731 15.9821C10.0133 15.9718 10.3538 15.9828 10.6926 16.0151C11.0317 16.0546 11.22 16.2736 11.2222 16.6061C11.2305 17.8146 11.2305 19.0231 11.2222 20.2316C11.2222 20.6381 10.9417 20.8615 10.47 20.8644C9.7002 20.871 8.93042 20.8674 8.15991 20.8674ZM4.9834 19.4194C5.14453 19.82 5.49609 19.9702 5.93555 19.9694C7.33643 19.9694 8.73755 19.9694 10.1389 19.9694C10.2028 19.9661 10.2664 19.9588 10.3293 19.9475V16.9057C9.04541 16.7914 7.86914 17.0082 6.86279 17.8381C6.24536 18.35 5.63379 18.873 4.9834 19.4194Z" fill="#2169CF"/>
<path d="M13.1104 22.7205C12.9151 22.7294 12.7195 22.7279 12.5244 22.7161C12.4702 22.7141 12.4168 22.7014 12.3675 22.6787C12.3182 22.6559 12.2739 22.6236 12.2372 22.5836C12.2005 22.5436 12.172 22.4967 12.1536 22.4457C12.1351 22.3946 12.127 22.3404 12.1296 22.2862C12.1296 22.0459 12.2717 21.8679 12.5215 21.8562C12.9192 21.8373 13.3177 21.8385 13.7153 21.8599C13.9446 21.8723 14.0815 22.0261 14.0911 22.2678C14.0991 22.5242 13.96 22.6751 13.7183 22.711C13.5176 22.741 13.3118 22.7344 13.1074 22.7447L13.1104 22.7205Z" fill="#2169CF"/>
<path d="M24.5515 26.7824C24.2697 26.7779 23.9955 26.6904 23.7632 26.5307C23.5309 26.3711 23.3509 26.1465 23.2458 25.885C23.1406 25.6235 23.115 25.3367 23.172 25.0607C23.2291 24.7847 23.3664 24.5317 23.5666 24.3334C23.7669 24.135 24.0212 24.0002 24.2978 23.9458C24.5743 23.8913 24.8608 23.9198 25.1212 24.0274C25.3817 24.1351 25.6046 24.3172 25.762 24.551C25.9194 24.7848 26.0043 25.0599 26.0061 25.3417C26.0054 25.5319 25.9672 25.7201 25.8937 25.8955C25.8202 26.0709 25.7128 26.23 25.5777 26.3639C25.4426 26.4977 25.2824 26.6036 25.1063 26.6754C24.9302 26.7472 24.7417 26.7836 24.5515 26.7824ZM25.0986 25.3644C25.0988 25.2583 25.0675 25.1545 25.0087 25.0661C24.95 24.9777 24.8664 24.9087 24.7684 24.8678C24.6705 24.8268 24.5627 24.8158 24.4585 24.836C24.3543 24.8563 24.2584 24.9069 24.183 24.9815C24.1075 25.0562 24.0558 25.1515 24.0345 25.2555C24.0131 25.3594 24.023 25.4674 24.0628 25.5657C24.1027 25.6641 24.1708 25.7485 24.2586 25.8082C24.3463 25.8679 24.4498 25.9003 24.5559 25.9013C24.6984 25.8998 24.8347 25.843 24.936 25.7428C25.0373 25.6426 25.0956 25.5069 25.0986 25.3644Z" fill="#2169CF"/>
<path d="M5.3313 26.7825C5.04819 26.7817 4.77166 26.6971 4.53663 26.5393C4.30161 26.3814 4.11866 26.1575 4.01088 25.8957C3.90311 25.6339 3.87537 25.346 3.93115 25.0685C3.98693 24.7909 4.12373 24.5361 4.32428 24.3363C4.52482 24.1365 4.7801 24.0006 5.05786 23.9458C5.33561 23.891 5.62337 23.9198 5.88478 24.0285C6.14618 24.1372 6.36949 24.3209 6.52649 24.5565C6.68349 24.7921 6.76713 25.0689 6.76685 25.352C6.76377 25.7314 6.61137 26.0942 6.34267 26.3619C6.07398 26.6296 5.71061 26.7807 5.3313 26.7825ZM5.8623 25.352C5.85998 25.2458 5.82628 25.1427 5.76545 25.0556C5.70461 24.9685 5.61936 24.9013 5.52043 24.8626C5.42151 24.8238 5.31332 24.8152 5.20951 24.8378C5.1057 24.8604 5.0109 24.9133 4.93706 24.9896C4.86321 25.066 4.81362 25.1626 4.79453 25.2671C4.77544 25.3716 4.78771 25.4794 4.82978 25.577C4.87186 25.6745 4.94186 25.7575 5.03097 25.8153C5.12009 25.8732 5.22433 25.9034 5.33057 25.9021C5.47331 25.8975 5.60867 25.8375 5.70793 25.7349C5.8072 25.6322 5.86257 25.4949 5.8623 25.352Z" fill="#2169CF"/>
<path d="M12.9229 19.9468V16.9344C12.939 16.9204 12.9536 16.8977 12.9683 16.8977C13.7366 16.8977 14.5063 16.8692 15.2725 16.9219C15.9602 16.9695 16.5908 17.2493 17.1636 17.6302C18.2817 18.3714 19.3989 19.1148 20.5151 19.8604C20.5423 19.8867 20.5669 19.9157 20.5884 19.9468H12.9229Z" fill="white"/>
<path d="M4.9834 19.4194C5.63379 18.873 6.24536 18.35 6.86572 17.8381C7.87207 17.0082 9.04834 16.7914 10.3323 16.9057V19.946C10.2693 19.9573 10.2057 19.9647 10.1418 19.968C8.74097 19.968 7.33984 19.968 5.93848 19.968C5.49316 19.9702 5.14453 19.82 4.9834 19.4194Z" fill="white"/>
<path d="M25.0986 25.3645C25.0935 25.4704 25.0571 25.5725 24.9941 25.6578C24.9311 25.7432 24.8443 25.8079 24.7446 25.844C24.6448 25.8801 24.5366 25.8859 24.4336 25.8606C24.3306 25.8354 24.2374 25.7802 24.1656 25.7021C24.0939 25.6239 24.0469 25.5263 24.0305 25.4215C24.0141 25.3168 24.0291 25.2095 24.0736 25.1132C24.118 25.0169 24.19 24.9359 24.2804 24.8804C24.3708 24.8249 24.4755 24.7973 24.5815 24.8013C24.7242 24.809 24.8582 24.8723 24.9548 24.9776C25.0514 25.0828 25.103 25.2217 25.0986 25.3645Z" fill="#F5F2FF"/>
<path d="M5.8623 25.3521C5.85984 25.4584 5.82597 25.5615 5.76498 25.6485C5.704 25.7356 5.61861 25.8026 5.51959 25.8412C5.42057 25.8798 5.31234 25.8882 5.20854 25.8654C5.10474 25.8426 5.01002 25.7895 4.93631 25.713C4.8626 25.6364 4.8132 25.5397 4.79434 25.4352C4.77547 25.3306 4.78799 25.2227 4.83031 25.1252C4.87262 25.0278 4.94285 24.945 5.03213 24.8873C5.12142 24.8297 5.22577 24.7998 5.33203 24.8013C5.47459 24.8065 5.60957 24.8668 5.70851 24.9695C5.80744 25.0723 5.86259 25.2095 5.8623 25.3521Z" fill="#F5F2FF"/>
</g>
<defs>
<clipPath id="clip0_1_1496">
<rect width="30" height="30" fill="white"/>
</clipPath>
</defs>
</svg>
