<svg width="34" height="34" viewBox="0 0 34 34" fill="none" xmlns="http://www.w3.org/2000/svg">
<g clip-path="url(#clip0_1_1620)">
<path d="M16.9821 10.9647C13.9571 10.9615 11.516 8.50407 11.5193 5.46121C11.5209 2.43462 13.9783 -0.0032494 17.0228 3.25104e-06C20.0494 0.00325591 22.4889 2.45901 22.4856 5.50187C22.4823 8.52847 20.025 10.968 16.9805 10.9647H16.9821ZM19.7436 8.84397C20.8934 8.06171 21.7668 6.12475 21.2138 4.2805C20.6446 2.37932 18.9044 1.0685 16.948 1.09452C15.0061 1.12054 13.2725 2.47365 12.7634 4.3488C12.2446 6.26136 13.1863 8.13489 14.2596 8.83747C14.2596 8.06496 14.2564 7.31685 14.2596 6.56874C14.2629 5.88568 14.6597 5.31322 15.2972 5.05788C15.3997 5.01722 15.5054 4.97982 15.6127 4.93916C14.8646 3.78772 14.9134 2.83957 15.7461 2.1061C16.4405 1.4946 17.522 1.48647 18.2311 2.08658C18.5938 2.39396 18.8247 2.78428 18.8995 3.24941C19.0004 3.88205 18.8036 4.43662 18.3726 4.91476C18.4263 4.94892 18.4523 4.97331 18.4832 4.98307C19.3744 5.28557 19.742 5.79949 19.742 6.74438C19.742 7.42907 19.742 8.11538 19.742 8.84397H19.7436ZM15.3558 7.9869C15.3558 8.43089 15.3428 8.8765 15.3655 9.32049C15.3704 9.41969 15.4761 9.56606 15.5688 9.60021C16.5219 9.95963 17.4846 9.95313 18.4393 9.60184C18.532 9.56769 18.6393 9.41807 18.641 9.31886C18.6572 8.42926 18.6556 7.53966 18.6475 6.65006C18.6442 6.24185 18.4182 6.03368 17.9953 6.0288C17.3334 6.02229 16.6715 6.02229 16.0112 6.0288C15.5737 6.03368 15.3655 6.24673 15.359 6.68421C15.3525 7.11681 15.359 7.55104 15.359 7.98364L15.3558 7.9869ZM17.8229 3.56491C17.8229 3.13882 17.4505 2.75663 17.0211 2.74362C16.582 2.73061 16.1836 3.1193 16.1836 3.56166C16.1836 3.98938 16.5544 4.36995 16.9854 4.38296C17.4228 4.39597 17.8229 4.00565 17.8245 3.56491H17.8229Z" fill="#2169CF"/>
<path d="M21.4805 16.7317C21.461 16.8537 21.4643 16.9171 21.4399 16.9659C21.2772 17.2798 21.3651 17.5562 21.4903 17.8701C21.6204 18.1986 21.7928 18.4214 22.1099 18.5808C22.2563 18.654 22.3929 18.8589 22.4222 19.0248C22.4823 19.3582 22.471 19.7046 22.4824 20.0461C22.4986 20.5097 22.3344 20.843 21.8806 21.0528C21.7147 21.1309 21.6302 21.3944 21.5179 21.5781C21.339 21.8725 21.2968 22.1636 21.4236 22.5133C21.487 22.6857 21.4106 22.9784 21.2903 23.1345C21.0431 23.4582 20.7259 23.7282 20.4348 24.016C20.225 24.2226 19.9811 24.2437 19.7062 24.1591C19.1646 23.9932 18.4783 24.2697 18.2246 24.7609C18.0929 25.0178 17.9059 25.1821 17.6164 25.1886C17.1952 25.1984 16.7739 25.1951 16.3527 25.1837C16.073 25.1772 15.9006 25.0097 15.7754 24.7674C15.5217 24.2746 14.8321 23.9916 14.2954 24.1575C14.0222 24.2421 13.7782 24.2274 13.5668 24.0209C13.2903 23.7493 13.0171 23.4744 12.7423 23.2028C12.5016 22.9654 12.4821 22.6971 12.591 22.3864C12.7488 21.9359 12.4414 21.183 12.0104 20.9829C11.6754 20.8284 11.5307 20.5812 11.5258 20.2299C11.5209 19.9681 11.5307 19.7046 11.5177 19.4428C11.4933 18.9581 11.6526 18.602 12.1405 18.4247C12.2397 18.3889 12.3308 18.2669 12.3764 18.1629C12.5552 17.7433 12.7911 17.3334 12.5471 16.8407C12.4918 16.7301 12.5748 16.4926 12.6707 16.3772C12.9326 16.0633 13.2351 15.7835 13.5213 15.4908C13.7555 15.2534 14.0206 15.2176 14.3361 15.3282C14.8093 15.4924 15.5428 15.1867 15.7624 14.7313C15.9104 14.4272 16.1364 14.2808 16.4601 14.2711C16.7219 14.2629 16.9854 14.2727 17.2472 14.258C17.7562 14.2271 18.1222 14.3882 18.3287 14.8988C18.384 15.0371 18.6231 15.107 18.7825 15.1997C19.1093 15.3883 19.433 15.4697 19.8135 15.3021C19.9485 15.2436 20.2039 15.2859 20.3193 15.3835C20.6901 15.7006 21.0284 16.0568 21.3618 16.4162C21.4448 16.5056 21.4561 16.6618 21.4805 16.7333V16.7317ZM19.2378 22.8629C19.4102 22.9085 19.5631 22.9508 19.716 22.9898C19.9615 23.0516 20.3551 22.7052 20.2592 22.4824C20.0786 22.066 20.173 21.7131 20.3925 21.3521C20.4852 21.1992 20.5503 21.0203 20.5893 20.8447C20.6657 20.5064 20.8381 20.2624 21.1732 20.1502C21.3781 20.0819 21.3943 19.9258 21.3943 19.742C21.3943 19.5582 21.3813 19.4005 21.1748 19.3322C20.8235 19.2151 20.6609 18.9484 20.5779 18.6036C20.5324 18.4182 20.4641 18.2279 20.3632 18.0669C20.1534 17.7335 20.0949 17.4082 20.2461 17.0326C20.3389 16.8016 19.9697 16.3902 19.7517 16.4845C19.3208 16.6715 18.9597 16.5609 18.5905 16.3349C18.4572 16.2536 18.2994 16.1983 18.1466 16.1641C17.7855 16.086 17.5399 15.899 17.3903 15.5477C17.2683 15.2615 16.7365 15.2485 16.6178 15.5298C16.4568 15.9055 16.1868 16.0909 15.8046 16.1787C15.6079 16.2243 15.4111 16.3105 15.2419 16.4211C14.9459 16.613 14.6581 16.6178 14.3296 16.5154C14.2157 16.4796 14.0222 16.5447 13.9327 16.6325C13.8319 16.7317 13.7311 16.9334 13.7669 17.0472C13.8807 17.4017 13.8661 17.7075 13.6579 18.023C13.5538 18.1824 13.4774 18.371 13.4351 18.5564C13.3473 18.9386 13.1619 19.2102 12.7829 19.3647C12.5243 19.4704 12.5243 20.0055 12.7829 20.1145C13.157 20.2738 13.3489 20.5422 13.4367 20.926C13.479 21.1114 13.5538 21.3017 13.6595 21.4594C13.8677 21.7733 13.8856 22.0807 13.7685 22.4336C13.7327 22.5409 13.8189 22.7312 13.91 22.8255C14.0011 22.9199 14.1962 23.0142 14.2987 22.9768C14.6646 22.8451 14.9817 22.8792 15.3054 23.0906C15.455 23.1882 15.6323 23.263 15.8063 23.3021C16.1901 23.385 16.4617 23.5688 16.6194 23.9493C16.7284 24.2112 17.2683 24.2242 17.3757 23.9656C17.5432 23.5574 17.8457 23.3866 18.2474 23.289C18.4751 23.2337 18.6816 23.0923 18.8995 22.9947C19.0118 22.9443 19.1289 22.9069 19.2395 22.8646L19.2378 22.8629Z" fill="#2169CF"/>
<path d="M5.47259 32.3525C2.44274 32.3509 0 29.8984 0 26.8588C0 23.8273 2.4525 21.3862 5.49373 21.3878C8.52521 21.3878 10.9696 23.8403 10.968 26.8799C10.968 29.9098 8.5122 32.3541 5.47259 32.3525ZM5.47747 31.258C7.87142 31.2613 9.86205 29.2804 9.87181 26.8848C9.88157 24.4925 7.90232 22.497 5.50674 22.4823C3.10141 22.4693 1.09289 24.4665 1.09452 26.8734C1.09452 29.2657 3.08352 31.2547 5.47747 31.258Z" fill="#2169CF"/>
<path d="M34.0049 26.8848C34.0033 29.913 31.5459 32.3542 28.5046 32.3525C25.4764 32.3509 23.0353 29.8951 23.0369 26.8539C23.0386 23.8111 25.4992 21.3813 28.5697 21.3878C31.5703 21.3943 34.0065 23.8582 34.0033 26.8848H34.0049ZM32.9104 26.8734C32.9136 24.4795 30.9295 22.4889 28.5339 22.4824C26.14 22.4742 24.1445 24.4551 24.1331 26.849C24.1217 29.256 26.1204 31.2613 28.5258 31.258C30.9214 31.2548 32.9055 29.2706 32.9104 26.8734Z" fill="#2169CF"/>
<path d="M6.40122 10.2622C4.35693 13.0562 3.53564 16.1446 3.94384 19.5827C3.59093 19.6347 3.25591 19.6835 2.86396 19.742C2.82493 19.3956 2.77126 19.0639 2.755 18.7305C2.58423 15.3688 3.4966 12.3309 5.51 9.62954C5.65474 9.436 5.62384 9.32379 5.4856 9.16603C5.17497 8.81475 4.87898 8.4537 4.57649 8.09591C4.4106 7.90075 4.25285 7.70071 4.36506 7.42098C4.4724 7.15264 4.69033 7.07295 4.96193 7.04368C6.20932 6.90869 7.45508 6.75744 8.70085 6.6192C9.1546 6.56879 9.45384 6.90056 9.33024 7.34455C8.98221 8.59519 8.62767 9.84259 8.25361 11.0851C8.10562 11.5746 7.61284 11.6624 7.26968 11.2786C6.9802 10.9566 6.70697 10.62 6.40448 10.2622H6.40122ZM7.47135 9.81006C7.67301 9.11399 7.85679 8.48623 8.05195 7.80968C7.35263 7.88937 6.69722 7.96418 5.98488 8.04549C6.4923 8.64723 6.95418 9.19368 7.47135 9.80843V9.81006Z" fill="#2169CF"/>
<path d="M23.5834 8.0829C23.7704 7.7495 23.9428 7.44537 24.1314 7.11035C27.2719 9.29614 29.191 12.243 29.9391 15.8974C30.4985 15.8974 31.0222 15.9039 31.5459 15.8941C31.7898 15.8893 31.9996 15.9267 32.1362 16.1544C32.2793 16.3918 32.2175 16.6081 32.0842 16.8277C31.445 17.8799 30.8157 18.9386 30.1749 19.9909C29.8626 20.5064 29.4463 20.5243 29.0917 20.0413C28.3664 19.059 27.6508 18.0702 26.9222 17.0911C26.7677 16.8846 26.6734 16.6732 26.7759 16.4276C26.8864 16.1609 27.1255 16.0942 27.3939 16.0844C27.8492 16.0682 28.303 16.0405 28.8218 16.0161C28.1078 12.6789 26.3644 10.0605 23.585 8.08452L23.5834 8.0829ZM29.5764 18.8297C29.9374 18.2279 30.2708 17.6685 30.6465 17.044C29.8415 17.0814 29.1226 17.1139 28.3404 17.1513C28.7681 17.7335 29.1617 18.267 29.5764 18.8313V18.8297Z" fill="#2169CF"/>
<path d="M22.3132 30.2091C22.4726 30.5587 22.619 30.8775 22.7735 31.2158C20.3258 32.2989 17.8115 32.6404 15.1492 32.2176C14.9899 32.6307 14.8256 33.0503 14.663 33.4698C14.5654 33.7203 14.4581 33.961 14.1442 33.9951C13.84 34.0277 13.6612 33.8488 13.5018 33.6211C12.8057 32.6307 12.1031 31.6467 11.4087 30.6547C11.0802 30.1847 11.2314 29.7992 11.7925 29.6707C13.0025 29.3943 14.2125 29.1129 15.429 28.8641C15.6209 28.8251 15.9299 28.8803 16.034 29.0121C16.1527 29.1617 16.1689 29.4642 16.1104 29.6659C15.9657 30.1635 15.7526 30.6433 15.5558 31.1605C17.9107 31.4695 20.1388 31.1783 22.3132 30.2074V30.2091ZM12.726 30.5831C13.131 31.1556 13.5115 31.6939 13.9295 32.2842C14.2157 31.5345 14.4743 30.8596 14.754 30.1261C14.0417 30.2871 13.4042 30.4302 12.7244 30.5831H12.726Z" fill="#2169CF"/>
<path d="M19.7436 8.84395C19.7436 8.11535 19.7436 7.43067 19.7436 6.74436C19.7436 5.79784 19.3761 5.28554 18.4848 4.98305C18.4539 4.97329 18.4279 4.94889 18.3742 4.91474C18.8052 4.4366 19.002 3.88202 18.9012 3.24938C18.8264 2.78425 18.5971 2.39393 18.2328 2.08656C17.5237 1.48644 16.4422 1.49457 15.7477 2.10607C14.915 2.83955 14.8663 3.78607 15.6144 4.93913C15.5054 4.97979 15.4013 5.01557 15.2989 5.05786C14.6613 5.31319 14.2645 5.88566 14.2613 6.56871C14.2564 7.31682 14.2613 8.06494 14.2613 8.83744C13.1879 8.13487 12.2462 6.26134 12.765 4.34878C13.2725 2.47362 15.0061 1.12052 16.9496 1.0945C18.9061 1.06848 20.6462 2.3793 21.2154 4.28047C21.7668 6.12473 20.8951 8.06168 19.7452 8.84395H19.7436Z" fill="white"/>
<path d="M15.3558 7.98695C15.3558 7.55434 15.3509 7.12011 15.3558 6.68751C15.3623 6.2484 15.5705 6.03535 16.0079 6.0321C16.6699 6.0256 17.3318 6.0256 17.9921 6.0321C18.4149 6.03535 18.641 6.24515 18.6442 6.65336C18.6524 7.54296 18.654 8.43256 18.6377 9.32216C18.6361 9.41974 18.5288 9.57099 18.436 9.60514C17.4814 9.95643 16.5186 9.96293 15.5656 9.60352C15.4729 9.56936 15.3672 9.42299 15.3623 9.32379C15.3411 8.8798 15.3525 8.43419 15.3525 7.9902L15.3558 7.98695Z" fill="white"/>
<path d="M17.8229 3.5649C17.8229 4.00726 17.4228 4.39595 16.9837 4.38294C16.5528 4.36993 16.182 3.98937 16.182 3.56165C16.182 3.11929 16.5804 2.73059 17.0195 2.7436C17.4489 2.75661 17.8229 3.13717 17.8213 3.5649H17.8229Z" fill="white"/>
<path d="M19.2378 22.8629C19.1272 22.9052 19.0101 22.9426 18.8979 22.993C18.68 23.0906 18.4735 23.2321 18.2458 23.2874C17.8441 23.3849 17.5416 23.5573 17.3741 23.9639C17.2683 24.2225 16.7268 24.2111 16.6178 23.9477C16.4601 23.5687 16.1885 23.3849 15.8047 23.3004C15.629 23.263 15.4534 23.1882 15.3037 23.089C14.9817 22.8775 14.6646 22.8434 14.297 22.9751C14.1946 23.0125 13.9994 22.9166 13.9084 22.8239C13.8173 22.7312 13.7311 22.5393 13.7669 22.4319C13.8856 22.079 13.8677 21.7716 13.6579 21.4577C13.5522 21.3 13.4774 21.1097 13.4351 20.9243C13.3473 20.5405 13.157 20.2722 12.7813 20.1128C12.5227 20.0038 12.5227 19.4687 12.7813 19.363C13.1602 19.2085 13.3456 18.9369 13.4335 18.5547C13.4757 18.3693 13.5522 18.1807 13.6563 18.0213C13.8628 17.7074 13.8791 17.4001 13.7652 17.0455C13.7295 16.9317 13.8303 16.73 13.9311 16.6308C14.0206 16.543 14.2141 16.4779 14.3279 16.5137C14.6565 16.6162 14.9443 16.6113 15.2403 16.4194C15.4095 16.3104 15.6062 16.2226 15.803 16.1771C16.1868 16.0892 16.4552 15.9038 16.6162 15.5282C16.7365 15.2468 17.2667 15.2598 17.3887 15.546C17.5383 15.8973 17.7839 16.0844 18.1449 16.1624C18.2994 16.1966 18.4556 16.2519 18.5889 16.3332C18.9565 16.5576 19.3191 16.6698 19.7501 16.4828C19.968 16.3885 20.3389 16.7999 20.2445 17.0309C20.0933 17.4066 20.1502 17.7335 20.3616 18.0652C20.4625 18.2262 20.5324 18.4165 20.5763 18.6019C20.6609 18.9467 20.8235 19.2118 21.1732 19.3305C21.3781 19.3988 21.3927 19.5566 21.3927 19.7403C21.3927 19.9241 21.3764 20.0802 21.1715 20.1486C20.8349 20.2608 20.6641 20.5047 20.5877 20.843C20.547 21.0186 20.4836 21.1975 20.3909 21.3504C20.1713 21.7115 20.077 22.0644 20.2575 22.4807C20.3535 22.7035 19.9599 23.0515 19.7143 22.9881C19.5598 22.9491 19.407 22.9068 19.2362 22.8613L19.2378 22.8629ZM19.7436 19.7534C19.7469 18.2246 18.5353 17.0032 17.0163 17C15.4875 16.9967 14.2645 18.2083 14.2613 19.7273C14.258 21.2545 15.4713 22.4791 16.9886 22.4823C18.5157 22.4856 19.7404 21.2723 19.7436 19.755V19.7534Z" fill="white"/>
<path d="M5.47747 31.258C3.08352 31.2548 1.09614 29.2658 1.09452 26.8734C1.09452 24.4665 3.09978 22.4694 5.50674 22.4824C7.90233 22.4954 9.88157 24.4909 9.87181 26.8848C9.86205 29.2804 7.87142 31.2629 5.47747 31.258ZM4.9359 24.0323C4.12274 24.1998 3.54702 24.6405 3.44131 25.4732C3.30145 26.5791 3.93083 27.1792 4.905 27.4394V28.4998C4.52607 28.5177 4.66105 27.9712 4.28049 28.0005C4.00239 28.0233 3.71941 28.0054 3.44131 28.0054C3.41529 28.8527 3.91294 29.4121 4.92289 29.7163C4.93428 29.8561 4.94566 29.9992 4.95867 30.1603C5.15058 30.1603 5.32134 30.1603 5.49048 30.1603C5.65962 30.1603 5.84339 30.1603 6.01741 30.1603C6.0288 29.97 6.03693 29.835 6.04506 29.7049C6.92978 29.4756 7.49574 28.9519 7.52339 28.2461C7.53803 27.8964 7.46647 27.5158 7.3266 27.1955C7.09241 26.6588 6.58337 26.4278 6.05482 26.3107V25.2439C6.43863 25.2048 6.3069 25.7513 6.6712 25.7334C6.95255 25.7188 7.23553 25.7301 7.62097 25.7301C7.50062 25.3902 7.43882 25.1007 7.30221 24.8552C7.03224 24.3705 6.57036 24.1315 6.04181 24.0355C6.03368 23.8729 6.02717 23.7395 6.02066 23.5964H4.93753V24.0306L4.9359 24.0323Z" fill="white"/>
<path d="M32.9104 26.8734C32.9071 29.2706 30.9214 31.2547 28.5258 31.258C26.1188 31.2612 24.1201 29.256 24.1331 26.849C24.1445 24.4551 26.1416 22.4742 28.5339 22.4823C30.9295 22.4905 32.9136 24.4811 32.9104 26.8734ZM31.2629 26.8848C31.2629 26.1643 31.2661 25.4455 31.2629 24.725C31.2596 24.3363 31.0596 24.1314 30.6725 24.1298C29.2446 24.1249 27.8167 24.1265 26.3872 24.1298C25.9806 24.1298 25.7838 24.3331 25.7838 24.7462C25.7805 26.1627 25.7805 27.5792 25.7838 28.9958C25.7838 29.4056 25.9838 29.6073 26.392 29.6089C27.8086 29.6121 29.2251 29.6121 30.6433 29.6089C31.0694 29.6089 31.2629 29.4089 31.2645 28.9746C31.2678 28.2786 31.2645 27.5809 31.2645 26.8848H31.2629Z" fill="white"/>
<path d="M7.47135 9.81004C6.95255 9.19528 6.4923 8.64721 5.98488 8.0471C6.69884 7.96578 7.35425 7.89097 8.05195 7.81128C7.85516 8.48621 7.67301 9.11559 7.47135 9.81166V9.81004Z" fill="white"/>
<path d="M29.5764 18.8296C29.1617 18.2652 28.7681 17.7318 28.3404 17.1496C29.1226 17.1138 29.8415 17.0796 30.6465 17.0422C30.2725 17.6684 29.9374 18.2262 29.5764 18.8279V18.8296Z" fill="white"/>
<path d="M12.726 30.5831C13.4058 30.4302 14.0417 30.2871 14.7557 30.1261C14.4759 30.8596 14.2174 31.5345 13.9311 32.2842C13.5132 31.6939 13.1326 31.1539 12.7276 30.5831H12.726Z" fill="white"/>
<path d="M19.7436 19.7534C19.7404 21.2708 18.5174 22.484 16.9886 22.4808C15.4696 22.4775 14.258 21.2545 14.2613 19.7258C14.2645 18.2068 15.4875 16.9968 17.0163 16.9984C18.5369 17.0017 19.7469 18.223 19.7436 19.7518V19.7534ZM18.6475 19.7388C18.6475 18.8557 17.8945 18.1011 17.0081 18.0962C16.125 18.0913 15.3672 18.8394 15.3574 19.7258C15.346 20.617 16.1202 21.3928 17.013 21.3862C17.8977 21.3781 18.6491 20.6219 18.6475 19.7388Z" fill="#2169CF"/>
<path d="M4.9359 24.0323V23.598H6.01904C6.02554 23.7411 6.03205 23.8745 6.04018 24.0371C6.56874 24.1347 7.03061 24.3722 7.30058 24.8568C7.43882 25.1024 7.49899 25.3919 7.61934 25.7318C7.2339 25.7318 6.95092 25.7204 6.66957 25.735C6.3069 25.7545 6.437 25.2065 6.05319 25.2455V26.3124C6.58175 26.4295 7.09079 26.6588 7.32498 27.1971C7.46484 27.5175 7.5364 27.898 7.52176 28.2477C7.49412 28.9535 6.92815 29.4756 6.04343 29.7065C6.0353 29.8366 6.02717 29.9716 6.01578 30.1619C5.84339 30.1619 5.66612 30.1619 5.48885 30.1619C5.31158 30.1619 5.14895 30.1619 4.95704 30.1619C4.94403 29.9992 4.93265 29.8578 4.92127 29.7179C3.91294 29.4121 3.41366 28.8543 3.43968 28.007C3.71778 28.007 3.99914 28.0249 4.27887 28.0021C4.65943 27.9728 4.52607 28.5177 4.90338 28.5014V27.441C3.93083 27.1808 3.30144 26.5807 3.43968 25.4748C3.54539 24.6421 4.11949 24.2014 4.93428 24.0339L4.9359 24.0323ZM6.06132 27.4719V28.5502C6.31665 28.412 6.45327 28.2477 6.44351 27.9956C6.43538 27.75 6.3069 27.5841 6.06132 27.4719ZM4.91639 25.1951C4.64804 25.3252 4.51143 25.4959 4.52444 25.7578C4.53745 25.9969 4.65292 26.1725 4.91639 26.2587V25.1951Z" fill="#2169CF"/>
<path d="M31.2629 26.8848C31.2629 27.5808 31.2661 28.2785 31.2629 28.9746C31.2613 29.4088 31.0677 29.6072 30.6416 29.6089C29.2251 29.6121 27.8086 29.6121 26.3904 29.6089C25.9822 29.6089 25.7838 29.4072 25.7822 28.9957C25.7789 27.5792 25.7789 26.1627 25.7822 24.7461C25.7822 24.3331 25.979 24.1314 26.3855 24.1298C27.8135 24.1265 29.2414 24.1265 30.6709 24.1298C31.058 24.1298 31.2596 24.3347 31.2613 24.725C31.2661 25.4438 31.2613 26.1643 31.2629 26.8848ZM26.8913 28.4981H30.1489V25.247H29.0527V26.849H27.9647V25.2503H26.8913V28.4981Z" fill="#2169CF"/>
<path d="M18.6475 19.7387C18.6475 20.6218 17.8977 21.378 17.013 21.3862C16.1202 21.3943 15.346 20.6185 15.3574 19.7257C15.3688 18.8393 16.125 18.0912 17.0081 18.0961C17.8929 18.101 18.6458 18.854 18.6475 19.7387Z" fill="white"/>
<path d="M6.06132 27.4719C6.30852 27.5841 6.43538 27.75 6.44351 27.9956C6.45164 28.2477 6.31665 28.4119 6.06132 28.5502V27.4719Z" fill="white"/>
<path d="M4.91639 25.1951V26.2587C4.65292 26.1741 4.53745 25.9985 4.52444 25.7578C4.51143 25.4959 4.64804 25.3252 4.91639 25.1951Z" fill="white"/>
<path d="M26.8913 28.4981V25.2503H27.9647V26.849H29.0527V25.2471H30.1489V28.4981H26.8913Z" fill="white"/>
</g>
<defs>
<clipPath id="clip0_1_1620">
<rect width="34.0049" height="34" fill="white"/>
</clipPath>
</defs>
</svg>
